<svg width="40" height="40" viewBox="0 0 40 40" fill="none" xmlns="http://www.w3.org/2000/svg">
<path d="M17.3263 19.1983H17.1463L17.5463 18.9783C18.3758 18.5509 19.0236 17.8392 19.3713 16.9733C19.6863 16.0654 19.7694 15.0932 19.613 14.145C19.5197 13.3065 19.2025 12.5086 18.6946 11.835C18.1867 11.1614 17.5068 10.637 16.7263 10.3166C15.714 9.8793 14.6207 9.66065 13.518 9.67498H3.33301V30.265H12.6363C13.5226 30.2658 14.4074 30.1922 15.2813 30.045C16.2355 29.9095 17.1407 29.5378 17.9147 28.9635C18.6886 28.3892 19.3068 27.6306 19.713 26.7566C20.3204 25.5126 20.4963 24.1017 20.213 22.7466C20.0932 21.9509 19.7622 21.2018 19.2545 20.5774C18.7468 19.953 18.081 19.4762 17.3263 19.1966V19.1983ZM8.16634 13.265H12.1763C12.8531 13.2647 13.527 13.3521 14.1813 13.525C14.5369 13.6089 14.8567 13.8036 15.0945 14.081C15.3324 14.3584 15.476 14.7041 15.5047 15.0683C15.5868 15.4787 15.5868 15.9013 15.5047 16.3116C15.4471 16.5434 15.3403 16.7601 15.1916 16.947C15.043 17.1339 14.8559 17.2867 14.643 17.395C14.0218 17.7066 13.3326 17.8578 12.638 17.835H8.12467L8.16634 13.265ZM15.9247 24.7716C15.8344 25.2578 15.5915 25.7025 15.2312 26.0412C14.871 26.3799 14.4121 26.5949 13.9213 26.655C13.4854 26.7422 13.0425 26.7896 12.598 26.7966H8.12467V21.3433H12.8963C13.4086 21.3438 13.917 21.4317 14.3997 21.6033C14.8295 21.7393 15.2067 22.0051 15.4795 22.3641C15.7523 22.7231 15.9072 23.1577 15.923 23.6083C15.9753 23.9943 15.9753 24.3856 15.923 24.7716H15.9247ZM36.6563 23.4283C36.6763 23.3883 36.6763 23.3483 36.6163 23.3883V21.1633C36.596 20.1437 36.3633 19.1396 35.933 18.215C35.2817 16.8256 34.1395 15.7262 32.7263 15.1283C31.1718 14.4894 29.4637 14.3219 27.8147 14.6466C26.562 14.8213 25.3877 15.3585 24.4365 16.1921C23.4853 17.0257 22.7988 18.1194 22.4613 19.3383C21.8759 21.2089 21.7931 23.2006 22.2213 25.1133C22.4214 26.1921 22.9217 27.1926 23.6647 28C24.6121 28.9673 25.8037 29.6602 27.113 30.005C28.3731 30.349 29.6925 30.4172 30.9813 30.205C32.6014 30.0078 34.0928 29.2233 35.173 28C35.7103 27.4269 36.1144 26.7423 36.3563 25.995C36.4706 25.8239 36.5202 25.6177 36.4963 25.4133H32.5663C32.5246 25.4099 32.4829 25.4196 32.447 25.4411C32.4112 25.4627 32.3829 25.4949 32.3663 25.5333C32.1698 25.9209 31.8868 26.258 31.5391 26.5187C31.1914 26.7794 30.7884 26.9566 30.3613 27.0366C29.7658 27.1586 29.1518 27.1586 28.5563 27.0366C28.0448 26.96 27.5597 26.7592 27.1437 26.4518C26.7276 26.1445 26.3932 25.7398 26.1697 25.2733C25.994 24.8925 25.8792 24.4864 25.8297 24.07V23.4283H36.6563ZM26.0697 20.5416C26.158 20.2211 26.2654 19.9061 26.3913 19.5983C26.6035 19.0729 26.9658 18.6216 27.433 18.3009C27.9001 17.9802 28.4514 17.8042 29.018 17.795C29.6099 17.7387 30.2067 17.8209 30.7613 18.035C31.2641 18.2275 31.705 18.5532 32.0367 18.9772C32.3685 19.4011 32.5787 19.9074 32.6447 20.4416V20.8616L26.0697 20.9216C26.0625 20.7951 26.0625 20.6682 26.0697 20.5416ZM33.428 10.5166H25.088V12.9233L33.428 12.9033V10.5166Z" fill="#32403B"/>
</svg>
