<svg width="40" height="40" viewBox="0 0 40 40" fill="none" xmlns="http://www.w3.org/2000/svg">
<path d="M17.3263 19.1978H17.1463L17.5463 18.9778C18.3758 18.5504 19.0236 17.8387 19.3713 16.9728C19.6863 16.0649 19.7694 15.0927 19.613 14.1445C19.5197 13.306 19.2025 12.5081 18.6946 11.8345C18.1867 11.1609 17.5068 10.6365 16.7263 10.3162C15.714 9.87882 14.6207 9.66016 13.518 9.67449H3.33301V30.2645H12.6363C13.5226 30.2653 14.4074 30.1917 15.2813 30.0445C16.2355 29.909 17.1407 29.5373 17.9147 28.963C18.6886 28.3887 19.3068 27.6301 19.713 26.7562C20.3204 25.5121 20.4963 24.1013 20.213 22.7462C20.0932 21.9504 19.7622 21.2013 19.2545 20.5769C18.7468 19.9525 18.081 19.4757 17.3263 19.1962V19.1978ZM8.16634 13.2645H12.1763C12.8531 13.2642 13.527 13.3516 14.1813 13.5245C14.5369 13.6084 14.8567 13.8031 15.0945 14.0805C15.3324 14.3579 15.476 14.7036 15.5047 15.0678C15.5868 15.4782 15.5868 15.9008 15.5047 16.3112C15.4471 16.5429 15.3403 16.7596 15.1916 16.9465C15.043 17.1334 14.8559 17.2862 14.643 17.3945C14.0218 17.7061 13.3326 17.8573 12.638 17.8345H8.12467L8.16634 13.2645ZM15.9247 24.7712C15.8344 25.2573 15.5915 25.702 15.2312 26.0407C14.871 26.3794 14.4121 26.5944 13.9213 26.6545C13.4854 26.7417 13.0425 26.7891 12.598 26.7962H8.12467V21.3428H12.8963C13.4086 21.3433 13.917 21.4312 14.3997 21.6028C14.8295 21.7388 15.2067 22.0046 15.4795 22.3636C15.7523 22.7226 15.9072 23.1572 15.923 23.6078C15.9753 23.9938 15.9753 24.3851 15.923 24.7712H15.9247ZM36.6563 23.4278C36.6763 23.3878 36.6763 23.3478 36.6163 23.3878V21.1628C36.596 20.1432 36.3633 19.1391 35.933 18.2145C35.2817 16.8251 34.1395 15.7257 32.7263 15.1278C31.1718 14.4889 29.4637 14.3214 27.8147 14.6462C26.562 14.8208 25.3877 15.358 24.4365 16.1916C23.4853 17.0252 22.7988 18.1189 22.4613 19.3378C21.8759 21.2084 21.7931 23.2001 22.2213 25.1128C22.4214 26.1916 22.9217 27.1922 23.6647 27.9995C24.6121 28.9668 25.8037 29.6597 27.113 30.0045C28.3731 30.3485 29.6925 30.4167 30.9813 30.2045C32.6014 30.0073 34.0928 29.2228 35.173 27.9995C35.7103 27.4265 36.1144 26.7418 36.3563 25.9945C36.4706 25.8234 36.5202 25.6172 36.4963 25.4128H32.5663C32.5246 25.4094 32.4829 25.4191 32.447 25.4407C32.4112 25.4622 32.3829 25.4944 32.3663 25.5328C32.1698 25.9204 31.8868 26.2575 31.5391 26.5182C31.1914 26.7789 30.7884 26.9561 30.3613 27.0362C29.7658 27.1581 29.1518 27.1581 28.5563 27.0362C28.0448 26.9595 27.5597 26.7587 27.1437 26.4514C26.7276 26.144 26.3932 25.7393 26.1697 25.2728C25.994 24.892 25.8792 24.4859 25.8297 24.0695V23.4278H36.6563ZM26.0697 20.5412C26.158 20.2206 26.2654 19.9056 26.3913 19.5978C26.6035 19.0724 26.9658 18.6211 27.433 18.3004C27.9001 17.9797 28.4514 17.8037 29.018 17.7945C29.6099 17.7382 30.2067 17.8204 30.7613 18.0345C31.2641 18.227 31.705 18.5527 32.0367 18.9767C32.3685 19.4006 32.5787 19.9069 32.6447 20.4412V20.8612L26.0697 20.9212C26.0625 20.7946 26.0625 20.6677 26.0697 20.5412ZM33.428 10.5162H25.088V12.9228L33.428 12.9028V10.5162Z" fill="#2C2C2C"/>
</svg>
