<svg width="40" height="40" viewBox="0 0 40 40" fill="none" xmlns="http://www.w3.org/2000/svg">
<path d="M9.39376 11.7504C9.05985 11.4165 8.89328 11.0236 8.89407 10.5719C8.89486 10.1201 9.06142 9.72727 9.39376 9.39336C9.7261 9.05945 10.1189 8.89288 10.5723 8.89367C11.0256 8.89446 11.4184 9.06102 11.7508 9.39336L30.607 28.2495C30.9409 28.5835 31.1078 28.9767 31.1078 29.4292C31.1078 29.8818 30.9409 30.2742 30.607 30.6066C30.2731 30.9389 29.8798 31.1059 29.4273 31.1074C28.9747 31.109 28.5823 30.942 28.2499 30.6066L9.39376 11.7504Z" fill="#2C2C2C"/>
<path d="M10.5719 31.1059C11.0236 31.1067 11.4165 30.9402 11.7504 30.6062L30.6066 11.7501C30.942 11.4177 31.109 11.0253 31.1074 10.5727C31.1059 10.1202 30.9389 9.72695 30.6066 9.39304C30.2742 9.05913 29.8818 8.89217 29.4292 8.89217C28.9767 8.89217 28.5835 9.05913 28.2495 9.39304L9.39336 28.2492C9.06102 28.5816 8.89446 28.9744 8.89367 29.4277C8.89288 29.8811 9.05945 30.2739 9.39336 30.6062C9.72727 30.9386 10.1201 31.1051 10.5719 31.1059Z" fill="#2C2C2C"/>
<path d="M10.5719 31.1059C11.0236 31.1067 11.4165 30.9402 11.7504 30.6062L30.6066 11.7501C30.942 11.4177 31.109 11.0253 31.1074 10.5727C31.1059 10.1202 30.9389 9.72695 30.6066 9.39304C30.2742 9.05913 29.8818 8.89217 29.4292 8.89217C28.9767 8.89217 28.5835 9.05913 28.2495 9.39304L9.39336 28.2492C9.06102 28.5816 8.89446 28.9744 8.89367 29.4277C8.89288 29.8811 9.05945 30.2739 9.39336 30.6062C9.72727 30.9386 10.1201 31.1051 10.5719 31.1059Z" fill="#2C2C2C"/>
</svg>
