<svg width="40" height="40" viewBox="0 0 40 40" fill="none" xmlns="http://www.w3.org/2000/svg">
<path fill-rule="evenodd" clip-rule="evenodd" d="M20.9893 38.7633L20.9693 38.7666L20.851 38.825L20.8176 38.8316L20.7943 38.825L20.676 38.765C20.6582 38.7605 20.6449 38.7639 20.636 38.775L20.6293 38.7916L20.601 39.505L20.6093 39.5383L20.626 39.56L20.7993 39.6833L20.8243 39.69L20.8443 39.6833L21.0176 39.56L21.0376 39.5333L21.0443 39.505L21.016 38.7933C21.0115 38.7755 21.0026 38.7655 20.9893 38.7633ZM21.4293 38.575L21.406 38.5783L21.0993 38.7333L21.0826 38.75L21.0776 38.7683L21.1076 39.485L21.116 39.505L21.1293 39.5183L21.4643 39.6716C21.4854 39.6772 21.5015 39.6728 21.5126 39.6583L21.5193 39.635L21.4626 38.6116C21.4571 38.5905 21.446 38.5783 21.4293 38.575ZM20.2376 38.5783C20.2303 38.5739 20.2215 38.5724 20.2131 38.5743C20.2048 38.5761 20.1974 38.5812 20.1926 38.5883L20.1826 38.6116L20.126 39.635C20.1271 39.655 20.1365 39.6683 20.1543 39.675L20.1793 39.6716L20.5143 39.5166L20.531 39.5033L20.536 39.485L20.566 38.7683L20.561 38.7483L20.5443 38.7316L20.2376 38.5783Z" fill="#32403B"/>
<path fill-rule="evenodd" clip-rule="evenodd" d="M19.9997 3.33325C29.2047 3.33325 36.6663 10.7949 36.6663 19.9999C36.6663 29.2049 29.2047 36.6666 19.9997 36.6666C10.7947 36.6666 3.33301 29.2049 3.33301 19.9999C3.33301 10.7949 10.7947 3.33325 19.9997 3.33325ZM22.6947 23.3066C18.4463 24.5575 14.7322 27.1809 12.133 30.7666C14.4145 32.439 17.1709 33.3383 19.9997 33.3333C21.7301 33.3344 23.4442 32.9987 25.0463 32.3449C24.5202 29.2704 23.7335 26.2461 22.6947 23.3049V23.3066ZM25.9913 22.6349C26.878 25.2066 27.5913 27.8599 28.1147 30.5816C30.5603 28.707 32.2812 26.0433 32.9847 23.0433C30.6952 22.5002 28.3284 22.362 25.9913 22.6349ZM20.5847 18.1866C16.1252 19.7602 11.3711 20.3204 6.66801 19.8266L6.66634 19.9999C6.66634 23.2116 7.80301 26.1583 9.69467 28.4599C12.6549 24.5307 16.7797 21.636 21.4813 20.1883C21.1958 19.5157 20.8968 18.8489 20.5847 18.1883V18.1866ZM30.813 12.1983C28.6548 14.0839 26.2506 15.6678 23.6663 16.9066C24.0563 17.7399 24.4275 18.5827 24.7797 19.4349C27.613 19.0016 30.5297 19.0916 33.3297 19.7033C33.274 17.0038 32.3961 14.3855 30.813 12.1983ZM14.2897 7.94992C12.5477 8.7778 11.0055 9.97286 9.76904 11.453C8.53254 12.9332 7.63101 14.6634 7.12634 16.5249C11.152 16.9323 15.2183 16.4777 19.0547 15.1916C17.6593 12.6561 16.0661 10.2347 14.2897 7.94992ZM19.9997 6.66659C19.1986 6.66659 18.418 6.73492 17.658 6.87159C19.3268 9.11341 20.8324 11.4723 22.163 13.9299C24.4666 12.8334 26.6116 11.4307 28.5397 9.75992C26.1449 7.75735 23.1214 6.66217 19.9997 6.66659Z" fill="#32403B"/>
</svg>
