<svg width="40" height="40" viewBox="0 0 40 40" fill="none" xmlns="http://www.w3.org/2000/svg">
<path fill-rule="evenodd" clip-rule="evenodd" d="M20.9893 38.764L20.9693 38.7674L20.851 38.8257L20.8176 38.8324L20.7943 38.8257L20.676 38.7657C20.6582 38.7613 20.6449 38.7646 20.636 38.7757L20.6293 38.7924L20.601 39.5057L20.6093 39.539L20.626 39.5607L20.7993 39.684L20.8243 39.6907L20.8443 39.684L21.0176 39.5607L21.0376 39.534L21.0443 39.5057L21.016 38.794C21.0115 38.7763 21.0026 38.7663 20.9893 38.764ZM21.4293 38.5757L21.406 38.579L21.0993 38.734L21.0826 38.7507L21.0776 38.769L21.1076 39.4857L21.116 39.5057L21.1293 39.519L21.4643 39.6724C21.4854 39.6779 21.5015 39.6735 21.5126 39.659L21.5193 39.6357L21.4626 38.6124C21.4571 38.5913 21.446 38.579 21.4293 38.5757ZM20.2376 38.579C20.2303 38.5746 20.2215 38.5731 20.2131 38.575C20.2048 38.5769 20.1974 38.5819 20.1926 38.589L20.1826 38.6124L20.126 39.6357C20.1271 39.6557 20.1365 39.669 20.1543 39.6757L20.1793 39.6724L20.5143 39.5174L20.531 39.504L20.536 39.4857L20.566 38.769L20.561 38.749L20.5443 38.7324L20.2376 38.579Z" fill="#2C2C2C"/>
<path fill-rule="evenodd" clip-rule="evenodd" d="M19.9997 3.33398C29.2047 3.33398 36.6663 10.7957 36.6663 20.0007C36.6663 29.2057 29.2047 36.6673 19.9997 36.6673C10.7947 36.6673 3.33301 29.2057 3.33301 20.0007C3.33301 10.7957 10.7947 3.33398 19.9997 3.33398ZM22.6947 23.3073C18.4463 24.5582 14.7322 27.1816 12.133 30.7673C14.4145 32.4397 17.1709 33.339 19.9997 33.334C21.7301 33.3351 23.4442 32.9995 25.0463 32.3457C24.5202 29.2711 23.7335 26.2468 22.6947 23.3057V23.3073ZM25.9913 22.6357C26.878 25.2073 27.5913 27.8607 28.1147 30.5823C30.5603 28.7078 32.2812 26.044 32.9847 23.044C30.6952 22.5009 28.3284 22.3627 25.9913 22.6357ZM20.5847 18.1873C16.1252 19.7609 11.3711 20.3211 6.66801 19.8273L6.66634 20.0007C6.66634 23.2123 7.80301 26.159 9.69467 28.4607C12.6549 24.5314 16.7797 21.6367 21.4813 20.189C21.1958 19.5164 20.8968 18.8496 20.5847 18.189V18.1873ZM30.813 12.199C28.6548 14.0846 26.2506 15.6685 23.6663 16.9073C24.0563 17.7407 24.4275 18.5834 24.7797 19.4357C27.613 19.0023 30.5297 19.0923 33.3297 19.704C33.274 17.0045 32.3961 14.3863 30.813 12.199ZM14.2897 7.95065C12.5477 8.77854 11.0055 9.97359 9.76904 11.4538C8.53254 12.9339 7.63101 14.6642 7.12634 16.5257C11.152 16.933 15.2183 16.4785 19.0547 15.1923C17.6593 12.6568 16.0661 10.2354 14.2897 7.95065ZM19.9997 6.66732C19.1986 6.66732 18.418 6.73565 17.658 6.87232C19.3268 9.11414 20.8324 11.473 22.163 13.9307C24.4666 12.8341 26.6116 11.4314 28.5397 9.76065C26.1449 7.75808 23.1214 6.6629 19.9997 6.66732Z" fill="#2C2C2C"/>
</svg>
