<svg width="44" height="44" viewBox="0 0 44 44" fill="none" xmlns="http://www.w3.org/2000/svg">
<rect width="44" height="44" rx="8" fill="#32403B"/>
<path d="M22.0003 35.3334C14.6537 35.3334 8.66699 29.3467 8.66699 22.0001C8.66699 14.6534 14.6537 8.66675 22.0003 8.66675C29.347 8.66675 35.3337 14.0534 35.3337 20.6667C35.3337 25.0801 31.747 28.6667 27.3337 28.6667H24.9737C24.6003 28.6667 24.307 28.9601 24.307 29.3334C24.307 29.4934 24.3737 29.6401 24.4803 29.7734C25.027 30.4001 25.3337 31.1867 25.3337 32.0001C25.3337 32.8841 24.9825 33.732 24.3573 34.3571C23.7322 34.9822 22.8844 35.3334 22.0003 35.3334ZM22.0003 11.3334C16.1203 11.3334 11.3337 16.1201 11.3337 22.0001C11.3337 27.8801 16.1203 32.6667 22.0003 32.6667C22.3737 32.6667 22.667 32.3734 22.667 32.0001C22.6628 31.8272 22.5966 31.6615 22.4803 31.5334C21.9337 30.9201 21.6403 30.1334 21.6403 29.3334C21.6403 28.4494 21.9915 27.6015 22.6166 26.9764C23.2418 26.3513 24.0896 26.0001 24.9737 26.0001H27.3337C30.2803 26.0001 32.667 23.6134 32.667 20.6667C32.667 15.5201 27.8803 11.3334 22.0003 11.3334Z" fill="#FCFCFC"/>
<path d="M14.667 23.3333C15.7716 23.3333 16.667 22.4378 16.667 21.3333C16.667 20.2287 15.7716 19.3333 14.667 19.3333C13.5624 19.3333 12.667 20.2287 12.667 21.3333C12.667 22.4378 13.5624 23.3333 14.667 23.3333Z" fill="#FCFCFC"/>
<path d="M18.667 18C19.7716 18 20.667 17.1046 20.667 16C20.667 14.8954 19.7716 14 18.667 14C17.5624 14 16.667 14.8954 16.667 16C16.667 17.1046 17.5624 18 18.667 18Z" fill="#FCFCFC"/>
<path d="M25.333 18C26.4376 18 27.333 17.1046 27.333 16C27.333 14.8954 26.4376 14 25.333 14C24.2284 14 23.333 14.8954 23.333 16C23.333 17.1046 24.2284 18 25.333 18Z" fill="#FCFCFC"/>
<path d="M29.333 23.3333C30.4376 23.3333 31.333 22.4378 31.333 21.3333C31.333 20.2287 30.4376 19.3333 29.333 19.3333C28.2284 19.3333 27.333 20.2287 27.333 21.3333C27.333 22.4378 28.2284 23.3333 29.333 23.3333Z" fill="#FCFCFC"/>
</svg>
