<svg width="44" height="44" viewBox="0 0 44 44" fill="none" xmlns="http://www.w3.org/2000/svg">
<rect width="44" height="44" rx="8" fill="#32403B"/>
<path d="M12.9999 18.2499C12.9998 17.3797 13.216 16.5232 13.629 15.7572C14.0421 14.9913 14.6391 14.3401 15.3662 13.8621C16.0934 13.3842 16.928 13.0944 17.7949 13.019C18.6618 12.9436 19.5339 13.0849 20.3327 13.4301C21.1314 13.7753 21.8319 14.3137 22.371 14.9967C22.9101 15.6798 23.271 16.4862 23.4211 17.3433C23.5713 18.2004 23.5061 19.0815 23.2313 19.9071C22.9565 20.7328 22.4808 21.4772 21.8469 22.0734C23.042 22.6536 24.0796 23.5133 24.8718 24.5797C25.664 25.6461 26.1875 26.8877 26.3979 28.1994C26.421 28.3454 26.4152 28.4945 26.3807 28.6382C26.3463 28.7819 26.2838 28.9174 26.197 29.037C26.1101 29.1566 26.0006 29.2579 25.8746 29.3351C25.7486 29.4123 25.6086 29.464 25.4626 29.4872C25.3167 29.5103 25.1676 29.5045 25.0239 29.47C24.8802 29.4355 24.7447 29.3731 24.6251 29.2862C24.5055 29.1994 24.4042 29.0898 24.327 28.9639C24.2497 28.8379 24.198 28.6979 24.1749 28.5519C23.9499 27.1424 23.2298 25.8592 22.1438 24.9329C21.0579 24.0065 19.6773 23.4976 18.2499 23.4976C16.8225 23.4976 15.4419 24.0065 14.3559 24.9329C13.27 25.8592 12.5499 27.1424 12.3249 28.5519C12.3017 28.6979 12.2499 28.8378 12.1726 28.9638C12.0952 29.0898 11.9938 29.1992 11.8742 29.286C11.7545 29.3728 11.619 29.4352 11.4752 29.4695C11.3315 29.5039 11.1824 29.5097 11.0364 29.4864C10.8904 29.4632 10.7505 29.4114 10.6245 29.3341C10.4986 29.2567 10.3891 29.1554 10.3023 29.0357C10.2155 28.9161 10.1532 28.7805 10.1188 28.6367C10.0844 28.493 10.0787 28.3439 10.1019 28.1979C10.3116 26.8863 10.8348 25.6448 11.6271 24.5788C12.4194 23.5127 13.4575 22.6538 14.6529 22.0749C14.1309 21.5839 13.7149 20.9913 13.4307 20.3334C13.1464 19.6756 12.9998 18.9665 12.9999 18.2499ZM26.4999 15.9999C27.3714 16.0005 28.224 16.2541 28.9542 16.7299C29.6844 17.2057 30.2608 17.8832 30.6134 18.6802C30.966 19.4772 31.0796 20.3594 30.9406 21.2198C30.8015 22.0801 30.4157 22.8816 29.8299 23.5269C30.7434 23.9795 31.5551 24.6135 32.2153 25.3903C32.8756 26.1671 33.3705 27.0704 33.6699 28.0449C33.7294 28.234 33.7377 28.4355 33.6941 28.6289C33.6506 28.8223 33.5566 29.0007 33.4218 29.146C33.287 29.2913 33.1161 29.3984 32.9265 29.4563C32.737 29.5143 32.5354 29.521 32.3424 29.4759C32.1494 29.4313 31.9716 29.3365 31.827 29.2011C31.6824 29.0657 31.5761 28.8946 31.5189 28.7049C31.2497 27.8354 30.7596 27.0506 30.0966 26.427C29.4336 25.8034 28.6202 25.3624 27.7359 25.1469C27.4903 25.0876 27.2717 24.9473 27.1155 24.7487C26.9593 24.5501 26.8746 24.3046 26.8749 24.0519V23.5239C26.8748 23.3145 26.9331 23.1091 27.0433 22.9311C27.1536 22.753 27.3114 22.6092 27.4989 22.5159C27.9536 22.2905 28.3188 21.9181 28.5352 21.4589C28.7515 20.9998 28.8062 20.4811 28.6905 19.9869C28.5748 19.4927 28.2954 19.0522 27.8977 18.7369C27.5 18.4216 27.0074 18.2499 26.4999 18.2499C26.2015 18.2499 25.9154 18.1314 25.7044 17.9204C25.4934 17.7094 25.3749 17.4233 25.3749 17.1249C25.3749 16.8265 25.4934 16.5404 25.7044 16.3294C25.9154 16.1184 26.2015 15.9999 26.4999 15.9999ZM18.2499 15.2499C17.8504 15.2409 17.4531 15.3118 17.0814 15.4584C16.7096 15.605 16.3709 15.8244 16.0851 16.1037C15.7994 16.383 15.5723 16.7166 15.4172 17.0849C15.2621 17.4532 15.1822 17.8488 15.1821 18.2484C15.182 18.648 15.2617 19.0436 15.4166 19.412C15.5715 19.7804 15.7984 20.1141 16.0841 20.3935C16.3697 20.673 16.7083 20.8926 17.08 21.0394C17.4516 21.1862 17.8489 21.2572 18.2484 21.2484C19.0322 21.2311 19.7781 20.9076 20.3265 20.3472C20.8748 19.7867 21.1819 19.0339 21.1821 18.2499C21.1823 17.4659 20.8755 16.7129 20.3275 16.1522C19.7795 15.5915 19.0337 15.2676 18.2499 15.2499Z" fill="#FCFCFC"/>
</svg>
