<svg width="40" height="40" viewBox="0 0 40 40" fill="none" xmlns="http://www.w3.org/2000/svg">
<path d="M6.66667 13.3333C6.19445 13.3333 5.79889 13.1733 5.48001 12.8533C5.16112 12.5333 5.00112 12.1378 5.00001 11.6667C4.99889 11.1956 5.15889 10.8 5.48001 10.48C5.80112 10.16 6.19667 10 6.66667 10H33.3333C33.8056 10 34.2017 10.16 34.5217 10.48C34.8417 10.8 35.0011 11.1956 35 11.6667C34.9989 12.1378 34.8389 12.5339 34.52 12.855C34.2011 13.1761 33.8056 13.3356 33.3333 13.3333H6.66667Z" fill="#2C2C2C"/>
<path d="M5.48001 29.5193C5.79889 29.8393 6.19445 29.9993 6.66667 29.9993H33.3333C33.8056 30.0016 34.2011 29.8421 34.52 29.521C34.8389 29.1999 34.9989 28.8038 35 28.3327C35.0011 27.8616 34.8417 27.466 34.5217 27.146C34.2017 26.826 33.8056 26.666 33.3333 26.666H6.66667C6.19667 26.666 5.80112 26.826 5.48001 27.146C5.15889 27.466 4.99889 27.8616 5.00001 28.3327C5.00112 28.8038 5.16112 29.1993 5.48001 29.5193Z" fill="#2C2C2C"/>
<path d="M5.48001 21.1873C5.79889 21.5073 6.19445 21.6673 6.66667 21.6673H33.3333C33.8056 21.6695 34.2011 21.5101 34.52 21.189C34.8389 20.8679 34.9989 20.4718 35 20.0007C35.0011 19.5295 34.8417 19.134 34.5217 18.814C34.2017 18.494 33.8056 18.334 33.3333 18.334H6.66667C6.19667 18.334 5.80112 18.494 5.48001 18.814C5.15889 19.134 4.99889 19.5295 5.00001 20.0007C5.00112 20.4718 5.16112 20.8673 5.48001 21.1873Z" fill="#2C2C2C"/>
</svg>
