<svg width="518" height="591" viewBox="0 0 518 591" fill="none" xmlns="http://www.w3.org/2000/svg">
<path d="M504 2H14C7.37258 2 2 7.37257 2 14V504.001C2 510.628 7.37258 516.001 14 516.001H504C510.627 516.001 516 510.628 516 504.001V14C516 7.37258 510.627 2 504 2Z" stroke="#2C2C2C" stroke-width="4" stroke-miterlimit="10"/>
<path d="M171.967 307.412C174.188 307.556 184.581 308.273 199.779 309.346C205.544 299.895 212.581 283.025 211.003 258.613C210.716 254.57 219.169 278.103 213.904 310.338C243.269 312.385 283.223 315.155 318.135 317.239C319.432 303.625 321.254 291.073 321.254 291.073C322.003 300.962 323.7 309.927 325.727 317.725C330.5 318.05 335.185 318.274 339.671 318.53C339.615 297.306 344.911 260.572 344.911 260.572C346.902 286.382 354.164 307.256 359.523 319.603C381.701 320.695 396.313 321.007 395.421 319.915C363.622 279.906 389.207 258.868 381.215 224.549C371.62 183.423 336.907 175.369 339.34 144.923C341.256 120.149 346.402 75.2674 315.502 64.2123C315.502 64.2123 291.283 35.1209 250.538 48.6653C200.135 65.3727 216.243 142.79 212.15 158.2C206.33 180.216 195.387 187.565 186.322 212.558C177.082 237.85 187.994 255.418 188.524 272.881C188.992 290.343 166.402 307.107 171.967 307.412Z" fill="#2C2C2C"/>
<path d="M396.67 314.474C392.509 307.4 388.853 299.975 386.894 292.258C384.704 284.578 386.158 276.879 388.055 268.962C389.939 261.083 392.128 253.035 393.258 244.631C394.287 236.259 394.387 227.406 391.979 218.971C389.72 210.524 385.266 202.744 379.626 196.349C374.055 189.855 367.566 184.539 361.315 179.299C355.126 174.002 348.95 168.761 344.433 162.173C339.804 155.679 337.171 147.812 336.553 139.589C335.848 147.787 337.645 156.39 341.888 163.764C346.068 171.188 352.088 177.277 358.059 182.93C364.029 188.619 370.049 194.053 375.015 200.192C379.944 206.325 383.8 213.175 385.69 220.656C387.605 228.111 387.886 235.99 386.956 243.883C386.139 251.8 384.293 259.717 382.845 267.902C382.159 272.001 381.523 276.181 381.466 280.504C381.385 284.834 382.277 289.27 383.694 293.238C386.713 301.186 391.255 308.254 396.67 314.474Z" fill="#2C2C2C"/>
<path d="M221.229 75.8545C216.943 85.0817 215.047 95.2134 213.138 105.152C211.416 115.159 210.187 125.228 209.07 135.26L207.304 150.233C206.705 155.237 205.857 159.922 204.385 164.489C201.502 173.666 195.931 181.533 189.68 189.506C186.641 193.555 183.56 197.779 180.983 202.389C178.4 206.987 176.279 211.891 174.788 216.957C173.44 222.092 172.467 227.139 171.906 232.336C171.319 237.52 171.356 242.854 172.043 248.051C172.71 253.267 173.946 258.22 174.944 263.074C175.961 267.915 176.528 272.857 176.597 277.735C176.897 287.424 171.35 296.826 163.246 302.79C172.149 298.043 178.949 288.566 179.735 277.866C180.116 272.663 179.816 267.491 179.142 262.382C178.494 257.278 177.446 252.375 177.115 247.527C176.341 237.919 178.013 228.012 180.74 218.748C182.256 214.175 184.133 209.757 186.554 205.584C188.944 201.391 191.87 197.467 194.927 193.474C197.934 189.456 201.072 185.326 203.786 180.81C206.493 176.299 208.814 171.439 210.324 166.336C211.809 161.238 212.582 155.923 213.025 150.882C213.543 145.804 213.861 140.75 214.179 135.709C214.853 125.634 215.383 115.577 216.326 105.57C217.162 95.5503 218.366 85.5558 221.229 75.8545Z" fill="#2C2C2C"/>
<path d="M222.153 241.425C159.715 311.673 84.1078 456.538 101.046 484.225C119.918 515.064 210 415.031 206.899 410.502C204.266 406.652 233.551 319.996 254.819 256.629C276.062 193.317 237.594 224.05 222.153 241.425Z" fill="#F2D2DC"/>
<path d="M222.153 241.425C159.715 311.673 84.1078 456.538 101.046 484.225C119.918 515.064 210 415.031 206.899 410.502C204.266 406.652 233.551 319.996 254.819 256.629C276.062 193.317 237.594 224.05 222.153 241.425Z" fill="#2C2C2C" stroke="#F2D2DC" stroke-width="2" stroke-miterlimit="10"/>
<path d="M230.557 329.323C224.468 347.809 218.878 365.146 214.636 379.003C204.984 379.433 176.76 377.873 147.432 349.693C156.247 334.058 165.792 318.355 175.631 303.357C183.005 311.125 200.898 326.266 230.557 329.323Z" fill="#2C2C2C" stroke="#F2D2DC" stroke-width="1.25833" stroke-miterlimit="10"/>
<path d="M252.654 221.777C265.088 212.755 279.854 212.324 293.062 216.185C306.291 220.052 317.799 228.185 323.594 236.035C340.557 259.027 353.223 291.287 364.029 336.759C374.78 381.997 383.672 440.223 393.157 515.256H163.068L178.584 410.148L178.634 409.807L178.462 409.506V409.505C178.461 409.504 178.46 409.502 178.459 409.5C178.456 409.495 178.452 409.487 178.446 409.478C178.435 409.458 178.417 409.427 178.395 409.387C178.349 409.305 178.281 409.183 178.192 409.021C178.015 408.698 177.756 408.217 177.43 407.593C176.777 406.344 175.86 404.521 174.803 402.234C172.688 397.659 170.02 391.234 167.807 383.837C163.365 368.996 160.814 350.449 167.946 335.04V335.038C171.585 327.153 185.997 303.741 202.934 279.791C211.393 267.829 220.465 255.759 229.112 245.453C237.773 235.131 245.961 226.637 252.654 221.777Z" fill="#F2D2DC" stroke="#2C2C2C" stroke-width="2"/>
<path d="M207.654 269.961C202.494 277.042 197.485 284.223 192.562 291.472C193.904 288.652 195.257 285.839 196.58 283.013C196.674 282.807 196.374 282.638 196.274 282.844C194.44 286.388 192.756 289.981 191.115 293.594C184.533 303.339 178.144 313.215 171.981 323.222C169.366 327.47 166.965 331.794 165.199 336.473C163.49 341.002 162.429 345.769 161.867 350.566C161.306 355.376 161.262 360.211 161.637 365.034C162.017 370.006 162.622 374.929 163.733 379.789C164.993 385.272 166.709 390.731 168.93 395.91C170.022 398.449 171.188 400.975 172.442 403.446C173.59 405.698 175.923 410.296 175.892 410.471C175.424 413.016 174.944 414.801 174.62 416.941C174.289 419.118 173.964 421.301 173.634 423.479C172.979 427.84 167.314 470.276 166.678 474.643C165.411 483.309 164.319 491.981 163.24 500.671C162.616 505.656 162.292 510.684 161.593 515.663C161.562 515.863 161.867 515.944 161.905 515.738C162.622 511.402 163.695 507.128 164.482 502.811C165.268 498.488 166.072 494.158 166.883 489.834C168.524 481.1 174.832 434.209 176.198 425.425C176.579 422.998 176.953 420.565 177.333 418.138C177.708 415.724 178.357 412.48 178.263 410.034C178.263 410.034 170.483 394.044 167.457 382.839C166.191 378.135 164.893 373.238 164.363 368.39C163.845 363.618 163.795 358.814 164.188 354.035C164.581 349.256 165.48 344.508 166.946 339.941C168.456 335.225 170.627 330.839 173.054 326.528C178.132 317.501 183.535 308.641 189.006 299.845C195.214 289.875 201.496 279.943 207.916 270.111C208.028 269.942 207.766 269.811 207.654 269.961Z" fill="#2C2C2C"/>
<path d="M101.049 484.226C116.989 504.676 157.591 506.617 259.351 521.109C273.432 523.112 314.321 427.54 299.392 424.626C280.588 420.958 206.827 410.789 201.337 410.72C155.051 410.196 90.2369 470.35 101.049 484.226Z" fill="#2C2C2C"/>
<path d="M279.001 421.076C279.001 421.076 322.011 425.306 343.922 434.521C373.263 446.861 393.508 469.595 401.418 479.64C417.932 500.596 443.368 562.684 426.76 573.128C411.731 582.586 388.935 517.808 388.935 517.808C388.935 517.808 423.073 580.015 402.884 588.076C382.696 596.136 360.511 519.431 360.511 519.431C360.511 519.431 394.156 584.133 372.015 589.149C355.289 592.942 331.282 524.602 331.282 524.602C331.282 524.602 359.812 580.421 342.78 585.056C323.958 590.185 297.842 528.495 297.842 528.495C252.555 533 229.147 516.617 213.887 502.985C210.2 499.685 279.001 421.076 279.001 421.076Z" fill="#F2D2DC" stroke="#2C2C2C" stroke-width="2.5" stroke-miterlimit="10"/>
<path d="M378.518 495.535C382.791 502.697 387.171 509.916 390.79 517.44C394.414 524.957 397.777 532.606 400.684 540.429C407.815 559.614 409.281 572.74 409.1 571.942C404.87 553.001 392.318 525.887 388.693 518.363C385.075 510.864 381.837 503.178 378.225 495.666C378.137 495.473 378.418 495.367 378.518 495.535Z" fill="#2C2C2C"/>
<path d="M351.13 508.126C356.189 517.509 361.561 526.636 366.209 536.244C370.832 545.808 374.388 555.284 378.343 565.135C378.649 565.897 378.137 565.809 377.8 565.061C373.452 555.372 368.685 546.75 364.231 537.111C359.789 527.509 355.684 517.658 350.892 508.225C350.824 508.082 351.055 507.982 351.13 508.126Z" fill="#2C2C2C"/>
<path d="M325.688 514.708C334.161 528.651 340.05 544.136 345.459 559.471C345.727 560.232 345.085 560.051 344.767 559.29C338.472 544.286 333.643 532.469 325.202 515.007C325.071 514.726 325.508 514.408 325.688 514.708Z" fill="#2C2C2C"/>
<path d="M172.44 417.481C184.197 413.232 194.557 410.996 201.111 411.567C214.671 412.749 242.237 415.559 266.423 418.076C278.514 419.334 289.756 420.519 297.977 421.389C302.087 421.824 305.441 422.18 307.768 422.428C308.436 422.499 309.019 422.561 309.512 422.613L227.285 519.37C227.084 519.355 226.824 519.336 226.509 519.312C225.67 519.246 224.437 519.146 222.863 519.008C219.715 518.732 215.201 518.304 209.743 517.696C198.824 516.481 184.135 514.547 169.04 511.674C153.937 508.799 138.468 504.993 125.973 500.041C119.725 497.565 114.252 494.815 109.949 491.774C105.639 488.729 102.568 485.436 101.021 481.897C97.9572 474.885 100.639 466.896 107.303 458.667C113.942 450.469 124.34 442.294 136.058 435.093C147.764 427.899 160.726 421.716 172.44 417.481Z" fill="#2C2C2C" stroke="#F2D2DC" stroke-width="2"/>
<path d="M157.115 423.628C163.691 419.136 182.376 408.462 201.198 410.57C201.41 410.595 201.417 410.895 201.205 410.901C185.77 411.375 164.009 420.066 157.284 423.897C157.103 423.996 156.953 423.741 157.115 423.628Z" fill="#2C2C2C"/>
<path d="M210 503.365C242.928 468.491 272.244 426.84 277.872 419.947C278.14 419.622 277.578 419.229 277.329 419.572C272.163 426.622 233.495 470.587 209.407 502.954C209.127 503.328 209.688 503.702 210 503.365Z" fill="#2C2C2C"/>
<path d="M341.131 257.458C408.422 343.085 433.808 496.908 396.456 508.899C362.33 519.855 221.971 484.73 180.158 470.531C167.881 466.357 205.806 370.879 218.945 375.327C234.823 380.699 321.629 401.268 323.313 401.305C326.919 401.387 307.629 306.682 299.35 263.772C287.821 203.979 315.864 225.297 341.131 257.458Z" fill="#F2D2DC" stroke="#2C2C2C" stroke-width="1.25833" stroke-miterlimit="10"/>
<path d="M106.74 339.448C99.6344 347.508 105.387 357.035 105.387 357.035C105.387 357.035 97.0952 359.25 92.8715 366.331C88.0365 374.441 98.6299 385.577 98.6299 385.577C98.6299 385.577 90.7004 389.558 86.9946 397.481C83.1453 405.71 92.229 418.468 92.229 418.468C92.229 418.468 86.8823 426.229 88.5917 435.382C91.5115 451.028 114.14 459.906 128.47 465.696C142.794 471.485 188.855 474.492 197.577 475.952L235.533 384.323C235.533 384.323 178.68 340.078 160.868 335.667C145.857 331.949 114.713 330.402 106.74 339.448Z" fill="#F2D2DC" stroke="#2C2C2C" stroke-width="2.5" stroke-miterlimit="10"/>
<path d="M106.628 355.825C123.529 355.95 139.475 361.072 155.677 365.277C156.039 365.371 155.883 365.932 155.527 365.838C139.463 361.471 122.73 360.348 106.528 356.624C106.073 356.524 106.173 355.825 106.628 355.825Z" fill="#2C2C2C"/>
<path d="M99.4155 384.498C103.24 384.642 107.002 386.046 110.62 387.181C114.52 388.404 118.388 389.695 122.243 391.043C129.96 393.744 137.615 396.62 145.183 399.721C145.52 399.858 145.389 400.407 145.033 400.283C137.341 397.606 129.605 395.042 121.8 392.69C117.895 391.511 113.983 390.369 110.059 389.252C106.409 388.21 102.479 387.418 99.1222 385.584C98.6356 385.309 98.8415 384.48 99.4155 384.498Z" fill="#2C2C2C"/>
<path d="M92.5623 418.574C95.8876 418.568 99.4437 420.377 102.519 421.525C106.007 422.829 109.507 424.114 113.013 425.381C120.019 427.907 127.032 430.434 134.119 432.718C134.474 432.83 134.325 433.391 133.969 433.279C126.751 430.996 119.508 428.812 112.308 426.46C108.771 425.306 105.246 424.133 101.727 422.941C98.7325 421.931 94.8769 421.001 92.4251 418.917C92.2816 418.805 92.3939 418.574 92.5623 418.574Z" fill="#2C2C2C"/>
<path d="M322.057 397.425C323.143 396.777 302.979 305.372 296.216 257.671C289.453 209.975 310.759 214.554 341.41 255.331C374.244 299.009 432.708 417.246 412.457 504.795C405.9 533.144 202.784 493.428 202.784 493.428L230.154 376.688C230.147 376.694 320.372 398.43 322.057 397.425Z" fill="#2C2C2C" stroke="#F2D2DC" stroke-width="2" stroke-miterlimit="10"/>
<path d="M404.82 388.76C371.692 398.48 335.776 393.545 321.115 390.788C318.994 379.314 313.853 354.453 308.612 327.582C343.418 331.438 367.038 326.472 379.94 322.148C389.367 342.524 398.201 365.258 404.82 388.76Z" fill="#2C2C2C" stroke="#F2D2DC" stroke-width="2" stroke-miterlimit="10"/>
<path d="M229.369 481.425C241.722 440.779 248.534 396.184 250.275 388.498C250.356 388.136 249.763 388.043 249.695 388.417C248.378 396.047 235.065 446.163 228.726 481.337C228.658 481.743 229.25 481.818 229.369 481.425Z" fill="#2C2C2C"/>
<path d="M360.238 410.932C356.32 410.258 252.626 381.055 229.948 377.542C229.592 377.486 229.91 376.295 230.285 376.363C299.959 388.654 357.206 407.283 361.592 409.036C366.801 411.101 367.544 412.186 360.238 410.932Z" fill="#2C2C2C"/>
<path d="M321.056 398.355C321.131 398.156 314.219 363.156 312.996 360.973C311.742 358.708 309.022 353.68 307.911 351.334C305.665 346.605 303.719 341.77 301.654 336.978C301.479 336.585 302.078 336.273 302.253 336.673C304.486 341.308 307.119 345.75 309.77 350.136C311.093 352.288 312.409 354.466 313.732 356.599C313.832 356.743 307.35 322.398 306.445 316.372C306.37 315.929 306.857 315.804 306.994 316.178C308.941 322.249 322.535 391.044 324.394 398.661C324.394 398.667 323.109 398.642 321.056 398.355Z" fill="#2C2C2C"/>
<path d="M244.612 500.683C237.843 498.812 210.704 494.426 204.103 493.477C204.752 491.088 206.68 481.374 206.499 478.635C206.48 478.38 206.094 478.224 205.938 478.454C204.397 480.713 201.751 492.66 200.965 495.48C200.816 496.017 237.524 500.627 244.556 501.001C244.755 501.008 244.811 500.739 244.612 500.683Z" fill="#2C2C2C"/>
<path d="M235.53 229.465C235.53 229.465 238.257 256.323 260.523 260.509C282.789 264.689 324.402 235.442 324.402 235.442C324.402 235.442 307.688 212.951 277.498 212.882C248.457 212.807 235.53 229.465 235.53 229.465Z" fill="#2C2C2C" stroke="#F2D2DC" stroke-width="2" stroke-miterlimit="10"/>
<path d="M299.46 221.959C298.268 225.996 277.231 251.425 258.59 249.479C252.52 248.836 254.553 215.546 254.553 215.546L254.142 213.057L248.408 178.176L290.351 154.525L296.397 151.424C296.397 151.424 297.339 161.069 298.387 173.097C298.437 173.653 298.493 174.214 298.537 174.813C298.612 175.493 298.693 176.129 298.736 176.766C298.917 178.563 299.092 180.39 299.229 182.225C299.342 183.616 299.454 184.97 299.516 186.436C299.616 187.908 299.685 189.331 299.784 190.803C300.458 205.289 299.94 220.238 299.46 221.959Z" fill="#F2D2DC"/>
<path d="M298.389 174.083C286.953 200.935 264.418 210.855 254.149 214.049L248.416 179.168L290.359 155.517L296.405 152.416C296.398 152.41 297.334 162.055 298.389 174.083Z" stroke="#2C2C2C" stroke-width="2.5" stroke-miterlimit="10"/>
<path d="M208.095 113.056C191.775 172.917 225.782 189.45 238.69 192.956C250.413 196.138 290.728 205.484 313.143 147.632C335.566 89.7793 312.894 63.2707 286.473 54.5739C260.058 45.877 224.422 53.1951 208.095 113.056Z" fill="#F2D2DC" stroke="#2C2C2C" stroke-width="2.5" stroke-miterlimit="10"/>
<path d="M229.657 101.345C231.11 101.52 232.483 101.439 233.943 101.464C235.584 101.495 236.894 101.682 238.335 100.753C239.108 100.254 239.377 98.9309 238.965 98.1323C237.998 96.2794 235.995 95.7429 234.018 95.6244C231.871 95.4996 230.187 95.955 228.446 97.209C226.749 98.4318 227.735 101.114 229.657 101.345Z" fill="#2C2C2C"/>
<path d="M272.317 107.323C270.932 106.843 269.734 106.163 268.418 105.545C266.927 104.846 265.673 104.447 264.787 102.975C264.313 102.189 264.656 100.879 265.373 100.348C267.052 99.1068 269.092 99.5061 270.92 100.273C272.904 101.103 274.22 102.251 275.231 104.148C276.204 105.982 274.139 107.953 272.317 107.323Z" fill="#2C2C2C"/>
<path d="M258.634 126.456C258.703 126.307 258.908 126.731 258.859 126.899C257.717 130.967 257.087 135.821 260.462 138.098C260.568 138.166 260.506 138.372 260.368 138.316C256.001 136.563 256.9 130.125 258.634 126.456Z" fill="#2C2C2C"/>
<path d="M263.355 123.081C270.075 124.211 267.317 137.568 261.097 136.52C254.964 135.49 257.722 122.133 263.355 123.081Z" fill="#2C2C2C"/>
<path d="M265.834 124.329C266.845 125.327 267.712 126.893 269.091 127.323C270.688 127.822 272.204 126.674 273.546 125.551C273.683 125.433 273.776 125.576 273.739 125.751C273.246 128.315 271.724 130.742 268.904 130.555C266.327 130.386 264.998 127.747 264.892 125.046C264.867 124.541 265.429 123.923 265.834 124.329Z" fill="#2C2C2C"/>
<path d="M233.991 118.296C233.991 118.134 233.623 118.421 233.592 118.595C232.831 122.751 231.259 127.386 227.229 127.947C227.104 127.966 227.073 128.172 227.216 128.184C231.908 128.528 233.935 122.357 233.991 118.296Z" fill="#2C2C2C"/>
<path d="M231.236 113.187C224.704 111.247 221.304 124.454 227.362 126.251C233.314 128.023 236.714 114.816 231.236 113.187Z" fill="#2C2C2C"/>
<path d="M228.259 113.349C227.037 113.78 225.677 114.784 224.41 114.547C222.938 114.272 222.239 112.569 221.671 110.96C221.615 110.791 221.478 110.879 221.428 111.053C220.711 113.561 220.867 116.406 223.169 117.51C225.265 118.521 227.448 116.774 228.696 114.416C228.921 113.979 228.752 113.174 228.259 113.349Z" fill="#2C2C2C"/>
<path d="M248.06 157.751C246.905 158.568 245.695 159.753 244.16 159.641C242.688 159.529 241.091 158.605 239.843 157.875C239.718 157.8 239.562 157.925 239.631 158.062C240.461 159.834 242.576 161.201 244.566 161.169C246.506 161.138 247.704 159.66 248.434 158.006C248.534 157.775 248.228 157.632 248.06 157.751Z" fill="#2C2C2C"/>
<path d="M234.067 139.058C234.067 139.058 231.871 145.035 231.228 147.943C231.172 148.217 231.846 148.498 232.819 148.772C232.863 148.797 232.888 148.822 232.931 148.803C237.891 150.725 243.45 150.082 247.486 146.576C247.748 146.333 247.443 145.952 247.143 146.077C242.695 148.055 238.303 147.855 233.73 146.932C233.699 146.083 237.841 136.819 237.386 136.688C235.826 136.201 232.457 136.6 230.455 136.738C234.672 124.154 240.88 112.35 244.891 99.7542C245.028 99.305 244.398 99.018 244.174 99.3985C236.799 111.315 231.621 125.689 226.93 138.572C226.331 140.175 232.794 139.302 234.067 139.058Z" fill="#2C2C2C"/>
<path d="M233.974 147.856C233.974 147.856 235.727 152.285 239.121 154.618C240.368 155.486 241.81 156.078 243.475 156.078C246.907 156.091 247.768 153.171 247.855 150.501C247.93 148.305 247.449 146.265 247.449 146.265C247.449 146.265 241.604 149.397 233.974 147.856Z" fill="#2C2C2C"/>
<path d="M242.81 151.584C244.179 150.989 245.788 150.765 247.33 150.935C247.252 152.081 247.013 153.191 246.493 154.033C245.93 154.947 245.018 155.584 243.477 155.578H243.475C242.077 155.578 240.842 155.127 239.739 154.428C240.327 153.14 241.436 152.181 242.81 151.584Z" fill="#F2D2DC" stroke="#2C2C2C"/>
<path d="M309.804 146.627C303.421 144.381 291.636 121.665 300.109 90.1594C300.109 90.1594 294.456 118.976 295.386 123.712C296.322 128.441 288.816 110.947 295.292 85.4429C295.292 85.4429 278.385 91.5382 265.483 91.4571C252.582 91.3822 245.307 89.1737 244.702 88.0632C244.097 86.9527 263.256 86.4598 269.582 82.3422C269.582 82.3422 233.585 88.0008 218.618 84.9188C216.883 84.5632 224.857 49.1519 251.727 40.8605C278.604 32.5692 309.885 58.8158 316.854 70.894C316.854 70.894 327.715 75.754 335.22 96.0238C342.738 116.294 316.679 149.047 309.804 146.627Z" fill="#2C2C2C"/>
<path d="M300.541 147.944C300.541 147.944 317.323 131.311 325.109 137.631C332.889 143.951 317.859 169.755 307.016 171.689C296.18 173.623 294.189 163.628 294.189 163.628L300.541 147.944Z" fill="#F2D2DC" stroke="#2C2C2C" stroke-width="2.5" stroke-miterlimit="10"/>
<path d="M320.618 144.917C320.786 144.93 320.774 145.167 320.624 145.198C312.982 146.789 308.041 152.71 304.173 159.073C306.768 156.827 309.912 155.904 312.982 159.067C313.144 159.235 312.913 159.491 312.72 159.41C309.919 158.256 307.722 158.381 305.327 160.358C303.63 161.756 302.301 163.677 300.953 165.406C300.504 165.979 299.419 165.43 299.793 164.744C299.818 164.694 299.855 164.644 299.88 164.588C301.346 155.48 310.705 144.063 320.618 144.917Z" fill="#2C2C2C"/>
</svg>
