<svg width="515" height="515" viewBox="0 0 515 515" fill="none" xmlns="http://www.w3.org/2000/svg">
<path d="M124.887 363.075C125.866 363.229 131.222 363.487 131.222 362.56C131.222 362.019 130.243 362.045 130.243 362.045C130.372 357.925 135.599 356.895 139.333 359.058C140.362 359.65 141.313 360.368 142.165 361.195C136.887 361.478 129.883 365.083 130.346 370.311C130.612 371.674 131.184 372.959 132.018 374.069C132.852 375.18 133.927 376.087 135.161 376.722C136.705 377.878 138.463 378.714 140.333 379.182C142.203 379.651 144.148 379.743 146.054 379.452C149.448 378.586 152.435 376.565 154.5 373.735C159.167 373.884 163.733 372.359 167.375 369.435C167.528 369.313 167.656 369.161 167.748 368.989C167.841 368.816 167.898 368.626 167.915 368.431C167.915 367.53 167.915 367.581 162.765 361.865C162.62 361.702 162.437 361.577 162.233 361.499C162.028 361.422 161.808 361.395 161.591 361.42C161.374 361.445 161.167 361.522 160.986 361.644C160.805 361.766 160.655 361.93 160.551 362.122C160.462 362.234 160.384 362.355 160.319 362.483C159.91 363.251 159.249 363.854 158.447 364.192C157.645 364.53 156.751 364.581 155.916 364.337C153.341 363.59 150.019 356.766 143.968 352.698C138.689 349.144 131.608 348.088 126.612 352.311C124.462 354.157 122.934 356.621 122.235 359.367C121.957 360.214 122.012 361.134 122.389 361.942C123.066 362.597 123.948 362.998 124.887 363.075ZM134.569 372.628C133.863 372.124 133.373 371.372 133.197 370.523C133.02 369.673 133.17 368.788 133.616 368.045C134.758 366.466 136.345 365.265 138.174 364.594C136.699 367.096 135.49 369.745 134.569 372.499V372.628ZM158.826 368.56C159.444 366.706 158.826 367.349 159.856 366.886C160.636 366.497 161.342 365.974 161.941 365.341L164.285 368.122C162.344 369.352 160.199 370.224 157.95 370.697C158.208 370.027 158.62 368.997 158.826 368.431V368.56ZM149.504 361.993C151.95 365.058 153.985 367.787 157.718 367.478C157.186 368.587 156.755 369.742 156.431 370.929C154.551 371.057 154.294 370.62 153.547 370.929C152.079 371.495 149.659 376.774 143.788 376.748C144.153 375.932 144.388 375.063 144.483 374.173C146.144 373.838 147.699 373.104 149.015 372.036C149.579 371.547 149.945 370.87 150.045 370.13C150.045 369.229 149.736 368.07 147.83 366.551C148.54 365.048 149.101 363.478 149.504 361.865V361.993ZM140.852 371.727C138.586 370.517 142.449 368.379 144.946 368.457C145.52 368.461 146.081 368.628 146.564 368.938C147.047 369.247 147.433 369.688 147.676 370.208C147.332 370.761 146.878 371.239 146.343 371.612C145.808 371.984 145.203 372.243 144.564 372.374C143.925 372.504 143.266 372.502 142.628 372.369C141.99 372.235 141.385 371.973 140.852 371.598V371.727ZM143.891 355.968C145.639 357.454 147.227 359.12 148.629 360.938C147.814 362.424 147.191 364.007 146.775 365.65C145.692 365.339 144.558 365.254 143.442 365.401C142.326 365.547 141.251 365.921 140.286 366.5C135.573 369.075 136.681 374.714 143.221 374.07C142.837 374.811 142.551 375.599 142.371 376.413C139.76 375.893 137.318 374.734 135.264 373.04C137.09 370.204 138.511 367.127 139.487 363.899C140.488 363.439 141.571 363.184 142.672 363.149C143.774 363.113 144.871 363.298 145.899 363.693L146.44 361.659L145.873 361.401C144.663 360.577 144.122 359.933 142.732 358.826C143.248 357.886 143.638 356.882 143.891 355.839V355.968ZM133.9 351.848C137.122 351.907 140.242 352.989 142.809 354.938C142.348 355.987 142.003 357.084 141.779 358.208C140.545 357.239 139.089 356.593 137.542 356.328C135.996 356.063 134.408 356.187 132.921 356.689C133.464 355.127 133.794 353.498 133.9 351.848ZM128.003 353.856C129.43 352.746 131.146 352.067 132.947 351.899C132.148 353.63 131.651 355.485 131.479 357.384C130.712 357.844 130.084 358.504 129.662 359.293C129.24 360.082 129.041 360.971 129.084 361.865C127.28 361.964 125.475 361.692 123.78 361.066C124.163 358.206 125.663 355.614 127.951 353.856H128.003ZM89.5323 349.556C84.8973 347.548 74.5973 353.496 72.7176 356.689C72.4457 357.393 72.4457 358.173 72.7176 358.878C74.3398 365.032 89.4808 386.765 92.2876 390.138C92.7768 390.756 93.4463 389.906 93.0086 389.185C91.6696 386.971 91.8241 391.426 98.6736 369.255C99.3081 369.006 99.8991 368.659 100.425 368.225C100.663 367.96 100.796 367.616 100.796 367.259C100.796 366.903 100.663 366.559 100.425 366.294C100.191 366.005 99.9228 365.745 99.6263 365.521L101.249 359.521L107.686 363.075C106.384 366.329 105.435 369.713 104.854 373.169C102.257 374.105 99.8244 375.443 97.6436 377.134C96.1243 378.808 98.5191 381.898 100.013 383.752C101.506 385.606 102.768 386.868 103.051 387.151C103.334 387.434 104.236 387.151 104.158 386.688C103.995 386.315 103.778 385.968 103.515 385.658C102.119 383.486 100.921 381.194 99.9353 378.808C101.937 377.611 104.05 376.61 106.244 375.821C107.042 375.538 109.514 374.765 110.184 375.177C113.487 376.918 116.933 378.374 120.484 379.529C120.627 379.597 120.792 379.606 120.942 379.553C121.091 379.5 121.214 379.389 121.282 379.246C121.35 379.102 121.359 378.938 121.306 378.788C121.253 378.638 121.142 378.516 120.999 378.448L116.544 375.744C117.492 373.594 118.101 371.309 118.347 368.972L129.342 374.92C130.011 375.306 130.526 374.25 130.037 373.967C129.548 373.684 96.1758 352.466 89.5323 349.556ZM85.6183 352.286C86.5169 352.016 87.475 352.016 88.3736 352.286C88.9658 352.543 90.4078 353.316 92.3648 354.397C91.7047 356.22 91.2554 358.112 91.0258 360.036C89.3006 359.058 88.2706 358.311 86.9058 358.543C86.162 358.71 85.4661 359.044 84.8716 359.521C85.1291 357.513 85.3608 355.968 85.6183 352.286ZM75.3183 357.951C77.9889 355.405 81.2289 353.533 84.7686 352.492C83.3943 358.566 82.4308 364.725 81.8846 370.929C79.288 366.816 77.0975 362.461 75.3441 357.925L75.3183 357.951ZM87.0088 379.606C85.5926 377.263 84.0476 374.662 82.5798 372.113C83.4553 368.431 83.7386 366.731 84.2793 363.255C85.6882 365.699 87.3172 368.009 89.1461 370.156C88.1079 373.222 87.4001 376.39 87.0346 379.606H87.0088ZM91.5151 387.022C90.5881 385.555 89.4036 383.572 87.8586 381.023C88.8361 377.792 89.4832 374.47 89.7898 371.109C90.3563 372.474 95.4034 370.517 96.7681 370.002C95.7638 373.169 92.2618 384.19 91.5408 387.022H91.5151ZM90.7426 370.311C89.1468 367.549 87.736 364.684 86.5196 361.736L87.3178 361.298C87.6783 361.504 96.4848 366.706 97.1286 367.118C95.1217 368.394 92.9908 369.464 90.7683 370.311H90.7426ZM98.4676 364.646C96.5364 363.358 93.9098 361.787 91.9013 360.629C92.5886 358.805 93.0386 356.902 93.2403 354.964L100.553 359.084C100.425 360.062 99.5491 362.071 98.6221 364.646H98.4676ZM115.514 374.946L111.549 372.551C109.787 371.855 107.826 371.855 106.064 372.551C107.062 369.541 107.786 366.447 108.227 363.307L117.548 368.457C116.596 370.557 115.962 372.787 115.669 375.074L115.514 374.946Z" fill="#40514B"/>
<path d="M500.451 384.113C496.28 345.282 460.333 285.567 438.857 252.942C450.848 253.901 462.883 254.202 474.907 253.843C478.332 253.843 487.293 253.225 489.018 252.891C490.022 252.685 490.177 251.732 488.658 251.68C487.138 251.629 476.323 251.114 474.856 251.088H448.668C444.651 251.243 438.368 251.603 438.007 251.603C430.282 239.835 424.901 232.471 424.849 232.445C424.79 232.385 424.719 232.339 424.64 232.308C424.561 232.278 424.477 232.265 424.393 232.27C424.309 232.275 424.226 232.298 424.152 232.337C424.077 232.376 424.012 232.431 423.96 232.498C423.908 232.564 423.871 232.641 423.852 232.723C423.832 232.805 423.83 232.89 423.846 232.973C423.862 233.056 423.895 233.134 423.944 233.203C423.993 233.272 424.055 233.33 424.128 233.372C425.313 234.325 477.353 310.365 493.267 362.74C499.576 383.52 503.309 409.605 482.967 416.815C434.66 434.068 56.3151 439.681 20.5483 419.39C15.5786 416.583 14.4198 410.738 15.3983 402.859C16.9176 391.915 22.8143 377.109 29.9213 360.526C37.9296 368.251 104.365 429.252 115.128 426.961C125.892 424.669 186.43 396.55 188.928 391.168C190.379 387.43 191.146 383.462 191.194 379.452C191.498 379.032 191.64 378.516 191.593 378C191.546 377.484 191.312 377.002 190.936 376.645C186.945 372.68 107.764 309.901 102.665 310.081C99.1116 310.236 92.6741 313.892 89.6098 315.695C88.6163 314.069 87.1372 312.797 85.3814 312.058C83.6256 311.319 81.6819 311.15 79.8248 311.575C78.0739 312.282 76.5061 313.377 75.2395 314.778C73.9728 316.178 73.0402 317.848 72.5118 319.66C72.5407 319.8 72.6166 319.925 72.7268 320.014C72.8371 320.104 72.9748 320.153 73.117 320.153C73.2591 320.153 73.3968 320.104 73.5071 320.014C73.6173 319.925 73.6932 319.8 73.7221 319.66C75.2709 317.041 77.7261 315.081 80.6231 314.15C81.8276 313.965 83.0599 314.126 84.1767 314.613C85.2935 315.101 86.2489 315.896 86.9318 316.905L58.2978 329.136C56.7775 327.573 54.8794 326.429 52.7873 325.815C47.8948 324.527 44.5988 327.746 42.6418 332.458C42.5987 332.594 42.6037 332.74 42.6559 332.872C42.7081 333.005 42.8044 333.115 42.9284 333.184C43.0525 333.254 43.1967 333.279 43.3368 333.254C43.477 333.23 43.6044 333.158 43.6976 333.05C46.9936 328.287 50.8046 326.664 55.3623 330.475C49.8518 332.922 42.1526 336.398 36.7451 339.076C37.1313 338.458 92.6998 237.827 92.6998 237.569C95.1461 233.037 100.064 224.926 105.137 223.87C107.43 223.371 109.769 223.112 112.115 223.098C108.536 229.02 79.4901 277.173 79.4386 283.971C79.4386 291.696 80.7776 290.486 84.8976 291.696C89.0176 292.906 319.557 291.49 319.969 291.49C323.961 291.49 339.565 290.975 341.007 289.919C345.488 286.623 344.483 281.705 342.526 276.529C342.063 275.293 339.72 270.169 336.578 263.319C350.097 259.251 360.268 264.427 361.195 286.494C362.122 305.575 354.603 311.395 340.209 310.571C328.647 309.901 320.665 306.502 318.141 311.008C315.309 316.03 323.137 327.308 326.536 331.995C326.046 331.995 304.494 331.557 299.06 331.325C291.404 331.029 283.738 331.123 276.091 331.608C270.825 331.724 265.59 332.441 260.487 333.746C258.556 334.698 256.058 339.668 255.002 341.754C252.916 345.848 243.415 371.547 240.788 378.963C239.243 383.237 234.016 397.4 237.518 399.897C237.389 402.653 237.827 406.335 240.247 407.622C242.668 408.91 275.937 409.837 278.486 409.888C282.992 410.017 328.544 410.609 357.616 409.322C386.688 408.034 399.382 405.253 398.636 405.331C399.374 405.113 400.037 404.695 400.551 404.122C401.065 403.549 401.409 402.844 401.545 402.086C401.942 400.183 401.818 398.208 401.185 396.37C404.429 390.061 379.89 337.685 373.092 334.003C372.69 333.777 372.239 333.653 371.778 333.643C370.414 333.643 339.874 332.355 328.003 331.969C325.428 328.338 317.06 314.665 320.278 311.755C325.171 307.481 366.036 328.905 363.847 286.263C362.714 266.976 353.831 255.672 335.806 262.212C334.235 258.813 321.051 230.643 317.523 223.149C331.189 223.967 344.9 223.666 358.517 222.248C358.713 224.651 359.404 226.988 360.547 229.111C361.691 231.234 363.262 233.097 365.161 234.582C375.461 242.307 416.455 241.149 423.896 231.698C425.982 228.847 427.423 225.576 428.121 222.113C428.819 218.65 428.757 215.076 427.939 211.639C428.624 211.203 429.155 210.564 429.458 209.811C429.87 209.013 429.458 208.008 427.682 207.648C425.39 207.305 423.071 207.167 420.755 207.236C420.755 205.124 420.884 201.185 420.755 196.704C420.987 196.55 422.66 194.541 422.841 194.309C424.893 191.911 426.513 189.176 427.63 186.224C428.48 183.829 428.815 181.074 426.574 179.735C423.124 177.855 420.703 181.306 419.545 185.168C418.463 179.22 415.965 170.491 409.991 171.366C399.846 172.911 406.85 197.502 410.146 207.236C407.25 206.828 404.312 206.828 401.417 207.236C404.635 199.15 406.283 188.696 398.018 187.125C396.764 186.848 395.458 186.944 394.259 187.402C393.06 187.86 392.021 188.659 391.271 189.7C391.106 189.117 390.795 188.586 390.368 188.156C389.942 187.726 389.413 187.411 388.831 187.242C388.25 187.072 387.635 187.052 387.043 187.185C386.452 187.318 385.905 187.598 385.452 188.001C381.666 190.73 383.829 196.987 388.233 199.047C388.001 201.695 388.001 204.357 388.233 207.004C385.491 206.673 382.717 206.734 379.993 207.184C379.84 200.897 379.151 194.634 377.933 188.464C379.497 187.351 380.813 185.924 381.798 184.275C382.782 182.626 383.412 180.791 383.649 178.885C384.01 175.46 382.799 172.602 379.941 171.855C376.362 170.928 374.25 173.426 373.632 177.005C370.465 172.628 364.259 171.057 361.247 176.078C351.59 166.036 346.93 171.649 349.376 176.078C351.204 179.477 355.968 181.383 359.676 182.439C359.676 188.207 362.251 193.073 365.444 198.043C367.581 201.391 369.976 204.609 371.83 206.978C367.823 206.85 363.813 207.108 359.856 207.751C357.436 208.395 357.049 210.146 359.29 211.407C358.581 214.426 358.321 217.532 358.517 220.626C344.685 219.89 330.816 220.217 317.034 221.604C316.158 219.725 313.558 214.24 313.249 213.596C312.94 212.952 315.412 205.485 318.888 136.063C334.853 134.724 406.644 136.32 413.236 133.771C413.614 133.635 413.949 133.402 414.207 133.094C414.464 132.787 414.636 132.416 414.704 132.02C416.892 124.836 418.386 63.0874 414.704 57.3452C413.802 55.9289 410.584 55.4912 408.807 55.2337C385.864 51.8862 290.125 53.3282 285.207 55.9289C280.289 58.5297 282.374 83.9191 283.301 88.9661C233.578 87.3697 118.759 90.4854 107.944 94.5281C105.369 95.4552 104.416 98.9829 103.901 101.635C99.6266 123.703 111.626 194.721 115.643 216.66C115.386 216.66 115.643 216.66 112.502 221.553C109.843 221.356 107.169 221.494 104.545 221.965C98.6738 222.866 93.2663 230.977 90.2793 236.024C90.1506 236.282 82.5543 248.899 81.4213 250.959C74.9581 249.955 44.9078 250.341 41.0968 250.547C37.2858 250.753 33.3718 251.037 29.9213 251.294C29.3033 251.294 29.2518 252.479 29.9213 252.504C37.1313 252.942 39.7836 253.097 45.3713 253.174C59.0446 253.38 79.2068 253.946 79.8506 253.869C78.5116 256.212 58.6841 291.49 56.0318 296.485C44.4958 318.115 35.4318 337.917 34.8911 339.591C31.8978 340.952 29.0864 342.682 26.5223 344.741C25.6953 347.01 25.2009 349.386 25.0546 351.796C24.9258 355.942 26.4193 356.946 28.7111 359.264C22.5617 372.44 17.5063 386.099 13.5958 400.103C12.3192 405.769 12.2665 411.642 13.4413 417.33C14.4927 423.016 16.458 428.495 19.2608 433.553C20.5199 434.831 22.1514 435.679 23.9216 435.973C30.6938 437.879 51.6801 440.325 58.7098 441.123C58.1799 444.27 58.0329 447.469 58.2721 450.651C58.279 453.929 58.756 457.19 59.6883 460.333C59.6968 460.41 59.7205 460.486 59.758 460.554C59.7956 460.623 59.8463 460.684 59.9073 460.733C59.9683 460.782 60.0383 460.818 60.1134 460.84C60.1885 460.862 60.2672 460.869 60.345 460.861C60.4227 460.852 60.4981 460.828 60.5667 460.791C60.6353 460.753 60.6959 460.702 60.7449 460.642C60.7939 460.581 60.8304 460.511 60.8524 460.435C60.8743 460.36 60.8813 460.282 60.8728 460.204C61.2848 456.994 61.3968 453.753 61.2076 450.522C61.1906 447.411 60.8367 444.312 60.1518 441.278C63.7053 441.587 67.1301 441.844 70.1171 441.947C69.6421 444.952 69.5125 448.002 69.7308 451.037C69.7395 454.315 70.2164 457.575 71.1471 460.719C71.1471 460.876 71.2095 461.027 71.3205 461.138C71.4316 461.249 71.5823 461.311 71.7393 461.311C71.8964 461.311 72.047 461.249 72.1581 461.138C72.2692 461.027 72.3316 460.876 72.3316 460.719C72.7574 457.51 72.8781 454.268 72.6921 451.037C72.6744 448.03 72.3291 445.034 71.6621 442.102C77.4043 442.23 161.916 449.827 307.867 446.943C346.981 446.17 394.001 444.368 432.729 440.119C432.217 443.224 432.07 446.378 432.291 449.518C432.303 452.789 432.789 456.042 433.733 459.174C433.715 459.26 433.716 459.349 433.736 459.435C433.757 459.521 433.797 459.601 433.852 459.67C433.908 459.738 433.978 459.793 434.057 459.831C434.137 459.869 434.224 459.889 434.312 459.889C434.4 459.889 434.488 459.869 434.567 459.831C434.647 459.793 434.717 459.738 434.772 459.67C434.828 459.601 434.867 459.521 434.888 459.435C434.909 459.349 434.91 459.26 434.892 459.174C435.341 455.967 435.462 452.723 435.252 449.492C435.224 446.311 434.853 443.143 434.145 440.042C437.003 439.733 443.621 438.909 444.187 438.831C443.68 441.92 443.542 445.058 443.775 448.179C443.777 451.457 444.254 454.719 445.192 457.861C445.209 458.018 445.287 458.162 445.411 458.261C445.534 458.36 445.691 458.406 445.848 458.389C446.005 458.371 446.149 458.293 446.248 458.17C446.347 458.046 446.393 457.889 446.376 457.732C446.8 454.532 446.912 451.298 446.711 448.076C446.694 444.903 446.323 441.742 445.604 438.651C457.217 437.08 492.726 432.291 497.567 422.377C503.284 411.073 502.82 396.37 500.451 384.113ZM266.126 342.655C266.409 341.96 275.036 340.08 284.46 342.655C284.546 342.637 284.636 342.638 284.721 342.659C284.807 342.679 284.887 342.719 284.956 342.774C285.024 342.83 285.08 342.9 285.117 342.98C285.155 343.059 285.175 343.146 285.175 343.235C285.175 343.323 285.155 343.41 285.117 343.489C285.08 343.569 285.024 343.639 284.956 343.695C284.887 343.75 284.807 343.79 284.721 343.81C284.636 343.831 284.546 343.832 284.46 343.814C279.767 344.648 274.975 344.769 270.246 344.174C268.032 343.814 265.225 343.788 266.049 342.655H266.126ZM398.507 403.889C374.688 408.421 243.106 407.391 241.123 406.464C239.14 405.537 238.96 402.55 238.908 400.593C253.174 405.228 392.559 401.648 400.309 397.554C400.721 399.82 400.824 403.451 398.43 403.889H398.507ZM348.526 342.938C348.526 342.063 354.191 341.574 354.449 341.548C357.817 341.289 361.2 341.289 364.568 341.548C366.448 341.754 369.049 342.011 368.843 342.81C368.637 343.608 364.749 343.943 364.079 344.046C361.562 344.278 359.036 344.381 356.509 344.355C354.809 344.303 348.346 343.994 348.449 342.938H348.526ZM381.615 351.513C388.057 363.789 393.466 376.579 397.786 389.752C398.335 391.416 398.639 393.151 398.687 394.902C387.074 398.507 253.225 402.215 239.681 398.327C239.037 398.146 238.857 398.327 238.702 397.245C237.724 390.241 249.183 362.405 251.835 355.916C300.554 354.294 381.1 351.796 381.538 351.513H381.615ZM359.933 181.28C357.117 179.733 354.562 177.752 352.363 175.409C351.359 173.89 351.59 172.834 354.552 174.276C356.406 175.126 359.006 176.645 360.757 177.701C360.307 178.847 360.03 180.053 359.933 181.28ZM421.733 185.889C423.793 182.181 425.828 181.125 425.622 183.314C424.515 187.231 422.942 191 420.935 194.541C420.781 191.966 420.6 190.241 420.394 188.541C420.497 188.181 421.012 187.099 421.656 185.889H421.733ZM410.79 208.292C411.305 209.759 411.639 210.635 411.665 210.686C411.694 210.759 411.736 210.826 411.79 210.882C411.845 210.939 411.91 210.984 411.982 211.015C412.053 211.046 412.131 211.063 412.209 211.064C412.287 211.065 412.365 211.05 412.438 211.021C413.571 210.583 411.897 209.528 409.219 194C408.421 189.365 406.052 175.074 410.738 174.405C414.549 173.838 416.609 183.288 417.33 187.022C418.666 194.219 419.526 201.496 419.905 208.807C419.903 208.949 419.953 209.088 420.045 209.197C420.137 209.306 420.265 209.378 420.406 209.4C420.547 209.421 420.691 209.392 420.812 209.316C420.933 209.24 421.022 209.123 421.064 208.987C421.072 208.841 421.072 208.695 421.064 208.549C423.392 208.618 425.705 208.937 427.965 209.502C427.677 209.838 427.316 210.102 426.909 210.274C421.502 213.055 405.15 212.515 399.511 212.412C400.284 210.867 400.824 209.682 401.417 208.266C404.494 208.772 407.632 208.78 410.712 208.292H410.79ZM390.705 202.652C391.297 197.502 392.61 189.288 397.812 190.267C403.013 191.245 401.7 198.79 400.567 203.837C399.868 206.732 399.009 209.586 397.992 212.386H390.267C390.205 209.137 390.325 205.888 390.627 202.652H390.705ZM387.434 190.55C387.554 190.436 387.696 190.348 387.852 190.292C388.008 190.236 388.173 190.214 388.338 190.226C388.503 190.238 388.664 190.285 388.81 190.363C388.956 190.441 389.084 190.548 389.185 190.679C389.596 191.089 389.966 191.538 390.293 192.018C389.561 193.66 389.05 195.391 388.773 197.168C387.434 195.314 385.709 191.94 387.434 190.55ZM379.323 174.894C382.671 175.95 380.044 184.756 377.804 187.434C377.185 184.663 376.261 181.968 375.049 179.4C375.795 177.134 377.057 174.173 379.323 174.868V174.894ZM372.989 208.575C374.25 210.171 375.074 211.15 375.074 211.15C375.177 211.251 375.312 211.311 375.456 211.32C375.599 211.328 375.741 211.284 375.854 211.196C375.967 211.108 376.045 210.981 376.072 210.84C376.099 210.699 376.074 210.553 376.001 210.429C376.001 210.429 371.444 203.94 367.684 197.219C364.852 192.069 362.148 186.919 362.895 181.228C363.487 176.748 365.856 174.842 369.847 177.443C375.615 181.151 378.242 204.017 379.066 210.918C379.074 211.099 379.137 211.272 379.248 211.415C379.359 211.558 379.511 211.663 379.684 211.716C380.379 211.716 380.276 210.97 380.25 210.609C380.224 210.249 380.25 208.446 380.25 208.266C382.986 208.612 385.754 208.612 388.49 208.266C388.645 210.146 388.825 211.613 388.954 212.386C379.812 212.386 368.766 213.004 361.195 210.043C365.086 209.273 369.027 208.782 372.989 208.575ZM360.654 212.36C364.421 213.82 368.39 214.688 372.422 214.935C376.98 215.347 408.009 215.399 411.536 215.218C416.856 215.131 422.123 214.147 427.115 212.309C427.594 215.471 427.414 218.697 426.585 221.786C425.756 224.875 424.297 227.759 422.3 230.256C416.043 237.595 376.465 239.269 366.963 232.574C360.706 228.274 359.573 219.673 360.654 212.334V212.36ZM339.9 287.962C340.441 289.687 94.9143 289.765 94.6568 289.739C84.3568 289.739 86.9318 289.739 83.4813 288.889C82.5543 288.683 82.3741 288.683 82.1938 287.782C81.9754 286.368 81.915 284.935 82.0136 283.507C82.0676 283.613 82.1548 283.698 82.2618 283.749C82.3688 283.8 82.4897 283.815 82.6058 283.791C82.6058 283.791 339.823 280.289 341.496 280.237C342.192 283.25 342.295 286.057 339.9 287.962ZM412.335 131.685C412.335 131.685 412.489 131.428 412.541 131.505C412.592 131.582 412.335 131.66 412.206 131.685H412.335ZM284.28 66.7439C284.28 65.0702 284.949 58.7357 286.443 57.9632C289.842 56.2637 397.863 54.8217 412.618 59.4309C415.193 64.8384 414.369 125.583 412.206 131.685C399.537 133.668 335.78 133.514 319.197 135.213C320.201 114.948 320.639 97.8757 319.815 94.5539C319.656 94.1207 319.399 93.7302 319.064 93.413C318.729 93.0958 318.325 92.8605 317.884 92.7256C312.244 90.2794 291.026 89.5841 284.846 89.3782C284.044 81.8612 283.855 74.2915 284.28 66.7439ZM106.219 131.582C105.832 126.175 103.927 98.8799 109.077 96.9744C111.652 96.0732 120.716 95.1719 133.874 94.3994C159.083 92.8287 198.816 91.5669 234.969 91.3094C243.003 91.3094 310.88 90.7172 317.523 95.2749C319.48 104.184 313.223 203.167 311.832 212.721C250.985 214.703 178.885 217.69 117.523 216.197C116.493 210.3 108.613 164.8 106.219 131.582ZM116.725 217.922C116.729 217.862 116.729 217.802 116.725 217.742C160.113 219.081 295.893 214.626 312.425 214.523C314.253 218.772 339.926 275.731 341.007 278.898C340.724 278.898 82.3998 282.4 82.0651 282.658C85.3096 271.791 112.141 225.853 116.725 217.922ZM187.511 390.447C185.606 394.155 127.874 419.957 116.004 423.536C116.234 422.349 116.32 421.139 116.261 419.931C133.797 413.854 171.855 397.812 188.928 386.456C188.602 387.842 188.127 389.189 187.511 390.473V390.447ZM189.288 384.756C184.138 387.795 179.22 389.906 116.235 418.54C116.238 417.375 116.082 416.214 115.772 415.09C124.012 411.227 179.889 389.572 189.855 380.945C189.726 382.053 189.546 383.392 189.288 384.782V384.756ZM56.6498 331.917C57.8881 333.376 58.6544 335.176 58.8475 337.08C59.0406 338.983 58.6514 340.9 57.7313 342.578C57.3193 343.222 58.2978 343.891 58.7098 343.222C60.2644 341.527 61.1833 339.346 61.3101 337.05C61.4369 334.754 60.7636 332.485 59.4051 330.63C71.9196 324.888 84.2281 319.48 87.6013 318.012C88.4453 319.727 88.897 321.608 88.9237 323.518C88.9504 325.429 88.5515 327.322 87.7558 329.059C87.4468 329.883 88.3738 330.192 88.8116 329.651C90.2278 327.852 91.1092 325.69 91.3551 323.414C91.601 321.137 91.2014 318.837 90.2021 316.776C92.9831 315.206 99.4721 311.626 102.639 311.626C106.605 311.626 187.074 377.083 188.567 378.576C181.846 385.503 119.454 410.197 114.201 412.721C103.129 410.146 35.5606 352.028 29.2261 346.054C33.1658 342.784 52.2208 333.977 56.6498 331.917ZM27.2691 347.239C35.3031 355.092 102.33 413.596 113.557 415.45C113.332 416.421 113.228 417.416 113.248 418.412C95.2233 409.605 43.7233 365.006 26.6768 350.663C26.7541 350.663 27.1403 348.14 27.3463 347.239H27.2691ZM27.6553 356.071C26.929 354.965 26.5687 353.659 26.6253 352.337C43.4658 369.332 91.0003 411.124 113.223 419.828C113.177 421.205 113.315 422.582 113.635 423.922C100.425 420.961 29.4063 358.182 27.7326 356.071H27.6553ZM496.305 421.527C479.671 454.539 28.2733 445.913 20.9603 433.038C17.8605 427.649 15.7664 421.742 14.7803 415.605C15.7737 417.78 17.4329 419.584 19.5183 420.755C57.4223 442.823 434.531 437.055 483.765 419.364C494.194 415.605 499.447 407.494 500.631 396.189C501.33 404.869 499.824 413.585 496.254 421.527H496.305Z" fill="#40514B"/>
<path d="M496.305 421.527C479.671 454.539 28.2733 445.913 20.9603 433.038C17.8605 427.649 15.7664 421.742 14.7803 415.605C15.7737 417.78 17.4329 419.584 19.5183 420.755C57.4223 442.823 434.531 437.055 483.765 419.364C494.194 415.605 499.447 407.494 500.631 396.189C501.33 404.869 499.824 413.585 496.254 421.527H496.305Z" fill="#40514B"/>
<path d="M110.725 246.402C292.804 248.977 310.185 247.406 315.283 246.608C316.494 246.427 317.266 246.015 317.215 244.599C317.215 240.865 308.46 223.742 306.142 222.557C305.112 222.016 120.742 224.617 120.098 224.823C119.978 224.852 119.866 224.906 119.768 224.981C119.671 225.057 119.59 225.152 119.532 225.261C117.781 228.119 109.232 242.23 109.618 245.423C109.66 245.69 109.793 245.933 109.996 246.112C110.198 246.29 110.456 246.393 110.725 246.402ZM120.845 226.6C122.699 226.368 304.082 224.566 305.189 224.669C307.112 227.434 308.833 230.334 310.339 233.346C306.116 233.346 117.369 234.351 116.39 234.376C117.523 232.11 119.017 229.535 120.845 226.6ZM115.695 235.612C116.699 235.612 307.687 234.634 310.957 234.557C312.652 237.712 313.991 241.045 314.949 244.496C305.782 245.964 222.249 245.243 111.652 244.496C112.686 241.377 114.023 238.367 115.644 235.509L115.695 235.612ZM252.84 255.157C252.326 254.02 251.487 253.06 250.428 252.4C249.369 251.74 248.138 251.409 246.891 251.449C240.351 251.449 185.426 249.929 180.482 251.938C177.326 255.762 174.884 260.123 173.272 264.813C173.118 265.946 173.684 266.461 174.379 266.538C189.829 268.212 241.046 269.808 254.333 267.362C255.981 267.053 256.187 265.302 255.852 263.628C255.055 260.735 254.048 257.904 252.84 255.157ZM175.1 264.813C176.58 260.634 178.587 256.662 181.074 252.994C184.988 251.706 235.896 254.384 246.969 254.358C247.628 254.335 248.28 254.502 248.846 254.84C249.413 255.178 249.869 255.672 250.162 256.264C251.413 258.938 252.388 261.734 253.071 264.607C240.016 266.641 184.576 265.482 175.1 264.813ZM431.673 258.453C428.043 253.457 409.837 253.689 403.735 253.869C398.585 253.869 379.864 254.719 379.864 259.766C379.886 260.175 380.005 260.572 380.211 260.926C380.417 261.28 380.704 261.58 381.049 261.8C381.538 262.186 378.165 296.125 382.8 314.33C384.319 320.356 386.276 323.343 392.018 325.84C403.039 330.63 421.322 329.574 428.661 319.351C430.128 316.364 429.819 307.661 429.948 305.009C441.355 307.275 450.703 302.64 453.123 290.357C454.642 282.452 452.685 277.276 449.312 274.134C447.058 272.3 444.394 271.037 441.547 270.454C438.7 269.871 435.754 269.985 432.961 270.787C432.863 270.82 432.759 270.829 432.658 270.813C432.556 270.798 432.459 270.758 432.376 270.698C432.293 270.637 432.226 270.557 432.179 270.465C432.133 270.373 432.11 270.272 432.111 270.169C432.111 268.804 432.6 259.56 431.673 258.453ZM382.748 258.993C389.701 254.925 418.026 254.616 427.167 258.762C427.476 258.916 428.635 259.508 428.635 259.766C428.635 260.023 427.45 260.641 427.167 260.77C420.266 263.886 395.623 265.302 382.671 260.564C381.77 260.075 382.671 259.096 382.671 258.993H382.748ZM433.682 273.413C436.022 272.739 438.491 272.642 440.877 273.131C443.263 273.62 445.495 274.68 447.381 276.22C450.162 278.795 451.552 283.224 450.265 289.79C450.009 292.073 449.218 294.263 447.956 296.183C446.694 298.102 444.997 299.697 443.003 300.837C438.78 302.738 434.025 303.102 429.562 301.867C429.343 301.787 429.109 301.754 428.876 301.768C428.643 301.783 428.416 301.845 428.208 301.952C428 302.058 427.817 302.206 427.669 302.386C427.521 302.567 427.411 302.776 427.347 303C426.652 304.957 427.631 312.862 426.214 317.858C419.7 326.69 403.039 327.488 393.177 323.343C388.182 321.205 386.791 318.991 385.452 313.661C382.002 301.017 381.796 275.267 382.568 262.598C390.679 266.435 418.773 267.542 429.819 261.877C429.819 269.86 428.841 271.199 430.849 272.821C431.238 273.114 431.686 273.319 432.162 273.421C432.638 273.524 433.13 273.521 433.605 273.413H433.682ZM183.546 327.978C176.784 322.242 169.509 317.139 161.813 312.734C158.849 310.984 155.696 309.576 152.415 308.536C149.659 307.815 148.501 309.232 149.067 311.111C150.228 313.81 151.762 316.333 153.625 318.605C159.55 326.105 166.363 332.858 173.916 338.715C185.4 348.32 200.284 359.959 211.15 368.225C211.704 368.629 212.333 368.919 213 369.078C213.667 369.236 214.359 369.259 215.036 369.147C215.712 369.034 216.359 368.787 216.939 368.421C217.519 368.055 218.019 367.577 218.412 367.015C220.317 364.929 221.502 361.272 219.365 359.29C216.893 357.075 201.777 342.835 183.546 327.978ZM158.878 322.261L155.35 316.57C156.606 316.049 157.668 315.149 158.389 313.995L163.976 316.261C162.574 316.539 161.307 317.284 160.382 318.373C159.456 319.462 158.926 320.832 158.878 322.261ZM166.783 328.827C164.922 327.261 163.199 325.538 161.633 323.677C161.813 320.562 162.792 319.171 165.908 319.068C167.984 320.06 169.944 321.278 171.753 322.699C170.368 323.036 169.132 323.818 168.235 324.925C167.337 326.032 166.827 327.403 166.783 328.827ZM210.816 366.294C207.957 363.899 169.95 331.66 167.607 329.6C167.804 328.158 168.433 326.81 169.413 325.734C170.392 324.658 171.675 323.905 173.092 323.574C181.976 330.166 194.748 341.084 217.021 359.624C216.154 359.58 215.288 359.726 214.484 360.053C213.679 360.379 212.956 360.877 212.364 361.513C211.773 362.148 211.328 362.906 211.06 363.732C210.793 364.558 210.709 365.432 210.816 366.294ZM414.859 394.825C418.077 397.013 420.318 396.009 422.403 392.971C427.553 385.658 445.578 353.29 445.578 353.032C445.578 352.775 445.784 353.264 444.935 342.861C444.898 342.47 444.757 342.096 444.526 341.778C444.294 341.461 443.982 341.211 443.621 341.056C443.26 340.9 442.864 340.845 442.475 340.895C442.085 340.945 441.716 341.1 441.407 341.342L432.6 347.754C432.6 347.754 413.056 388.155 412.85 388.516C412.497 389.646 412.5 390.858 412.859 391.987C413.219 393.116 413.917 394.107 414.859 394.825ZM442.128 344.483C442.282 346.363 442.488 348.861 442.643 350.586C440.73 349.671 438.728 348.954 436.669 348.449L442.128 344.483ZM434.763 350.2C436.995 351.782 439.573 352.806 442.282 353.187C441.896 353.856 422.223 389.752 422.017 390.112C421.419 388.896 420.436 387.911 419.221 387.31C418.006 386.709 416.626 386.527 415.296 386.791C417.305 383.057 434.042 351.487 434.763 350.2Z" fill="#40514B"/>
<path d="M422.917 299.138C422.639 298.748 422.287 298.417 421.88 298.165C421.473 297.913 421.021 297.745 420.548 297.67C419.024 297.263 417.476 296.953 415.913 296.743C416.789 302.871 417.304 309.618 417.278 310.21C417.239 310.602 417.046 310.963 416.742 311.214C416.439 311.464 416.048 311.585 415.656 311.549C415.261 311.504 414.901 311.306 414.65 310.998C414.4 310.69 414.28 310.296 414.317 309.901C414.317 309.463 414.162 307.687 414.033 296.485C408.883 295.842 384.086 293.91 385.065 298.854C385.065 299.112 383.03 311.729 390.91 317.781C398.789 323.832 414.548 322.647 420.059 316.493C421.622 314.62 422.654 312.361 423.046 309.953C423.654 306.369 423.61 302.705 422.917 299.138ZM429.097 275.834C429.097 276.993 427.552 285.851 426.522 297.747L427.758 298.005C432.289 298.966 437.008 298.452 441.225 296.537C442.696 295.72 443.913 294.515 444.745 293.052C445.576 291.59 445.988 289.927 445.938 288.245C446.112 286.155 445.749 284.055 444.882 282.145C444.015 280.235 442.673 278.579 440.985 277.335C439.296 276.091 437.317 275.299 435.236 275.036C433.155 274.774 431.042 275.048 429.097 275.834ZM430.256 276.709C431.899 276.449 433.579 276.544 435.183 276.988C436.787 277.433 438.276 278.216 439.552 279.284C440.776 280.407 441.724 281.798 442.323 283.348C442.921 284.898 443.154 286.565 443.002 288.22C442.77 294.837 435.972 296.099 429.458 295.43C429.767 290.743 430.024 285.361 430.256 276.709ZM402.678 125.557C402.671 126.015 402.755 126.471 402.925 126.897C403.095 127.323 403.348 127.711 403.668 128.039C403.989 128.367 404.372 128.628 404.794 128.808C405.216 128.987 405.669 129.081 406.128 129.085C406.829 129.1 407.518 128.906 408.109 128.528C408.699 128.15 409.163 127.604 409.442 126.961C409.721 126.318 409.802 125.606 409.674 124.917C409.547 124.228 409.217 123.592 408.727 123.091C408.237 122.59 407.609 122.246 406.922 122.104C406.236 121.961 405.523 122.026 404.874 122.291C404.225 122.555 403.669 123.007 403.278 123.589C402.887 124.171 402.678 124.856 402.678 125.557ZM120.844 210.506C121.436 211.665 122.209 211.794 122.698 211.433C123.187 211.073 286.262 209.656 298.39 209.013C300.998 209.053 303.599 208.723 306.115 208.034C311.909 202.884 314.175 106.605 311.909 102.15C306.115 90.5883 124.784 98.03 113.634 101.403C104.75 104.081 116.75 202.292 120.844 210.506ZM113.145 105.575C113.145 105.111 113.711 103.309 114.149 103.18C126.483 99.472 305.574 93.3693 310.441 103.051C310.856 104.989 311.046 106.967 311.008 108.948C311.445 120.175 311.008 144.226 309.849 165.778C309.617 169.898 307.789 203.657 305.111 206.721C294.425 208.987 129.753 209.502 122.44 209.785C118.269 200.103 109.256 122.57 113.145 105.575ZM406.463 68.778C407.163 68.7933 407.851 68.6002 408.441 68.2231C409.03 67.846 409.494 67.3021 409.774 66.6605C410.054 66.0189 410.136 65.3087 410.011 64.6201C409.886 63.9315 409.558 63.2957 409.071 62.7936C408.583 62.2915 407.957 61.9457 407.273 61.8003C406.588 61.655 405.876 61.7165 405.226 61.9771C404.577 62.2377 404.019 62.6857 403.625 63.2639C403.231 63.8422 403.018 64.5247 403.012 65.2245C403.002 65.6854 403.084 66.1436 403.252 66.5726C403.421 67.0016 403.673 67.3929 403.994 67.7236C404.315 68.0542 404.698 68.3178 405.122 68.4988C405.546 68.6798 406.002 68.7747 406.463 68.778Z" fill="#40514B"/>
<path d="M163.538 170.465H194.129C197.669 170.451 201.059 169.033 203.555 166.523C206.051 164.013 207.449 160.615 207.442 157.075V132.252C207.442 128.704 206.045 125.299 203.554 122.774C201.062 120.249 197.676 118.806 194.129 118.759H163.538C161.764 118.752 160.007 119.096 158.366 119.772C156.726 120.448 155.236 121.441 153.982 122.696C152.728 123.95 151.734 125.44 151.058 127.08C150.383 128.72 150.038 130.478 150.045 132.252V157.075C150.052 158.84 150.406 160.586 151.088 162.215C151.77 163.843 152.765 165.321 154.018 166.564C155.271 167.808 156.757 168.792 158.39 169.461C160.024 170.13 161.773 170.471 163.538 170.465ZM152.234 132.252C152.281 129.275 153.489 126.435 155.601 124.338C157.713 122.24 160.561 121.051 163.538 121.025H194.129C195.632 121.008 197.124 121.289 198.518 121.851C199.912 122.414 201.181 123.247 202.251 124.303C203.321 125.359 204.172 126.617 204.753 128.003C205.335 129.389 205.636 130.877 205.639 132.38V157.075C205.633 158.579 205.329 160.068 204.747 161.456C204.165 162.844 203.316 164.103 202.247 165.162C201.178 166.221 199.911 167.06 198.518 167.629C197.125 168.199 195.634 168.489 194.129 168.482H163.538C162.047 168.475 160.571 168.175 159.196 167.598C157.821 167.021 156.573 166.179 155.523 165.12C154.474 164.06 153.643 162.805 153.078 161.424C152.514 160.044 152.227 158.566 152.234 157.075V132.252ZM246.247 188.85C246.762 190.369 248.05 190.035 248.41 189.082C248.899 187.717 251.758 177.906 252.118 176.207C254.101 175.589 248.513 177.52 265.791 171.237C265.97 171.168 266.124 171.046 266.233 170.887C266.342 170.729 266.4 170.541 266.4 170.349C266.4 170.157 266.342 169.969 266.233 169.81C266.124 169.652 265.97 169.53 265.791 169.46L239.32 158.877C239.158 158.8 238.978 158.767 238.798 158.782C238.619 158.796 238.447 158.857 238.298 158.958C238.15 159.06 238.031 159.198 237.952 159.36C237.874 159.522 237.84 159.702 237.853 159.881C237.853 159.881 244.831 184.756 246.247 188.85ZM240.505 161.632L262.804 170.413C259.817 171.52 254.77 173.426 252.35 174.404C251.268 174.816 250.831 174.997 250.573 175.331C250.316 175.666 251.217 173.658 247.432 185.322L240.505 161.632ZM301.275 86.1334C301.305 86.2879 301.389 86.4267 301.511 86.5256C301.634 86.6245 301.787 86.6771 301.944 86.6742C302.485 86.6742 319.145 88.2707 322.544 87.3694C324.733 86.7772 325.119 82.9147 325.325 80.6487C325.583 77.2239 325.325 68.8294 323.883 65.9712C321.926 62.1087 307.481 63.3962 303.283 64.1429C302.169 64.2997 301.104 64.7045 300.168 65.3274C299.622 65.9606 299.305 66.7585 299.266 67.5934C299.241 73.8291 299.915 80.0479 301.275 86.1334ZM302.022 67.3102C306.09 66.0484 317.678 65.5592 321.36 67.3102C322.622 70.6577 323.291 82.1679 321.772 84.8459C319.377 85.4639 304.751 85.4639 302.305 85.4897C302.228 83.4812 301.043 72.6404 302.022 67.3102ZM335.831 86.0304C335.866 86.1826 335.951 86.3187 336.072 86.4168C336.194 86.5149 336.345 86.5693 336.501 86.5712C337.042 86.5712 353.702 88.1677 357.101 87.2664C359.29 86.6742 359.676 82.8117 359.908 80.5457C360.139 77.1209 359.908 68.7264 358.44 65.8682C356.483 61.9799 342.037 63.2932 337.84 64.0399C336.728 64.2073 335.666 64.6112 334.724 65.2244C334.19 65.8645 333.874 66.6584 333.823 67.4904C333.799 73.726 334.473 79.9447 335.831 86.0304ZM336.578 67.2072C340.647 65.9197 352.234 65.4562 355.916 67.2072C357.178 70.5547 357.848 82.0649 356.328 84.7172C353.934 85.3609 339.308 85.3609 336.861 85.3867C336.784 83.3782 335.6 72.5374 336.578 67.2072ZM371.984 87.1634C372.015 87.3179 372.098 87.4567 372.221 87.5556C372.343 87.6545 372.496 87.7071 372.654 87.7042C373.195 87.7042 389.855 89.3007 393.254 88.3994C395.443 87.8072 395.829 83.9447 396.035 81.6787C396.292 78.2539 396.035 69.8594 394.593 67.0012C392.636 63.1387 378.19 64.4262 373.993 65.1729C372.88 65.3363 371.817 65.7406 370.877 66.3574C370.331 66.9906 370.014 67.7885 369.976 68.6234C369.95 74.8591 370.624 81.0779 371.984 87.1634ZM372.731 68.3402C376.8 67.0784 388.387 66.5892 392.069 68.3402C393.331 71.6877 394.001 83.1979 392.481 85.8759C390.087 86.4939 375.461 86.4939 373.014 86.5197C372.937 84.5112 371.753 73.6704 372.731 68.3402ZM336.063 125.634C336.243 126.149 336.655 126.2 336.733 126.175C337.299 126.175 353.934 127.771 357.333 126.87C359.521 126.278 359.908 122.415 360.139 120.149C360.371 116.724 360.139 108.33 358.697 105.497C356.715 101.609 342.269 102.922 338.097 103.643C336.976 103.803 335.903 104.208 334.956 104.828C334.417 105.475 334.101 106.279 334.055 107.12C334.03 113.347 334.704 119.557 336.063 125.634ZM336.836 106.811C340.904 105.549 352.466 105.06 356.148 106.811C357.41 110.158 358.079 121.668 356.56 124.346C354.165 124.964 339.565 124.964 337.119 124.99C337.016 122.982 335.831 112.141 336.836 106.811ZM396.267 104.442C400.387 98.3647 403.992 92.8799 404.12 92.6224C404.249 92.3649 402.369 90.0474 401.262 91.6954C393.383 103.824 394.464 102.665 393.898 102.459C389.366 100.811 374.74 101.377 372.448 103.515C370.903 104.957 371.495 110.184 371.675 112.424C370.027 111.497 368.766 110.828 368.302 110.647C367.118 110.184 367.195 111.343 367.839 111.755L371.856 114.33C372.181 117.714 372.705 121.076 373.426 124.398C373.451 124.555 373.534 124.697 373.657 124.797C373.781 124.896 373.937 124.947 374.096 124.939C374.637 124.939 391.297 126.535 394.696 125.634C399.125 124.398 397.76 108.15 396.267 104.442ZM374.173 105.497C380.23 104.119 386.507 104.005 392.61 105.163L383.675 119.248C382.774 118.733 377.958 115.9 373.941 113.634C373.772 110.946 373.849 108.249 374.173 105.575V105.497ZM393.923 123.007C391.503 123.651 376.903 123.651 374.456 123.677C374.456 122.647 374.07 119.274 373.89 115.54L383.675 121.617C383.922 121.644 384.172 121.6 384.395 121.491C384.619 121.381 384.806 121.211 384.937 120.999C385.761 119.943 389.906 113.918 394.129 107.712C394.928 112.347 395.185 120.793 393.975 123.007H393.923ZM291.541 67.9282C292.24 67.9384 292.926 67.7408 293.512 67.3605C294.099 66.9803 294.559 66.4345 294.834 65.7924C295.11 65.1502 295.189 64.4407 295.061 63.7537C294.932 63.0668 294.603 62.4334 294.114 61.9339C293.626 61.4343 293 61.0912 292.316 60.948C291.632 60.8047 290.921 60.8678 290.273 61.1293C289.625 61.3908 289.069 61.8388 288.676 62.4166C288.283 62.9944 288.07 63.6759 288.065 64.3747C288.065 65.3039 288.429 66.1962 289.078 66.8605C289.728 67.5247 290.612 67.908 291.541 67.9282Z" fill="#40514B"/>
</svg>
