<svg width="408" height="408" viewBox="0 0 408 408" fill="none" xmlns="http://www.w3.org/2000/svg">
<g clip-path="url(#clip0_973_4164)">
<path d="M311.526 258.941C317.216 256.794 348.027 254.068 381.306 257.181C381.354 257.166 381.396 257.136 381.426 257.095C381.456 257.055 381.472 257.006 381.472 256.955C381.472 256.905 381.456 256.856 381.426 256.816C381.396 256.775 381.354 256.745 381.306 256.73C349.1 253.23 318.01 255.742 311.311 258.534C311.284 258.548 311.261 258.567 311.241 258.59C311.222 258.613 311.207 258.64 311.198 258.669C311.189 258.698 311.186 258.728 311.189 258.759C311.192 258.789 311.201 258.818 311.215 258.845C311.229 258.872 311.248 258.895 311.271 258.915C311.295 258.934 311.321 258.949 311.35 258.958C311.379 258.967 311.41 258.97 311.44 258.967C311.47 258.964 311.499 258.956 311.526 258.941ZM378.708 266.263C378.756 266.248 378.798 266.218 378.828 266.178C378.858 266.137 378.874 266.088 378.874 266.038C378.874 265.987 378.858 265.938 378.828 265.898C378.798 265.857 378.756 265.827 378.708 265.812C347.941 262.312 321.446 263.665 311.054 265.812C310.997 265.812 310.942 265.835 310.902 265.875C310.862 265.915 310.839 265.97 310.839 266.027C310.839 266.084 310.862 266.138 310.902 266.179C310.942 266.219 310.997 266.242 311.054 266.242C320.909 264.524 348.069 263.257 378.708 266.263ZM377.914 275.066C358.268 272.769 332.567 271.33 313.029 272.919C312.981 272.934 312.939 272.964 312.909 273.005C312.879 273.045 312.863 273.094 312.863 273.145C312.863 273.195 312.879 273.244 312.909 273.284C312.939 273.325 312.981 273.355 313.029 273.37C334.659 272.566 356.32 273.284 377.85 275.517C377.901 275.511 377.949 275.487 377.986 275.451C378.022 275.415 378.046 275.367 378.054 275.316C378.061 275.265 378.051 275.213 378.026 275.168C378.001 275.122 377.961 275.087 377.914 275.066ZM397.238 267.873C397.238 267.573 396.851 267.508 396.787 267.873C394.747 278.072 387.984 286.21 385.772 277.471C385.363 275.069 385.363 272.615 385.772 270.214C387.919 256.58 398.655 253.187 393.91 268.711C391.247 277.771 387.168 277.063 390.002 266.757C391.247 262.463 392.364 262.312 391.892 261.99C391.873 261.968 391.851 261.95 391.825 261.937C391.799 261.925 391.77 261.919 391.741 261.919C391.712 261.919 391.684 261.925 391.658 261.937C391.632 261.95 391.609 261.968 391.591 261.99C390.63 263.387 389.905 264.932 389.444 266.564C388.714 269.119 387.49 275.861 390.002 275.667C393.201 275.496 397.216 263.15 394.898 258.834C392.579 254.518 386.438 260.144 384.914 270.042C382.401 286.381 394.232 285.587 397.238 267.873ZM367.694 347.531C367.694 350.923 370.421 353.628 375.101 353.972C385.171 354.659 385.021 348.711 385.644 338.362C385.794 335.85 385.944 332.716 385.966 330.203C380.447 329.012 374.837 328.294 369.197 328.056C369.154 328.529 367.179 342.785 367.694 347.531Z" fill="#40514B"/>
<path d="M392.944 302.42C392.816 296.795 392.73 291.084 388.929 286.94C391.686 285.939 393.978 283.96 395.371 281.379C397.232 278.315 398.547 274.951 399.257 271.438C400.695 264.696 400.395 253.595 394.168 252.114C392.279 251.727 387.963 251.234 383.325 250.804V18.3816L382.638 17.1792H5.4371V286.704H46.103V290.998C34.7664 292.2 6.98301 297.546 0.692025 306.972C0.143112 307.904 -0.0903242 308.989 0.0264261 310.064C-0.0527943 311.674 0.342923 313.272 1.16439 314.659C2.13058 315.711 3.31148 315.603 4.59973 315.646C4.90033 317.214 5.69475 320.971 6.25299 322.646C6.36075 323.294 6.69723 323.882 7.20143 324.304C7.70563 324.725 8.34417 324.952 9.00127 324.943L17.5896 325.308C18.062 333.725 18.792 342.099 19.7367 350.451C20.8893 359.56 22.5451 368.599 24.6965 377.526C24.8759 378.104 25.2223 378.616 25.6922 378.999C26.1621 379.381 26.7346 379.615 27.3374 379.673C41.1862 380.682 41.2721 380.682 42.7965 379.673C43.5265 379.243 60.7462 358.932 61.1112 357.45C61.3044 356.699 62.7859 329.538 62.9577 327.09V326.962L217.742 332.888C218.471 350.291 220.756 367.594 224.569 384.59C224.687 385.407 225.072 386.162 225.664 386.737C226.306 387.281 227.121 387.578 227.962 387.574L240.673 388.003C241.527 388.166 242.41 388.101 243.231 387.814C244.053 387.528 244.785 387.03 245.353 386.372C260.383 366.404 261.285 365.845 261.542 365.287C261.993 364.278 264.054 334.97 264.076 334.498C264.591 334.498 271.097 334.777 271.612 334.627C271.947 334.56 272.259 334.408 272.518 334.186C272.777 333.965 272.975 333.68 273.094 333.36C275.798 330.763 278.216 327.884 280.308 324.772C281.918 317.364 281.875 317.772 281.682 317.106C281.593 316.801 281.436 316.519 281.225 316.282C281.013 316.044 280.751 315.856 280.458 315.732C279.596 315.474 278.695 315.365 277.796 315.41C285.74 306.822 288.66 300.166 289.626 288.529H307.061C303.003 296.773 298.472 308.582 300.813 316.119C301.822 316.312 315.606 319.318 326.986 320.542L327.458 316.119C327.501 315.735 327.695 315.383 327.997 315.142C328.299 314.9 328.684 314.788 329.068 314.831L337.657 315.797C338.037 315.84 338.385 316.031 338.626 316.328C338.866 316.625 338.981 317.005 338.945 317.386L338.58 321.572C346.387 322.081 354.219 322.081 362.026 321.572C363.465 312.039 366.836 290.311 373.642 283.247C373.835 283.032 374.587 283.461 374.308 283.869C373.599 284.857 367.609 288.679 362.649 335.808C361.124 350.193 358.355 377.268 369.842 385.642C371.044 386.522 370.335 387.23 369.112 386.436C356.701 378.406 358.806 350.236 360.309 335.378C360.716 331.191 361.124 327.692 361.726 323.505C353.985 324.063 346.214 324.063 338.473 323.505L338.022 328.057C338.003 328.256 337.945 328.449 337.85 328.625C337.755 328.8 337.625 328.955 337.468 329.08C337.312 329.204 337.132 329.295 336.939 329.348C336.746 329.401 336.545 329.415 336.347 329.388L327.522 328.1C327.148 328.041 326.811 327.842 326.579 327.542C326.348 327.243 326.24 326.866 326.277 326.489L326.664 322.388C317.916 321.504 309.246 319.968 300.727 317.794C299.932 321.014 290.893 358.416 298.043 376.216C303.539 389.871 348.457 391.847 367.609 390.58C371.131 390.329 374.529 389.173 377.474 387.225C380.419 385.276 382.811 382.601 384.42 379.458C392.622 391.847 398.376 386.092 403.465 380.961C404.647 378.684 405.513 376.257 406.042 373.747C410.787 352.276 407.094 319.941 392.944 302.42ZM333.856 337.955C332.01 340.81 325.869 337.955 325.869 337.955C328.854 337.568 328.295 330.418 328.295 330.418L335.338 331.535C335.474 333.784 334.928 336.021 333.77 337.955H333.856ZM398.656 271.395C397.938 274.819 396.638 278.094 394.812 281.078C393.288 283.397 391.076 286.017 388.371 286.424C386.948 285.121 385.276 284.12 383.454 283.483C380.491 278.201 380.813 266.521 386.074 258.061C393.631 245.823 402.048 255.528 398.57 271.309L398.656 271.395ZM276.271 175.871H335.617C354.318 182.14 372.697 186.864 381.758 189.183V203.139H304.634C298.236 184.373 284.151 178.447 276.164 175.785L276.271 175.871ZM133.404 316.226L127.864 318.91C128.036 318.33 127.864 318.309 127.242 312.469C130.96 308.787 135.147 305.61 139.695 303.021C136.732 305.877 133.747 309.892 133.447 312.92C133.33 314.018 133.316 315.125 133.404 316.226ZM143.173 301.196C147.464 302.895 151.897 304.21 156.421 305.126C174.821 308.84 218.192 307.831 218.192 306.478V305.963C226.394 306.178 236.851 313.07 243.678 313.07C248.531 313.07 248.853 309.012 247.157 304.482C254.017 302.88 260.587 300.221 266.631 296.602C271.756 296.42 276.887 296.621 281.983 297.203C281.983 297.546 281.746 297.911 281.618 298.255C279.063 305.169 269.143 316.656 262.723 317.106C262.122 317.106 134.499 312.383 134.434 312.383C135.293 308.69 139.931 303.387 143.173 301.218V301.196ZM64.8042 200.176C70.494 191.523 88.0572 191.115 101.97 191.115C119.802 191.117 137.621 192.091 155.347 194.035C168.101 195.86 168.895 196.182 171.815 209.881L147.36 210.417C146.559 210.437 145.773 210.639 145.062 211.008C144.351 211.377 143.734 211.904 143.258 212.548C142.781 213.193 142.458 213.937 142.313 214.725C142.169 215.513 142.206 216.323 142.422 217.095L144.397 224.352C131.457 222.534 118.425 221.444 105.363 221.089C93.5967 220.616 76.9138 220.316 65.3839 222.785C65.3099 222.799 65.2445 222.842 65.2023 222.904C65.16 222.967 65.1442 223.043 65.1585 223.117C65.1727 223.192 65.2158 223.257 65.2782 223.299C65.3406 223.341 65.4172 223.357 65.4913 223.343C76.5488 221.196 94.0905 221.69 105.32 222.205C115.132 222.634 134.756 223.751 144.633 225.189L150.173 245.351C136.517 243.204 122.625 249.473 118.503 262.527C106.479 261.69 76.4629 258.018 57.6973 261.711C57.6716 261.717 57.6472 261.727 57.6256 261.741C57.604 261.756 57.5856 261.775 57.5715 261.797C57.5575 261.819 57.5481 261.844 57.5438 261.87C57.5396 261.896 57.5407 261.922 57.547 261.948C57.547 262.441 58.1482 261.754 65.341 261.325C80.5424 260.38 103.989 262.441 118.224 263.472C114.853 275.99 120.156 286.875 131.106 294.691C103.191 292.01 75.1555 290.771 47.1122 290.976C46.8681 273.199 48.4437 255.443 51.8143 237.986C55.5502 219.693 62.2921 203.998 64.8042 200.176ZM133.876 81.0552C166.77 72.8748 210.484 66.455 263.045 60.3357C263.045 104.008 262.873 134.088 263.045 163.911C250.721 139.907 255.767 106.584 228.864 108.087C225.609 108.248 222.421 109.07 219.494 110.502C216.567 111.933 213.962 113.946 211.837 116.416C209.712 118.886 208.112 121.763 207.134 124.871C206.156 127.98 205.82 131.254 206.147 134.496C206.276 136.085 206.405 137.567 206.598 138.962C203.936 142.784 205.031 149.397 209.282 153.584C210.687 159.626 210.797 165.897 209.604 171.985C207.457 172.736 205.632 173.552 203.764 174.432C179.824 174.432 160.307 174.432 133.898 172.908C133.941 146.928 133.941 111.437 133.876 81.0552ZM132.481 172.822C108.863 171.34 49.0445 166.703 31.8893 150.063C29.6877 148.154 27.9726 145.749 26.8861 143.046C25.7995 140.342 25.3728 137.419 25.6412 134.518C26.586 127.11 33.3064 121.184 39.49 116.955C48.7225 116.955 85.7598 116.955 95.0782 116.804C128.981 115.967 120.113 106.649 129.024 82.279L132.438 81.3987C132.395 111.844 132.373 146.499 132.481 172.822ZM280.845 140.766C280.523 133.444 291.58 129.171 298.708 127.282C323.486 120.712 356.444 118.307 381.758 118.479V174.089C360.986 169.322 340.766 162.407 321.425 153.455C314.821 150.61 308.44 147.273 302.337 143.471C302.263 143.435 302.179 143.427 302.1 143.448C302.02 143.469 301.951 143.517 301.905 143.585C301.858 143.652 301.837 143.734 301.845 143.816C301.854 143.897 301.891 143.973 301.951 144.029C307.932 148.113 314.279 151.635 320.909 154.55C340.348 163.71 360.761 170.639 381.758 175.205V188.088C363.357 183.106 281.811 161.958 280.845 140.766ZM381.758 117.341C356.293 117.169 323.271 119.488 298.408 126.187C290.614 128.334 279.449 132.757 279.685 140.787C280.05 153.498 306.052 165.586 332.439 174.69H272.707C269.315 173.573 266.266 169.58 264.376 166.509C264.484 143.042 264.484 132.006 264.376 60.2284C335.724 54.5601 371.302 56.1489 381.758 55.9342V117.341ZM272.836 233.284C252.761 231.545 242.197 238.008 225.6 240.219L229.164 255.614C225.128 257.954 220.919 260.574 216.904 263.107L161.595 264.803C160.237 264.836 158.903 264.438 157.785 263.666C156.667 262.895 155.821 261.79 155.369 260.509C178.278 259.886 211.365 258.62 214.671 258.491C214.74 258.491 214.805 258.464 214.853 258.415C214.902 258.367 214.929 258.302 214.929 258.233C214.929 258.165 214.902 258.099 214.853 258.051C214.805 258.003 214.74 257.976 214.671 257.976C201.789 258.319 177.505 258.92 155.154 259.736C145.127 223.236 145.599 225.082 145.664 224.867C145.669 224.794 145.656 224.72 145.626 224.653C145.596 224.585 145.55 224.526 145.492 224.481L143.345 216.773C143.151 216.132 143.109 215.454 143.223 214.795C143.338 214.135 143.605 213.511 144.003 212.972C144.402 212.434 144.92 211.997 145.518 211.695C146.116 211.393 146.776 211.235 147.446 211.233L203.27 210.031C202.437 206.082 201.169 202.236 199.491 198.566C198.632 196.418 200.329 196.655 200.951 197.943C203.001 201.748 204.566 205.794 205.611 209.988L213.812 209.795C215.123 209.787 216.397 210.221 217.43 211.028C218.463 211.834 219.193 212.966 219.502 214.239L224.956 237.75C237.645 235.968 248.574 231.566 261.714 230.922C265.729 215.098 269.358 198.286 281.983 187.98C283.357 186.885 284.28 188.109 282.863 189.183C276.121 194.357 273.137 201.249 270.56 208.507C267.683 216.58 266.266 224.395 264.527 230.6C267.399 230.508 270.273 230.674 273.115 231.094C276.293 231.652 274.532 233.37 272.836 233.241V233.284ZM215.315 264.116C207.178 269.269 199.105 274.487 190.753 279.146C184.934 275.088 180.017 270.88 172.996 265.383L215.315 264.116ZM172.739 209.752C172.266 207.433 171.815 205.458 171.364 203.826H177.806C177.183 205.694 176.625 207.648 176.152 209.687L172.739 209.752ZM218.643 115.13C218.078 118.66 218.283 122.271 219.245 125.715C219.416 126.316 220.232 125.307 223.947 124.942C228.438 124.593 232.906 125.872 236.532 128.544C240.159 131.217 242.703 135.105 243.7 139.499L241.424 139.735C240.479 132.499 234.747 127.926 229.765 129.129C224.784 130.331 221.606 136.665 224.161 143.922C223.289 143.97 222.455 144.293 221.778 144.845C220.017 139.585 214.736 135.291 209.991 136.515V133.766C211.62 131.106 213.885 128.892 216.582 127.325C216.629 127.302 216.667 127.265 216.69 127.218C216.714 127.171 216.721 127.118 216.711 127.067C216.387 122.991 217.05 118.896 218.643 115.13ZM228.327 175.248C227.908 173.082 227.282 170.961 226.459 168.914C234.21 170.761 241.36 165.157 244.645 157.663C245.482 160.605 248.338 168.528 255.23 171.362C254.07 174.239 247.994 195.603 238.826 197.127C230.796 198.501 223.088 184.738 222.766 169.623L225.106 168.506H225.342C226.391 170.675 227.205 172.949 227.768 175.291C227.777 175.365 227.815 175.433 227.873 175.479C227.931 175.525 228.006 175.547 228.08 175.538C228.154 175.529 228.221 175.492 228.268 175.433C228.314 175.375 228.335 175.301 228.327 175.227V175.248ZM246.362 149.29C245.353 148.796 246.641 152.425 243.292 158.737C237.366 170.009 223.26 173.767 214.757 156.59C220.447 157.449 223.71 152.059 222.079 145.854C222.394 145.531 222.772 145.275 223.189 145.102C223.606 144.929 224.053 144.841 224.505 144.845C225.29 146.741 226.529 148.414 228.112 149.719C234.424 154.829 242.09 149.719 241.51 140.701L243.893 140.444C243.979 140.902 244.043 141.353 244.086 141.796C244.086 142.097 244.602 142.118 244.731 141.796C246.019 138.876 248.681 138.468 250.184 140.616C252.889 144.416 249.862 150.986 246.362 149.268V149.29ZM229.959 129.966C240.286 127.475 245.224 148.066 234.875 150.557C233.784 150.784 232.654 150.753 231.577 150.466C230.499 150.179 229.504 149.644 228.67 148.903C222.143 143.686 223.045 131.684 229.959 130.009V129.966ZM218.557 155.044C217.238 155.742 215.699 155.903 214.263 155.495C211.783 149.767 210.329 143.648 209.969 137.416C218.364 134.84 226.18 150.793 218.557 155.087V155.044ZM208.896 151.78C207.546 150.248 206.634 148.381 206.257 146.375C205.879 144.368 206.049 142.297 206.748 140.379C207.35 144.802 208.166 148.431 208.896 151.823V151.78ZM201.681 175.398C190.475 181.116 181.984 191.034 178.063 202.989H171.15C168.788 194.937 165.889 194.4 155.476 192.897C149.872 192.081 141.992 191.416 133.747 190.9V173.874C155.218 175.184 172.416 175.334 201.681 175.463V175.398ZM150.516 246.553L154.274 260.251C154.69 261.806 155.608 263.179 156.886 264.157C158.163 265.136 159.728 265.665 161.337 265.662L171.236 265.362C188.112 278.502 195.133 285.458 217.183 293.531V305.92C200.887 306.693 172.739 307.015 156.614 303.773C99.265 291.599 114.724 240.498 150.516 246.553ZM218.192 305.061V295.55L223.689 295.292C224.977 299.973 224.934 303.451 223.689 305.92C221.897 305.417 220.052 305.129 218.192 305.061ZM229.486 304.847C230.057 303.236 230.439 301.564 230.624 299.865C230.624 299.608 231.333 299.715 231.333 300.016C231.434 301.81 231.024 303.597 230.152 305.169C230.001 305.405 229.4 305.083 229.486 304.911V304.847ZM233.544 306.178C234.081 304.46 234.274 302.764 234.682 301.196C234.682 300.939 235.305 301.089 235.326 301.347C235.522 303.148 235.106 304.963 234.145 306.5C234.059 306.693 233.458 306.435 233.544 306.178ZM237.602 307.509C238.178 305.901 238.553 304.228 238.719 302.528C238.719 302.249 239.363 302.334 239.341 302.528C239.416 304.327 239.009 306.114 238.16 307.702C238.01 308.003 237.473 307.745 237.602 307.509ZM268.22 295.635C274.661 291.577 280.78 286.059 283.722 278.867L284.194 278.588C284.256 284.556 283.6 290.511 282.24 296.323C277.589 295.765 272.904 295.535 268.22 295.635ZM246.749 303.429C246.747 303.426 246.746 303.423 246.744 303.419C246.092 302.013 245.2 300.73 244.108 299.629C255.294 294.154 267.855 284.75 275.219 274.787C275.254 274.716 275.263 274.634 275.245 274.557C275.227 274.479 275.182 274.411 275.119 274.362C275.055 274.314 274.977 274.29 274.898 274.293C274.818 274.296 274.742 274.326 274.682 274.379C266.001 284.631 255.224 292.904 243.077 298.641C239.732 296.015 235.664 294.472 231.419 294.218C227.012 294.103 222.603 294.247 218.214 294.648V293.317C218.207 293.225 218.175 293.136 218.122 293.061C218.069 292.985 217.997 292.925 217.913 292.887C208.625 289.651 199.798 285.22 191.654 279.704C215.68 266.199 240.909 246.682 257.141 245.351C273.867 244.384 284.774 256.086 284.473 270.45C283.92 294.34 247.704 302.942 246.744 303.419C246.736 303.423 246.73 303.427 246.727 303.429H246.749ZM381.758 18.9183V53.873C349.552 54.2809 319.9 53.873 264.376 58.9401C264.376 46.9808 264.376 34.0339 264.269 18.9183H381.758ZM263.131 18.7466V59.1334C217.076 63.3202 164.494 72.338 133.962 79.8528C133.962 47.1097 133.833 20.5716 133.812 18.7466H263.131ZM6.81124 18.4889H132.588C132.588 29.6967 132.588 53.3147 132.438 80.2178C123.119 82.5367 113.328 85.242 102.851 88.4841C97.8909 107.808 98.4062 109.418 95.4003 113.433C126.855 112.36 117.537 97.7166 124.644 83.374L128.122 82.4723C119.061 106.885 127.907 114.85 95.0567 115.795C85.7598 116.031 49.4525 116.16 40.6279 116.139C41.9591 115.258 43.3333 114.421 44.7289 113.605C62.6786 113.755 70.129 113.605 70.2149 113.605C72.5981 109.504 72.4693 105.682 74.6164 98.189C58.5347 105.231 26.7363 117.277 24.5677 134.367C24.2788 137.438 24.7216 140.533 25.8599 143.399C26.9982 146.266 28.7996 148.821 31.1163 150.857C48.6366 167.776 108.283 172.328 132.481 173.852V190.9C121.294 190.235 109.528 189.87 101.863 189.87C88.8302 189.87 69.9143 190.042 63.6448 199.467C62.9224 200.619 62.2768 201.816 61.7124 203.053H6.81124V18.4889ZM6.81124 285.737V203.826H61.4333C49.0875 230.192 46.4036 256.494 46.103 285.737H6.81124ZM46.6827 291.857C75.3945 291.63 104.098 292.92 132.674 295.721C135.542 297.62 138.575 299.258 141.735 300.617C135.841 303.075 130.67 306.991 126.705 311.996L1.57233 307.316C6.57506 301.046 27.3589 294.047 46.5969 291.857H46.6827ZM9.10863 324.063C8.18538 324.063 7.62713 323.762 7.17624 322.388C6.72535 321.014 5.90946 317.321 5.60887 315.711L17.2032 316.14C17.2032 318.91 17.3964 321.658 17.5467 324.428L9.10863 324.063ZM16.1511 315.217C2.30234 314.68 2.66735 314.916 1.8944 314.058C0.97198 312.17 0.751261 310.016 1.27174 307.981L126.705 312.533C126.941 314.487 127.113 316.441 127.306 318.373C127.326 318.508 127.315 318.645 127.275 318.774C127.234 318.904 127.165 319.023 127.072 319.122C126.979 319.221 126.865 319.298 126.738 319.347C126.611 319.395 126.475 319.415 126.34 319.404L16.1511 315.217ZM42.4315 379.029C41.358 379.694 41.4224 379.544 31.8678 379.286C28.4325 379.286 26.0062 379.565 25.4265 377.375C23.4836 368.511 22.0498 359.543 21.1323 350.515C19.7639 339.101 18.7828 327.643 18.1908 316.162L37.0638 316.87C37.0638 327.112 37.9441 343.258 38.0729 344.782C38.7672 354.452 39.9785 364.078 41.7015 373.618C41.7042 373.661 41.7163 373.703 41.7369 373.742C41.7575 373.78 41.7861 373.813 41.8208 373.839C41.8555 373.865 41.8955 373.884 41.9379 373.893C41.9804 373.902 42.0243 373.902 42.0667 373.893C42.1091 373.883 42.149 373.865 42.1835 373.838C42.2181 373.812 42.2465 373.779 42.2669 373.74C42.2873 373.702 42.2991 373.66 42.3016 373.616C42.3041 373.573 42.2971 373.529 42.2812 373.489C41.7112 370.267 41.2243 367.031 40.8212 363.784C42.1524 362.109 46.2319 357.343 46.4036 357.064L59.9732 358.009C59.7371 358.374 43.1186 378.535 42.3456 379.007L42.4315 379.029ZM38.1373 326.124L47.4557 326.489C46.0171 361.057 46.5539 345.083 46.1889 355.818C46.1889 356.699 46.1889 356.806 40.6924 362.603C39.5759 354.444 38.4379 340.703 38.0944 326.103L38.1373 326.124ZM60.2524 357.085L46.5969 356.441C46.7901 355.84 46.5969 357.107 48.3145 326.382L62.0774 326.919C62.0774 326.919 60.3168 356.549 60.2524 357.085ZM38.0944 325.18C38.0944 324.664 37.9655 319.146 37.9441 316.913L126.275 320.263C128.77 319.427 131.19 318.386 133.511 317.149C133.833 319.06 134.671 320.606 136.539 320.671L217.334 323.762C217.448 326.525 217.577 329.295 217.72 332.072L38.0944 325.18ZM244.795 386.114C243.7 387.574 242.498 387.531 240.651 387.445L227.983 386.844C227.372 386.831 226.788 386.585 226.351 386.157C225.893 385.693 225.605 385.088 225.536 384.439C221.241 366.275 219.094 342.592 218.3 323.784L236.98 324.514C236.98 341.905 238.311 364.901 241.853 381.412C241.841 381.456 241.839 381.503 241.848 381.549C241.857 381.594 241.876 381.637 241.904 381.674C241.932 381.71 241.968 381.74 242.01 381.761C242.051 381.781 242.097 381.792 242.143 381.792C242.19 381.792 242.235 381.781 242.277 381.761C242.318 381.74 242.354 381.71 242.382 381.674C242.41 381.637 242.43 381.594 242.438 381.549C242.447 381.503 242.445 381.456 242.433 381.412C241.982 378.492 241.553 375.572 241.166 372.652C243.567 370.172 245.839 367.57 247.973 364.858L260.512 365.502C260.404 365.674 261.671 363.548 244.795 386.114ZM238.354 333.768L248.939 334.133L247.522 363.462C247.501 363.885 247.334 364.287 247.049 364.6L241.102 371.342C239.54 358.873 238.622 346.332 238.354 333.768ZM260.963 364.493L248.295 364.192C248.466 363.677 248.295 365.695 249.884 334.133L263.238 334.584C263.238 334.584 261.005 364.192 260.941 364.493H260.963ZM272.407 333.274C272.31 333.46 272.176 333.625 272.014 333.758C271.851 333.891 271.664 333.989 271.462 334.047C271.118 334.154 238.375 332.866 238.332 332.866C238.332 330.096 238.203 327.327 238.182 324.557L262.852 325.48C264.651 325.552 266.437 325.145 268.027 324.299C268.499 324.299 266.287 324.106 272.707 324.535C273.025 324.566 273.324 324.704 273.554 324.927C273.784 325.149 273.932 325.442 273.974 325.759C273.58 328.291 273.05 330.8 272.385 333.274H272.407ZM280.158 316.677C280.332 316.757 280.487 316.873 280.612 317.017C280.738 317.162 280.832 317.331 280.888 317.514C281.016 317.944 279.771 323.719 279.556 324.729C277.739 327.375 275.707 329.867 273.48 332.179C274.019 330.061 274.413 327.909 274.661 325.738C274.588 325.271 274.364 324.842 274.022 324.516C273.681 324.19 273.241 323.985 272.772 323.934L268.993 323.784C271.835 321.523 274.525 319.077 277.044 316.462C279.986 316.591 279.836 316.548 280.136 316.677H280.158ZM269.164 322.431C267.408 323.905 265.165 324.671 262.873 324.578L136.581 319.769C134.112 319.769 134.134 315.475 134.434 313.048L261.413 317.987C269.508 318.352 279.964 305.512 282.541 298.663C284.688 292.522 285.053 284.642 285.203 278.094C286.615 277.197 287.97 276.215 289.261 275.152C289.197 298.47 287.307 307.359 269.143 322.431H269.164ZM289.777 287.541C290.034 283.719 290.12 279.403 290.099 274.315C304.355 262.055 308.005 242.581 308.005 225.49C308.13 218.15 307.086 210.838 304.914 203.826H381.973V250.675C376.412 250.139 370.7 249.688 368.403 249.516C368.403 249.516 329.541 247.734 314.726 251.663C302.144 254.991 302.101 273.778 312.171 280.026C310.433 282.363 308.944 284.874 307.726 287.519L289.777 287.541ZM312.6 279.597C303.046 273.542 303.11 255.635 314.876 252.543C325.612 249.731 353.524 249.58 364.796 250.074L391.27 252.329C383.304 255.184 377.786 273.8 382.273 283.054C380.326 282.495 378.337 282.092 376.326 281.851C371.259 281.164 316.808 276.355 312.579 279.597H312.6ZM374.973 355.969C369.412 355.604 366.084 351.889 365.934 347.788C365.397 342.099 367.587 326.532 367.802 326.189C368.624 326.141 369.449 326.141 370.271 326.189L371.86 305.319C375.059 305.19 378.494 307.122 382.123 307.187L380.534 327.348L382.681 327.713L383.712 312.683C384.592 312.683 385.966 313.027 386.288 313.843L385.279 327.949C388.221 328.572 387.856 327.198 387.426 337.396C386.761 349.055 386.761 356.742 374.952 355.969H374.973ZM401.533 352.619C401.657 359.202 401.089 365.78 399.837 372.244C397.303 383.301 393.052 382.85 387.276 373.146C389.321 367.064 390.563 360.741 390.969 354.337C391.355 350.043 392.665 328.787 392.858 311.868C399.386 324.492 401.64 338.449 401.533 352.619Z" fill="#40514B"/>
<path d="M150.516 246.553L154.274 260.251C154.69 261.806 155.608 263.179 156.886 264.157C158.163 265.136 159.728 265.665 161.337 265.662L171.236 265.362C188.112 278.502 195.133 285.458 217.183 293.531V305.92C200.887 306.693 172.739 307.015 156.614 303.773C99.265 291.599 114.724 240.498 150.516 246.553Z" fill="#B4E9D6"/>
<path d="M244.108 299.629C245.2 300.73 246.092 302.013 246.744 303.419C247.704 302.942 283.92 294.34 284.473 270.45C284.774 256.086 273.867 244.384 257.141 245.351C240.909 246.682 215.68 266.199 191.654 279.704C199.798 285.22 208.625 289.651 217.913 292.887C217.997 292.925 218.069 292.985 218.122 293.061C218.175 293.136 218.207 293.225 218.214 293.317V294.648C222.603 294.247 227.012 294.103 231.419 294.218C235.664 294.472 239.732 296.015 243.077 298.641C255.224 292.904 266.001 284.631 274.682 274.379C274.742 274.326 274.818 274.296 274.898 274.293C274.977 274.29 275.055 274.314 275.119 274.362C275.182 274.411 275.227 274.479 275.245 274.557C275.263 274.634 275.254 274.716 275.219 274.787C267.855 284.75 255.294 294.154 244.108 299.629Z" fill="#B4E9D6"/>
<path d="M215.315 264.116C207.178 269.269 199.105 274.487 190.753 279.146C184.934 275.088 180.017 270.88 172.996 265.383L215.315 264.116Z" fill="#B4E9D6"/>
<path d="M272.836 233.284C252.761 231.545 242.197 238.008 225.6 240.219L229.164 255.614C225.128 257.954 220.919 260.574 216.904 263.107L161.595 264.803C160.237 264.836 158.903 264.438 157.785 263.666C156.667 262.895 155.821 261.79 155.369 260.509C178.278 259.886 211.365 258.62 214.671 258.491C214.74 258.491 214.805 258.464 214.853 258.415C214.902 258.367 214.929 258.302 214.929 258.233C214.929 258.165 214.902 258.099 214.853 258.051C214.805 258.003 214.74 257.976 214.671 257.976C201.789 258.319 177.505 258.92 155.154 259.736C145.127 223.236 145.599 225.082 145.664 224.867C145.669 224.794 145.656 224.72 145.626 224.653C145.596 224.585 145.55 224.526 145.492 224.481L143.345 216.773C143.151 216.132 143.109 215.454 143.223 214.795C143.338 214.135 143.605 213.511 144.003 212.972C144.402 212.434 144.92 211.997 145.518 211.695C146.116 211.393 146.776 211.235 147.446 211.233L203.27 210.031C202.437 206.082 201.169 202.236 199.491 198.566C198.632 196.418 200.329 196.655 200.951 197.943C203.001 201.748 204.566 205.794 205.611 209.988L213.812 209.795C215.123 209.787 216.397 210.221 217.43 211.028C218.463 211.834 219.193 212.966 219.502 214.239L224.956 237.75C237.645 235.968 248.574 231.566 261.714 230.922C265.729 215.098 269.358 198.286 281.983 187.98C283.357 186.885 284.28 188.109 282.863 189.183C276.121 194.357 273.137 201.249 270.56 208.507C267.683 216.58 266.266 224.395 264.527 230.6C267.399 230.508 270.273 230.674 273.115 231.094C276.293 231.652 274.532 233.37 272.836 233.241V233.284Z" fill="#B4E9D6"/>
<path d="M228.327 175.248C227.908 173.082 227.282 170.961 226.459 168.914C234.21 170.761 241.36 165.157 244.645 157.663C245.482 160.605 248.338 168.528 255.23 171.362C254.07 174.239 247.994 195.603 238.826 197.127C230.796 198.501 223.088 184.738 222.766 169.623L225.106 168.506H225.342C226.391 170.675 227.205 172.949 227.768 175.291C227.777 175.365 227.815 175.433 227.873 175.479C227.931 175.525 228.006 175.547 228.08 175.538C228.154 175.529 228.221 175.492 228.268 175.433C228.314 175.375 228.335 175.301 228.327 175.227V175.248Z" fill="#B4E9D6"/>
<path d="M246.362 149.29C245.353 148.796 246.641 152.425 243.292 158.737C237.366 170.009 223.26 173.767 214.757 156.59C220.447 157.449 223.71 152.059 222.079 145.854C222.394 145.531 222.772 145.275 223.189 145.102C223.606 144.929 224.053 144.841 224.505 144.845C225.29 146.741 226.529 148.414 228.112 149.719C234.424 154.829 242.09 149.719 241.51 140.701L243.893 140.444C243.979 140.902 244.043 141.353 244.086 141.796C244.086 142.097 244.602 142.118 244.731 141.796C246.019 138.876 248.681 138.468 250.184 140.616C252.889 144.416 249.862 150.986 246.362 149.268V149.29Z" fill="#B4E9D6"/>
<path d="M218.643 115.13C218.078 118.66 218.283 122.271 219.245 125.715C219.416 126.316 220.232 125.307 223.947 124.942C228.438 124.593 232.906 125.872 236.532 128.544C240.159 131.217 242.703 135.105 243.7 139.499L241.424 139.735C240.479 132.499 234.747 127.926 229.765 129.129C224.784 130.331 221.606 136.665 224.161 143.922C223.289 143.97 222.455 144.293 221.778 144.845C220.017 139.585 214.736 135.291 209.991 136.515V133.766C211.62 131.106 213.885 128.892 216.582 127.325C216.629 127.302 216.667 127.265 216.69 127.218C216.714 127.171 216.721 127.118 216.711 127.067C216.387 122.991 217.05 118.896 218.643 115.13Z" fill="#B4E9D6"/>
<path d="M218.192 305.061V295.55L223.689 295.292C224.977 299.973 224.934 303.451 223.689 305.92C221.897 305.417 220.052 305.129 218.192 305.061Z" fill="#B4E9D6"/>
<path d="M218.557 155.044C217.238 155.742 215.699 155.903 214.263 155.495C211.783 149.767 210.329 143.648 209.969 137.416C218.364 134.84 226.18 150.793 218.557 155.087V155.044Z" fill="#B4E9D6"/>
<path d="M229.959 129.966C240.286 127.475 245.224 148.066 234.875 150.557C233.784 150.784 232.654 150.753 231.577 150.466C230.499 150.179 229.504 149.644 228.67 148.903C222.143 143.686 223.045 131.684 229.959 130.009V129.966Z" fill="#B4E9D6"/>
<path d="M228.649 152.467C228.46 152.628 228.281 152.8 228.112 152.982C227.404 153.562 226.351 154.034 225.965 153.648C225.776 153.333 225.631 152.994 225.536 152.639C225.032 151.021 224.444 149.43 223.775 147.872C223.735 147.813 223.673 147.771 223.603 147.757C223.532 147.743 223.459 147.757 223.399 147.797C223.339 147.837 223.298 147.899 223.284 147.969C223.27 148.04 223.284 148.113 223.324 148.173C223.715 150.347 224.439 152.447 225.471 154.399C225.809 154.595 226.188 154.707 226.578 154.726C226.968 154.744 227.356 154.67 227.712 154.508C228.067 154.346 228.378 154.102 228.619 153.796C228.861 153.489 229.026 153.129 229.1 152.746C229.1 152.467 228.928 152.317 228.649 152.467ZM235.112 154.034C235.24 158.329 232.964 160.154 229.078 159.681C229.014 159.681 228.951 159.704 228.901 159.745C228.851 159.785 228.817 159.842 228.805 159.906C228.792 159.969 228.802 160.035 228.832 160.092C228.862 160.149 228.911 160.193 228.971 160.218C229.861 160.54 230.822 160.61 231.75 160.42C232.677 160.23 233.533 159.787 234.224 159.14C234.915 158.494 235.414 157.668 235.665 156.756C235.917 155.844 235.911 154.879 235.648 153.97C235.626 153.912 235.585 153.864 235.532 153.832C235.479 153.8 235.416 153.787 235.355 153.794C235.294 153.802 235.236 153.829 235.192 153.873C235.148 153.916 235.12 153.973 235.112 154.034ZM231.054 139.885C230.581 140.014 230.431 140.894 230.753 141.86C231.075 142.827 231.676 143.492 232.17 143.363C232.664 143.235 232.771 142.354 232.471 141.388C232.17 140.422 231.526 139.756 231.054 139.885ZM233.265 136.321C233.415 136.45 233.652 136.321 233.523 136.106C231.376 133.208 228.026 134.152 227.79 137.008C227.79 137.18 228.048 137.244 228.112 137.008C228.992 134.603 231.161 134.26 233.265 136.321ZM216.067 145.553C215.595 145.747 215.573 146.648 216.067 147.55C216.561 148.452 217.205 149.053 217.677 148.86C218.15 148.667 218.15 147.786 217.677 146.885C217.205 145.983 216.518 145.382 216.067 145.553ZM212.717 143.879C212.717 143.879 212.846 143.879 212.911 143.75C212.951 143.365 213.071 142.993 213.263 142.657C213.455 142.322 213.715 142.029 214.026 141.799C214.337 141.569 214.692 141.406 215.069 141.32C215.447 141.235 215.837 141.229 216.217 141.302C217.377 141.088 213.92 139.713 212.803 142.376C212.589 142.59 212.395 143.685 212.717 143.879Z" fill="#40514B"/>
<path d="M176.797 235.431C176.797 237.077 177.446 238.655 178.602 239.819C179.757 240.982 181.325 241.636 182.959 241.636C184.593 241.636 186.161 240.982 187.316 239.819C188.472 238.655 189.121 237.077 189.121 235.431C189.121 233.785 188.472 232.207 187.316 231.043C186.161 229.88 184.593 229.226 182.959 229.226C181.325 229.226 179.757 229.88 178.602 231.043C177.446 232.207 176.797 233.785 176.797 235.431Z" fill="#40514B"/>
<path d="M329.54 317.128L328.467 325.824C328.454 325.973 328.497 326.122 328.589 326.241C328.68 326.361 328.813 326.441 328.961 326.468L336.003 327.412C336.054 327.421 336.106 327.419 336.156 327.408C336.206 327.396 336.253 327.375 336.295 327.345C336.337 327.315 336.373 327.277 336.4 327.233C336.427 327.19 336.445 327.141 336.454 327.09C336.462 327.04 336.461 326.988 336.449 326.937C336.438 326.887 336.416 326.84 336.386 326.798C336.356 326.756 336.319 326.721 336.275 326.693C336.231 326.666 336.183 326.648 336.132 326.639L329.691 325.394L330.056 317.171C330.061 317.102 330.04 317.035 329.995 316.982C329.951 316.93 329.888 316.897 329.819 316.892C329.751 316.886 329.683 316.908 329.631 316.952C329.579 316.996 329.546 317.059 329.54 317.128ZM193.823 103.084C195.034 101.874 195.928 100.383 196.425 98.7446C196.921 97.1058 197.005 95.3696 196.669 93.6906C196.333 92.0115 195.587 90.4415 194.497 89.1203C193.408 87.7991 192.009 86.7675 190.425 86.1173C188.841 85.4672 187.12 85.2186 185.417 85.3936C183.714 85.5687 182.08 86.1619 180.661 87.1207C179.242 88.0795 178.082 89.374 177.284 90.8892C176.486 92.4043 176.075 94.0932 176.088 95.8055C176.112 97.8493 176.738 99.8407 177.886 101.531C179.035 103.222 180.656 104.538 182.547 105.314C184.437 106.09 186.515 106.292 188.52 105.896C190.525 105.499 192.369 104.521 193.823 103.084ZM193.436 88.7416C194.572 89.8831 195.409 91.2865 195.874 92.828C196.339 94.3694 196.417 96.0016 196.102 97.5806C195.787 99.1595 195.089 100.637 194.068 101.882C193.047 103.127 191.736 104.102 190.249 104.721C188.763 105.339 187.147 105.582 185.544 105.429C183.941 105.275 182.401 104.73 181.059 103.841C179.717 102.951 178.614 101.745 177.848 100.329C177.083 98.9126 176.677 97.3297 176.667 95.7197C176.693 93.7882 177.285 91.9069 178.371 90.3095C179.457 88.712 180.989 87.4689 182.775 86.7346C184.562 86.0003 186.525 85.8072 188.42 86.1793C190.316 86.5514 192.06 87.4723 193.436 88.8275V88.7416Z" fill="#40514B"/>
<path d="M186.459 103.084C187.658 103.08 188.837 102.781 189.893 102.213C190.948 101.645 191.848 100.826 192.512 99.8278C193.176 98.8298 193.584 97.6837 193.7 96.4906C193.816 95.2975 193.636 94.0942 193.177 92.987C192.718 91.8798 191.993 90.9027 191.066 90.1421C190.14 89.3814 189.04 88.8606 187.865 88.6256C186.69 88.3906 185.474 88.4487 184.327 88.7947C183.179 89.1407 182.134 89.764 181.284 90.6095C180.248 91.6264 179.539 92.9301 179.249 94.3531C178.959 95.7761 179.102 97.2533 179.658 98.5947C180.214 99.9361 181.159 101.08 182.371 101.88C183.583 102.68 185.007 103.1 186.459 103.084ZM192.75 93.2934L186.459 102.483C185.4 102.461 184.358 102.204 183.41 101.731L190.946 90.7169C191.754 91.4195 192.374 92.3124 192.75 93.3148V93.2934ZM185.665 88.9992C186.776 88.8582 187.906 88.9985 188.95 89.4071L181.542 100.143C180.783 99.3241 180.244 98.327 179.975 97.244L185.665 88.9992ZM251.902 103.084C253.088 101.864 253.957 100.372 254.431 98.7382C254.906 97.1043 254.972 95.379 254.624 93.7136C254.276 92.0482 253.524 90.4938 252.435 89.1868C251.346 87.8798 249.952 86.8602 248.377 86.2175C246.802 85.5749 245.093 85.3289 243.4 85.501C241.708 85.6732 240.083 86.2584 238.669 87.2051C237.256 88.1518 236.096 89.431 235.293 90.9306C234.489 92.4302 234.066 94.1041 234.06 95.8055C234.074 97.8667 234.698 99.8777 235.854 101.585C237.009 103.292 238.645 104.618 240.553 105.397C242.462 106.175 244.558 106.371 246.578 105.96C248.598 105.548 250.451 104.547 251.902 103.084ZM244.538 85.9074C246.478 85.9032 248.375 86.474 249.991 87.5477C251.606 88.6214 252.867 90.1498 253.614 91.9399C254.361 93.7299 254.561 95.7013 254.189 97.6049C253.816 99.5085 252.887 101.259 251.52 102.635C250.153 104.011 248.409 104.951 246.508 105.336C244.607 105.722 242.634 105.535 240.839 104.799C239.044 104.064 237.507 102.813 236.423 101.204C235.339 99.596 234.756 97.7023 234.747 95.7625C234.741 94.4722 234.99 93.1934 235.48 91.9993C235.969 90.8053 236.689 89.7195 237.598 88.8041C238.508 87.8887 239.589 87.1616 240.779 86.6645C241.97 86.1675 243.247 85.9102 244.538 85.9074Z" fill="#40514B"/>
<path d="M249.689 100.937C250.976 99.5538 251.676 97.7257 251.643 95.8369C251.61 93.948 250.846 92.1456 249.512 90.8084C248.177 89.4712 246.376 88.7034 244.488 88.6663C242.599 88.6292 240.769 89.3257 239.383 90.6095C232.448 97.4373 242.883 107.851 249.689 100.937ZM250.827 93.2934L244.536 102.483C243.477 102.459 242.437 102.202 241.488 101.731L249.088 90.7384C249.876 91.437 250.474 92.3232 250.827 93.3149V93.2934ZM243.763 88.9992C244.875 88.8467 246.008 88.9873 247.049 89.4072L239.62 100.143C238.868 99.3189 238.33 98.3237 238.052 97.2441L243.763 88.9992ZM295.272 88.441C294.046 89.646 293.138 91.1356 292.628 92.7771C292.118 94.4185 292.022 96.1607 292.349 97.8482C292.676 99.5356 293.416 101.116 294.502 102.448C295.589 103.78 296.988 104.823 298.575 105.482C300.162 106.142 301.888 106.399 303.598 106.23C305.309 106.06 306.951 105.47 308.378 104.512C309.805 103.554 310.972 102.257 311.776 100.738C312.58 99.2189 312.996 97.5243 312.986 95.8055C312.926 93.7806 312.283 91.8159 311.134 90.1474C309.985 88.479 308.379 87.1778 306.508 86.4C304.638 85.6223 302.582 85.4012 300.589 85.7633C298.596 86.1253 296.75 87.0551 295.272 88.441ZM292.846 95.8055C292.784 94.4798 292.991 93.1552 293.456 91.912C293.921 90.6688 294.633 89.5327 295.549 88.5725C296.465 87.6124 297.567 86.8481 298.787 86.3259C300.007 85.8037 301.32 85.5344 302.647 85.5344C303.975 85.5344 305.288 85.8037 306.508 86.3259C307.728 86.8481 308.83 87.6124 309.746 88.5725C310.662 89.5327 311.374 90.6688 311.839 91.912C312.303 93.1552 312.511 94.4798 312.449 95.8055C312.406 108.731 292.889 108.495 292.846 95.8055Z" fill="#40514B"/>
<path d="M297.463 90.6308C296.098 92.0081 295.327 93.8659 295.316 95.8053C295.317 97.4935 295.903 99.1293 296.974 100.434C298.045 101.739 299.536 102.632 301.191 102.961C302.847 103.291 304.566 103.036 306.055 102.241C307.544 101.446 308.712 100.159 309.359 98.5995C310.006 97.0402 310.092 95.3048 309.604 93.6889C309.115 92.0729 308.081 90.6762 306.679 89.7367C305.276 88.7971 303.591 88.3727 301.911 88.5357C300.231 88.6988 298.659 89.4391 297.463 90.6308ZM296.132 97.4156L301.843 89.1064C302.955 88.9664 304.084 89.1066 305.128 89.5143L297.699 100.25C296.957 99.4445 296.419 98.4724 296.132 97.4156ZM302.573 102.504C301.514 102.479 300.474 102.222 299.524 101.753L307.061 90.7382C307.865 91.4348 308.485 92.32 308.864 93.3147L302.573 102.504ZM368.081 103.084C369.523 101.626 370.503 99.7746 370.895 97.7617C371.287 95.7488 371.075 93.6648 370.285 91.7722C369.496 89.8796 368.164 88.2629 366.457 87.1257C364.751 85.9886 362.746 85.3818 360.695 85.3818C358.644 85.3818 356.639 85.9886 354.933 87.1257C353.226 88.2629 351.894 89.8796 351.104 91.7722C350.315 93.6648 350.103 95.7488 350.495 97.7617C350.887 99.7746 351.866 101.626 353.309 103.084C354.278 104.055 355.429 104.826 356.697 105.351C357.964 105.877 359.323 106.148 360.695 106.148C362.067 106.148 363.426 105.877 364.693 105.351C365.96 104.826 367.112 104.055 368.081 103.084ZM360.738 85.9072C362.347 85.9042 363.932 86.2976 365.352 87.0528C366.773 87.808 367.985 88.9016 368.883 90.237C369.78 91.5723 370.335 93.1083 370.497 94.7089C370.66 96.3096 370.425 97.9256 369.815 99.4141C369.204 100.903 368.236 102.218 366.996 103.243C365.756 104.268 364.283 104.972 362.706 105.293C361.129 105.613 359.498 105.54 357.956 105.08C356.415 104.62 355.01 103.787 353.867 102.655C352.489 101.29 351.548 99.5476 351.162 97.6475C350.776 95.7475 350.963 93.7756 351.698 91.9818C352.434 90.188 353.686 88.6531 355.296 87.5717C356.905 86.4902 358.799 85.9109 360.738 85.9072Z" fill="#40514B"/>
<path d="M365.87 100.937C366.711 100.085 367.329 99.0386 367.671 97.8909C368.012 96.7433 368.066 95.5292 367.828 94.3558C367.589 93.1824 367.066 92.0856 366.304 91.1622C365.541 90.2387 364.564 89.5169 363.457 89.0605C362.35 88.604 361.148 88.4268 359.956 88.5445C358.764 88.6623 357.62 89.0713 356.624 89.7356C355.628 90.3999 354.81 91.299 354.243 92.3538C353.677 93.4086 353.378 94.5865 353.374 95.7839C353.379 97.2294 353.812 98.641 354.618 99.8408C355.424 101.041 356.568 101.975 357.904 102.526C359.24 103.077 360.71 103.22 362.128 102.937C363.545 102.655 364.847 101.959 365.87 100.937ZM367.008 93.2933L360.738 102.504C359.678 102.493 358.634 102.235 357.689 101.753L365.247 90.7383C366.031 91.4449 366.634 92.3282 367.008 93.3148V93.2933ZM359.922 88.9991C361.034 88.8609 362.163 89.0011 363.207 89.4071L355.8 100.143C355.034 99.3259 354.488 98.3287 354.211 97.244L359.922 88.9991ZM142.014 149.783C142.179 151.371 142.638 152.915 143.367 154.335C148.219 163.868 162.69 163.095 168.23 158.114C173.769 153.133 172.524 147.207 172.524 145.231V117.319C172.367 115.737 171.908 114.199 171.171 112.789C166.877 104.201 158.289 105.682 155.025 105.618C151.805 105.568 148.683 106.727 146.275 108.865C143.867 111.003 142.346 113.966 142.014 117.169C141.907 118.779 141.907 148.624 142.014 149.783ZM142.765 117.341C143.09 114.312 144.529 111.512 146.803 109.484C149.076 107.457 152.022 106.346 155.068 106.369C159.105 106.369 166.684 105.403 170.656 113.154C171.282 114.502 171.625 115.963 171.665 117.448C171.837 119.295 171.816 139.864 171.665 145.21C171.665 148.774 172.438 153.798 167.758 157.77C161.681 163.203 143.882 162.687 142.787 149.697C142.68 148.602 142.615 118.844 142.765 117.341ZM92.5235 113.519C97.0109 108.108 95.7656 101.023 100.189 89.3212C90.7629 92.2412 83.0119 95.0325 76.9786 97.4157C75.54 103.857 74.037 110.792 72.3838 113.626C79.5765 113.605 85.3093 113.82 92.5235 113.519Z" fill="#40514B"/>
</g>
<defs>
<clipPath id="clip0_973_4164">
<rect width="408" height="408" fill="white"/>
</clipPath>
</defs>
</svg>
