<svg width="515" height="515" viewBox="0 0 515 515" fill="none" xmlns="http://www.w3.org/2000/svg">
<g clip-path="url(#clip0_1109_4012)">
<path d="M393.226 326.85C400.408 324.14 439.299 320.698 481.306 324.628C481.367 324.609 481.42 324.571 481.458 324.52C481.495 324.468 481.516 324.407 481.516 324.343C481.516 324.279 481.495 324.218 481.458 324.166C481.42 324.115 481.367 324.077 481.306 324.058C440.654 319.641 401.41 322.812 392.955 326.335C392.921 326.353 392.891 326.377 392.866 326.406C392.842 326.436 392.824 326.47 392.812 326.506C392.801 326.543 392.797 326.581 392.8 326.619C392.804 326.657 392.815 326.694 392.833 326.728C392.85 326.762 392.875 326.792 392.904 326.816C392.934 326.841 392.967 326.859 393.004 326.87C393.04 326.882 393.079 326.886 393.117 326.882C393.155 326.879 393.192 326.868 393.226 326.85ZM478.027 336.092C478.088 336.073 478.141 336.035 478.178 335.984C478.216 335.932 478.236 335.871 478.236 335.807C478.236 335.743 478.216 335.682 478.178 335.63C478.141 335.579 478.088 335.541 478.027 335.522C439.19 331.105 405.747 332.812 392.629 335.522C392.558 335.522 392.489 335.551 392.438 335.602C392.387 335.653 392.358 335.722 392.358 335.793C392.358 335.865 392.387 335.934 392.438 335.985C392.489 336.036 392.558 336.064 392.629 336.064C405.069 333.896 439.353 332.297 478.027 336.092ZM477.024 347.203C452.226 344.303 419.785 342.488 395.123 344.493C395.062 344.512 395.009 344.55 394.971 344.601C394.934 344.652 394.914 344.714 394.914 344.778C394.914 344.841 394.934 344.903 394.971 344.954C395.009 345.006 395.062 345.043 395.123 345.062C422.426 344.048 449.767 344.953 476.943 347.772C477.008 347.764 477.068 347.735 477.115 347.689C477.161 347.643 477.191 347.584 477.201 347.519C477.21 347.454 477.198 347.388 477.166 347.331C477.134 347.274 477.084 347.229 477.024 347.203ZM501.416 338.124C501.416 337.745 500.928 337.663 500.847 338.124C498.272 350.998 489.735 361.269 486.944 350.239C486.427 347.207 486.427 344.11 486.944 341.078C489.654 323.869 503.205 319.587 497.215 339.181C493.855 350.618 488.705 349.724 492.283 336.715C493.855 331.295 495.264 331.105 494.668 330.698C494.645 330.67 494.616 330.647 494.583 330.632C494.55 330.616 494.514 330.608 494.478 330.608C494.442 330.608 494.406 330.616 494.373 330.632C494.34 330.647 494.311 330.67 494.288 330.698C493.075 332.461 492.16 334.412 491.578 336.471C490.657 339.696 489.112 348.206 492.283 347.962C496.321 347.745 501.389 332.162 498.462 326.714C495.535 321.267 487.784 328.368 485.859 340.861C482.689 361.486 497.622 360.483 501.416 338.124ZM464.124 438.672C464.124 442.954 467.566 446.369 473.474 446.802C486.185 447.67 485.995 440.162 486.781 427.099C486.971 423.928 487.16 419.972 487.187 416.801C480.222 415.297 473.141 414.39 466.021 414.09C465.967 414.687 463.473 432.682 464.124 438.672Z" fill="#2C2C2C"/>
<path d="M495.996 381.732C495.833 374.631 495.725 367.422 490.928 362.191C494.407 360.927 497.3 358.429 499.058 355.172C501.407 351.305 503.067 347.059 503.964 342.624C505.779 334.114 505.4 320.102 497.54 318.232C495.156 317.744 489.708 317.121 483.854 316.579V23.2023L482.987 21.6846H6.8628V361.893H58.1936V367.313C43.8838 368.831 8.81412 375.579 0.873303 387.477C0.180435 388.654 -0.11422 390.022 0.0331482 391.38C-0.066848 393.412 0.432648 395.429 1.46954 397.18C2.68912 398.508 4.17972 398.372 5.80583 398.426C6.18525 400.405 7.18802 405.147 7.89266 407.261C8.02868 408.08 8.4534 408.822 9.08983 409.354C9.72626 409.886 10.5323 410.173 11.3617 410.161L22.2024 410.622C22.7986 421.246 23.7201 431.816 24.9126 442.358C26.3675 453.857 28.4575 465.266 31.1731 476.534C31.3995 477.264 31.8368 477.911 32.4299 478.393C33.0231 478.875 33.7456 479.171 34.5066 479.244C51.9872 480.518 52.0957 480.518 54.0199 479.244C54.9413 478.702 76.677 453.063 77.1377 451.193C77.3816 450.245 79.2516 415.961 79.4685 412.872V412.709L274.845 420.189C275.766 442.156 278.65 463.997 283.464 485.45C283.612 486.481 284.098 487.434 284.846 488.16C285.655 488.848 286.684 489.223 287.746 489.217L303.79 489.759C304.869 489.964 305.983 489.882 307.02 489.52C308.057 489.159 308.98 488.531 309.698 487.7C328.669 462.495 329.808 461.79 330.133 461.086C330.702 459.812 333.304 422.818 333.331 422.222C333.981 422.222 342.193 422.574 342.844 422.384C343.266 422.3 343.66 422.108 343.987 421.828C344.314 421.548 344.564 421.189 344.714 420.785C348.127 417.507 351.18 413.873 353.82 409.945C355.852 400.594 355.798 401.109 355.554 400.269C355.441 399.884 355.244 399.528 354.977 399.228C354.71 398.928 354.379 398.691 354.009 398.535C352.921 398.209 351.784 398.071 350.649 398.128C360.676 387.287 364.362 378.886 365.582 364.197H387.589C382.466 374.604 376.748 389.51 379.702 399.023C380.976 399.266 398.375 403.061 412.739 404.605L413.335 399.023C413.39 398.538 413.634 398.094 414.015 397.789C414.396 397.484 414.883 397.343 415.368 397.396L426.209 398.616C426.688 398.671 427.127 398.911 427.432 399.286C427.736 399.661 427.88 400.141 427.835 400.622L427.374 405.906C437.229 406.548 447.114 406.548 456.969 405.906C458.785 393.873 463.04 366.446 471.631 357.53C471.875 357.259 472.824 357.801 472.471 358.316C471.577 359.562 464.016 364.386 457.755 423.875C455.831 442.033 452.335 476.208 466.834 486.778C468.352 487.889 467.457 488.784 465.913 487.781C450.248 477.645 452.904 442.087 454.801 423.333C455.316 418.048 455.831 413.63 456.59 408.346C446.819 409.05 437.01 409.05 427.238 408.346L426.669 414.091C426.646 414.342 426.572 414.586 426.452 414.808C426.332 415.03 426.168 415.225 425.971 415.382C425.773 415.539 425.546 415.655 425.303 415.722C425.06 415.788 424.805 415.805 424.555 415.771L413.417 414.145C412.944 414.071 412.519 413.82 412.226 413.442C411.934 413.064 411.797 412.588 411.845 412.113L412.332 406.936C401.29 405.82 390.347 403.882 379.594 401.136C378.591 405.202 367.181 452.413 376.206 474.88C383.144 492.117 439.841 494.61 464.016 493.011C468.462 492.694 472.751 491.236 476.468 488.776C480.185 486.317 483.205 482.94 485.236 478.973C495.589 494.61 502.852 487.347 509.275 480.87C510.767 477.996 511.861 474.932 512.528 471.764C518.517 444.662 513.856 403.847 495.996 381.732ZM421.412 426.585C419.081 430.19 411.33 426.585 411.33 426.585C415.097 426.097 414.392 417.072 414.392 417.072L423.282 418.482C423.453 421.32 422.764 424.145 421.303 426.585H421.412ZM503.205 342.57C502.299 346.891 500.658 351.026 498.353 354.792C496.429 357.719 493.638 361.026 490.223 361.541C488.427 359.895 486.316 358.632 484.017 357.828C480.277 351.161 480.683 336.417 487.323 325.739C496.863 310.291 507.487 322.541 503.096 342.461L503.205 342.57ZM348.725 221.994H423.634C447.24 229.907 470.439 235.87 481.876 238.797V256.413H384.526C376.45 232.726 358.671 225.246 348.589 221.885L348.725 221.994ZM168.389 399.158L161.397 402.546C161.614 401.814 161.397 401.787 160.611 394.415C165.305 389.768 170.59 385.758 176.33 382.49C172.59 386.095 168.823 391.163 168.444 394.984C168.296 396.371 168.278 397.768 168.389 399.158ZM180.721 380.187C186.137 382.33 191.733 383.99 197.442 385.146C220.669 389.835 275.414 388.561 275.414 386.854V386.203C285.767 386.474 298.966 395.174 307.584 395.174C313.709 395.174 314.116 390.052 311.975 384.333C320.634 382.311 328.927 378.956 336.556 374.387C343.025 374.157 349.502 374.411 355.934 375.146C355.934 375.579 355.636 376.04 355.473 376.474C352.248 385.201 339.727 399.7 331.623 400.269C330.865 400.269 169.772 394.307 169.69 394.307C170.774 389.645 176.628 382.951 180.721 380.214V380.187ZM81.7992 252.673C88.9812 241.751 111.15 241.236 128.712 241.236C151.221 241.238 173.713 242.468 196.087 244.922C212.186 247.226 213.189 247.632 216.874 264.923L186.006 265.601C184.995 265.625 184.003 265.88 183.105 266.346C182.208 266.812 181.429 267.477 180.827 268.29C180.226 269.103 179.819 270.043 179.636 271.038C179.453 272.032 179.499 273.055 179.772 274.029L182.265 283.19C165.932 280.895 149.482 279.519 132.994 279.07C118.143 278.474 97.0846 278.094 82.531 281.211C82.4375 281.229 82.355 281.283 82.3017 281.362C82.2483 281.441 82.2284 281.538 82.2464 281.631C82.2643 281.725 82.3187 281.807 82.3975 281.861C82.4763 281.914 82.573 281.934 82.6665 281.916C96.6239 279.206 118.766 279.829 132.94 280.479C145.326 281.021 170.097 282.431 182.564 284.247L189.556 309.695C172.319 306.985 154.784 314.899 149.581 331.377C134.404 330.32 96.5155 325.685 72.8285 330.347C72.7961 330.353 72.7653 330.366 72.738 330.385C72.7107 330.403 72.6875 330.427 72.6698 330.455C72.652 330.483 72.6401 330.514 72.6348 330.547C72.6295 330.579 72.6308 330.613 72.6388 330.645C72.6388 331.268 73.3976 330.401 82.4767 329.859C101.665 328.666 131.26 331.268 149.228 332.569C144.973 348.369 151.668 362.11 165.489 371.975C130.253 368.592 94.8651 367.027 59.4673 367.286C59.1592 344.847 61.148 322.434 65.4026 300.399C70.1183 277.308 78.6283 257.497 81.7992 252.673ZM168.986 102.312C210.506 91.9866 265.685 83.8831 332.03 76.1591C332.03 131.284 331.813 169.254 332.03 206.898C316.474 176.598 322.842 134.536 288.884 136.433C284.776 136.637 280.752 137.674 277.057 139.481C273.363 141.289 270.074 143.829 267.392 146.947C264.71 150.065 262.69 153.696 261.456 157.62C260.221 161.543 259.797 165.676 260.21 169.769C260.373 171.774 260.535 173.644 260.779 175.406C257.419 180.23 258.801 188.577 264.167 193.862C265.941 201.489 266.079 209.404 264.574 217.088C261.863 218.037 259.56 219.067 257.202 220.178C226.983 220.178 202.348 220.178 169.013 218.254C169.067 185.461 169.067 140.661 168.986 102.312ZM167.224 218.145C137.412 216.275 61.9065 210.421 40.2522 189.417C37.4733 187.009 35.3084 183.972 33.9369 180.56C32.5653 177.148 32.0267 173.458 32.3656 169.796C33.558 160.446 42.0409 152.966 49.8462 147.627C61.5 147.627 108.251 147.627 120.013 147.437C162.806 146.38 151.613 134.618 162.861 103.857L167.17 102.746C167.116 141.176 167.089 184.919 167.224 218.145ZM354.497 177.682C354.091 168.441 368.048 163.047 377.046 160.662C408.321 152.369 449.923 149.334 481.876 149.551V219.744C455.656 213.728 430.133 204.999 405.72 193.7C397.384 190.109 389.33 185.896 381.626 181.097C381.533 181.052 381.427 181.042 381.327 181.068C381.227 181.094 381.139 181.155 381.08 181.24C381.021 181.326 380.995 181.429 381.005 181.532C381.016 181.635 381.063 181.731 381.138 181.802C388.689 186.957 396.7 191.402 405.069 195.082C429.605 206.643 455.371 215.39 481.876 221.154V237.415C458.649 231.127 355.717 204.432 354.497 177.682ZM481.876 148.114C449.733 147.898 408.05 150.825 376.667 159.28C366.829 161.99 352.736 167.573 353.034 177.709C353.495 193.754 386.315 209.012 419.623 220.503H344.226C339.944 219.094 336.095 214.053 333.71 210.177C333.846 180.555 333.846 166.625 333.71 76.0236C423.769 68.8688 468.677 70.8743 481.876 70.6033V148.114ZM344.388 294.464C319.048 292.269 305.714 300.426 284.764 303.218L289.263 322.65C284.168 325.604 278.856 328.91 273.788 332.108L203.974 334.249C202.26 334.29 200.576 333.788 199.165 332.814C197.753 331.841 196.686 330.446 196.114 328.829C225.032 328.043 266.796 326.444 270.97 326.281C271.056 326.281 271.139 326.247 271.2 326.186C271.261 326.125 271.295 326.042 271.295 325.956C271.295 325.87 271.261 325.787 271.2 325.726C271.139 325.665 271.056 325.631 270.97 325.631C254.709 326.065 224.056 326.823 195.843 327.853C183.187 281.78 183.783 284.111 183.864 283.84C183.871 283.747 183.855 283.654 183.817 283.569C183.779 283.484 183.721 283.41 183.648 283.352L180.938 273.623C180.692 272.814 180.64 271.959 180.784 271.126C180.928 270.293 181.265 269.505 181.768 268.826C182.271 268.146 182.926 267.594 183.681 267.213C184.435 266.831 185.269 266.632 186.114 266.63L256.579 265.113C255.526 260.128 253.927 255.274 251.809 250.64C250.725 247.93 252.866 248.228 253.652 249.854C256.239 254.657 258.215 259.765 259.533 265.058L269.886 264.815C271.539 264.804 273.148 265.353 274.452 266.371C275.755 267.389 276.677 268.817 277.068 270.425L283.951 300.101C299.969 297.852 313.763 292.296 330.35 291.483C335.418 271.509 339.998 250.288 355.934 237.279C357.668 235.897 358.834 237.442 357.045 238.797C348.535 245.328 344.768 254.028 341.516 263.188C337.884 273.379 336.095 283.244 333.9 291.076C337.525 290.96 341.153 291.169 344.741 291.7C348.752 292.404 346.529 294.572 344.388 294.41V294.464ZM271.783 333.382C261.511 339.886 251.321 346.472 240.778 352.353C233.434 347.231 227.227 341.919 218.365 334.981L271.783 333.382ZM218.04 264.76C217.444 261.833 216.874 259.34 216.305 257.28H224.436C223.65 259.638 222.945 262.104 222.349 264.679L218.04 264.76ZM275.983 145.323C275.27 149.779 275.529 154.337 276.742 158.684C276.959 159.443 277.989 158.169 282.678 157.708C288.347 157.268 293.986 158.882 298.564 162.256C303.142 165.63 306.353 170.538 307.611 176.083L304.738 176.381C303.546 167.248 296.31 161.476 290.022 162.993C283.735 164.511 279.723 172.506 282.949 181.666C281.848 181.726 280.794 182.134 279.94 182.832C277.718 176.192 271.051 170.771 265.061 172.316V168.847C267.118 165.489 269.977 162.695 273.382 160.717C273.441 160.688 273.489 160.641 273.518 160.582C273.548 160.523 273.557 160.456 273.544 160.391C273.136 155.246 273.972 150.077 275.983 145.323ZM288.206 221.208C287.677 218.474 286.888 215.796 285.848 213.213C295.632 215.544 304.657 208.47 308.804 199.011C309.861 202.724 313.465 212.725 322.165 216.302C320.701 219.934 313.032 246.9 301.459 248.825C291.323 250.559 281.594 233.187 281.187 214.107L284.141 212.698H284.439C285.763 215.435 286.79 218.306 287.502 221.262C287.512 221.355 287.56 221.441 287.634 221.499C287.707 221.558 287.801 221.584 287.895 221.574C287.988 221.563 288.073 221.515 288.132 221.442C288.19 221.368 288.217 221.274 288.206 221.181V221.208ZM310.972 188.442C309.698 187.818 311.324 192.399 307.096 200.367C299.616 214.595 281.81 219.338 271.078 197.656C278.26 198.74 282.379 191.938 280.32 184.105C280.718 183.698 281.195 183.375 281.721 183.156C282.247 182.937 282.812 182.827 283.382 182.832C284.374 185.224 285.937 187.336 287.935 188.984C295.903 195.434 305.579 188.984 304.847 177.601L307.855 177.276C307.964 177.854 308.045 178.423 308.099 178.983C308.099 179.363 308.749 179.39 308.912 178.983C310.538 175.297 313.899 174.782 315.796 177.493C319.211 182.29 315.389 190.583 310.972 188.415V188.442ZM290.266 164.05C303.302 160.906 309.535 186.897 296.472 190.041C295.095 190.328 293.669 190.288 292.309 189.926C290.949 189.564 289.692 188.888 288.64 187.954C280.401 181.368 281.539 166.218 290.266 164.104V164.05ZM275.875 195.705C274.209 196.586 272.267 196.79 270.455 196.274C267.323 189.044 265.489 181.32 265.034 173.454C275.631 170.202 285.496 190.339 275.875 195.759V195.705ZM263.679 191.586C261.976 189.652 260.825 187.295 260.348 184.762C259.871 182.23 260.086 179.615 260.969 177.195C261.728 182.778 262.758 187.358 263.679 191.64V191.586ZM254.573 221.398C240.427 228.615 229.711 241.134 224.761 256.223H216.034C213.053 246.06 209.394 245.383 196.25 243.485C189.176 242.456 179.23 241.615 168.823 240.965V219.473C195.925 221.127 217.633 221.316 254.573 221.479V221.398ZM189.989 311.213L194.732 328.504C195.258 330.466 196.417 332.199 198.03 333.434C199.642 334.669 201.618 335.337 203.649 335.333L216.143 334.954C237.445 351.54 246.307 360.321 274.141 370.511V386.149C253.57 387.125 218.04 387.531 197.686 383.439C125.298 368.072 144.811 303.57 189.989 311.213ZM275.414 385.065V373.059L282.352 372.734C283.978 378.642 283.924 383.032 282.352 386.149C280.091 385.514 277.762 385.15 275.414 385.065ZM289.67 384.794C290.391 382.761 290.873 380.651 291.106 378.506C291.106 378.181 292.001 378.317 292.001 378.696C292.128 380.962 291.612 383.217 290.51 385.201C290.32 385.499 289.561 385.092 289.67 384.875V384.794ZM294.792 386.474C295.47 384.306 295.714 382.165 296.228 380.187C296.228 379.862 297.014 380.051 297.041 380.376C297.289 382.65 296.764 384.942 295.551 386.881C295.443 387.125 294.684 386.8 294.792 386.474ZM299.914 388.155C300.642 386.125 301.115 384.013 301.324 381.867C301.324 381.515 302.137 381.623 302.11 381.867C302.204 384.138 301.69 386.393 300.619 388.399C300.429 388.778 299.752 388.453 299.914 388.155ZM338.561 373.167C346.692 368.045 354.416 361.08 358.129 352.001L358.725 351.649C358.803 359.183 357.975 366.698 356.259 374.035C350.387 373.331 344.474 373.041 338.561 373.167ZM311.46 383.005C311.458 383.001 311.456 382.997 311.454 382.992C310.63 381.217 309.504 379.598 308.126 378.208C322.246 371.297 338.101 359.427 347.397 346.852C347.441 346.761 347.452 346.659 347.429 346.561C347.406 346.463 347.35 346.376 347.27 346.315C347.19 346.255 347.091 346.223 346.991 346.227C346.89 346.231 346.794 346.27 346.719 346.337C335.761 359.277 322.158 369.72 306.825 376.962C302.603 373.646 297.468 371.698 292.109 371.379C286.547 371.234 280.982 371.415 275.441 371.921V370.24C275.432 370.124 275.393 370.013 275.326 369.918C275.259 369.822 275.168 369.747 275.062 369.698C263.338 365.614 252.196 360.02 241.916 353.058C272.243 336.011 304.088 311.375 324.577 309.695C345.689 308.476 359.457 323.246 359.077 341.377C358.379 371.532 312.665 382.391 311.454 382.992C311.443 382.997 311.436 383.002 311.433 383.005H311.46ZM481.876 23.8798V68.0015C441.223 68.5164 403.795 68.0015 333.71 74.3975C333.71 59.3018 333.71 42.9595 333.575 23.8798H481.876ZM332.138 23.663V74.6414C274.005 79.9263 207.633 91.309 169.094 100.795C169.094 59.4644 168.931 25.9667 168.904 23.663H332.138ZM8.59731 23.3378H167.36C167.36 37.4849 167.359 67.2968 167.17 101.255C155.408 104.182 143.049 107.597 129.824 111.69C123.563 136.081 124.213 138.114 120.419 143.182C160.123 141.827 148.361 123.343 157.332 105.239L161.722 104.101C150.285 134.916 161.451 144.971 119.986 146.163C108.251 146.461 62.4214 146.624 51.2826 146.597C52.9629 145.485 54.6974 144.429 56.459 143.399C79.1161 143.588 88.5204 143.399 88.6289 143.399C91.6371 138.222 91.4746 133.398 94.1847 123.94C73.8855 132.829 33.7478 148.033 31.0105 169.606C30.6458 173.482 31.2048 177.389 32.6416 181.007C34.0784 184.625 36.3522 187.851 39.2765 190.42C61.3916 211.776 136.68 217.522 167.224 219.446V240.965C153.104 240.125 138.252 239.664 128.577 239.664C112.126 239.664 88.2494 239.881 80.3357 251.779C79.4239 253.232 78.609 254.744 77.8965 256.305H8.59731V23.3378ZM8.59731 360.674V257.28H77.5442C61.9607 290.561 58.573 323.761 58.1936 360.674H8.59731ZM58.9253 368.398C95.1668 368.112 131.398 369.74 167.468 373.276C171.089 375.672 174.916 377.74 178.905 379.455C171.466 382.558 164.938 387.501 159.934 393.819L1.98448 387.911C8.29919 379.997 34.5337 371.162 58.8169 368.398H58.9253ZM11.4972 409.05C10.3318 409.05 9.62718 408.671 9.05804 406.936C8.4889 405.202 7.45903 400.54 7.07961 398.508L21.7146 399.05C21.7146 402.546 21.9585 406.015 22.1482 409.511L11.4972 409.05ZM20.3866 397.884C2.90594 397.207 3.36667 397.505 2.391 396.421C1.22668 394.039 0.948074 391.32 1.60505 388.751L159.934 394.497C160.232 396.963 160.449 399.429 160.692 401.868C160.718 402.038 160.704 402.211 160.653 402.374C160.602 402.538 160.514 402.688 160.397 402.813C160.28 402.938 160.136 403.035 159.976 403.097C159.816 403.158 159.644 403.183 159.473 403.169L20.3866 397.884ZM53.5592 478.431C52.2041 479.271 52.2854 479.081 40.2251 478.756C35.8888 478.756 32.8263 479.108 32.0945 476.344C29.642 465.155 27.8323 453.835 26.6742 442.44C24.9469 428.031 23.7085 413.569 22.9612 399.077L46.7837 399.971C46.7837 412.899 47.8949 433.279 48.0575 435.203C48.9339 447.409 50.4628 459.559 52.6377 471.601C52.6411 471.656 52.6563 471.709 52.6823 471.757C52.7083 471.806 52.7445 471.848 52.7883 471.881C52.8321 471.914 52.8826 471.937 52.9361 471.948C52.9897 471.96 53.0452 471.96 53.0987 471.948C53.1522 471.936 53.2025 471.913 53.2461 471.879C53.2898 471.846 53.3257 471.804 53.3514 471.755C53.3771 471.707 53.3921 471.654 53.3952 471.599C53.3983 471.544 53.3895 471.489 53.3694 471.438C52.6499 467.372 52.0354 463.287 51.5265 459.188C53.2068 457.075 58.3562 451.058 58.573 450.706L75.7013 451.898C75.4032 452.359 54.4264 477.807 53.4507 478.404L53.5592 478.431ZM48.1388 411.652L59.901 412.113C58.0851 455.747 58.7627 435.583 58.302 449.134C58.302 450.245 58.302 450.38 51.3639 457.698C49.9546 447.399 48.5182 430.054 48.0846 411.625L48.1388 411.652ZM76.0536 450.733L58.8169 449.92C59.0608 449.161 58.8169 450.76 60.985 411.977L78.3573 412.655C78.3573 412.655 76.1349 450.055 76.0536 450.733ZM48.0846 410.459C48.0846 409.809 47.922 402.844 47.8949 400.025L159.392 404.253C162.54 403.199 165.595 401.884 168.525 400.323C168.931 402.735 169.988 404.687 172.346 404.768L274.33 408.671C274.475 412.158 274.637 415.654 274.818 419.159L48.0846 410.459ZM308.993 487.374C307.611 489.217 306.094 489.163 303.763 489.055L287.773 488.296C287.001 488.279 286.264 487.969 285.713 487.428C285.134 486.843 284.771 486.079 284.683 485.26C279.263 462.332 276.553 432.439 275.55 408.698L299.128 409.619C299.128 431.572 300.809 460.598 305.28 481.439C305.265 481.495 305.263 481.554 305.274 481.612C305.285 481.669 305.309 481.723 305.345 481.769C305.38 481.816 305.426 481.854 305.478 481.879C305.53 481.905 305.588 481.919 305.646 481.919C305.705 481.919 305.762 481.905 305.815 481.879C305.867 481.854 305.913 481.816 305.948 481.769C305.983 481.723 306.008 481.669 306.019 481.612C306.03 481.554 306.028 481.495 306.012 481.439C305.443 477.753 304.901 474.067 304.413 470.381C307.443 467.251 310.311 463.968 313.004 460.544L328.832 461.357C328.696 461.573 330.295 458.89 308.993 487.374ZM300.863 421.3L314.224 421.761L312.435 458.782C312.409 459.315 312.198 459.823 311.839 460.218L304.332 468.728C302.36 452.989 301.202 437.159 300.863 421.3ZM329.401 460.083L313.411 459.703C313.628 459.053 313.411 461.601 315.417 421.761L332.274 422.33C332.274 422.33 329.455 459.703 329.374 460.083H329.401ZM343.846 420.677C343.724 420.912 343.555 421.12 343.35 421.287C343.145 421.455 342.908 421.579 342.654 421.653C342.22 421.788 300.89 420.162 300.836 420.162C300.836 416.666 300.673 413.17 300.646 409.673L331.786 410.839C334.057 410.93 336.311 410.415 338.318 409.348C338.914 409.348 336.122 409.104 344.226 409.646C344.627 409.686 345.004 409.86 345.294 410.14C345.585 410.421 345.772 410.791 345.825 411.191C345.328 414.387 344.658 417.553 343.819 420.677H343.846ZM353.63 399.727C353.85 399.828 354.045 399.974 354.204 400.157C354.363 400.339 354.481 400.553 354.551 400.784C354.714 401.326 353.142 408.617 352.871 409.89C350.577 413.23 348.012 416.376 345.201 419.295C345.881 416.621 346.379 413.905 346.692 411.164C346.6 410.575 346.317 410.033 345.885 409.621C345.454 409.21 344.9 408.952 344.307 408.888L339.537 408.698C343.125 405.844 346.52 402.757 349.7 399.456C353.413 399.619 353.224 399.565 353.603 399.727H353.63ZM339.754 406.99C337.537 408.851 334.705 409.817 331.813 409.701L172.4 403.63C169.284 403.63 169.311 398.209 169.69 395.147L329.97 401.38C340.188 401.841 353.386 385.634 356.638 376.989C359.349 369.238 359.809 359.291 359.999 351.025C361.781 349.894 363.492 348.654 365.121 347.312C365.04 376.745 362.655 387.965 339.727 406.99H339.754ZM365.772 362.95C366.097 358.126 366.205 352.678 366.178 346.255C384.174 330.78 388.781 306.199 388.781 284.626C388.938 275.361 387.621 266.131 384.878 257.28H482.147V316.416C475.127 315.739 467.918 315.17 465.018 314.953C465.018 314.953 415.964 312.703 397.264 317.663C381.382 321.864 381.328 345.578 394.039 353.464C391.846 356.414 389.966 359.584 388.429 362.923L365.772 362.95ZM394.581 352.922C382.521 345.28 382.602 322.677 397.454 318.774C411.004 315.224 446.237 315.034 460.465 315.658L493.882 318.503C483.827 322.108 476.862 345.605 482.526 357.286C480.068 356.58 477.558 356.073 475.019 355.768C468.623 354.901 399.893 348.83 394.554 352.922H394.581ZM473.311 449.323C466.292 448.863 462.091 444.174 461.902 438.998C461.224 431.816 463.988 412.167 464.259 411.733C465.297 411.673 466.338 411.673 467.376 411.733L469.382 385.39C473.42 385.228 477.756 387.667 482.336 387.748L480.331 413.197L483.041 413.657L484.342 394.686C485.453 394.686 487.188 395.12 487.594 396.15L486.32 413.956C490.033 414.742 489.573 413.007 489.03 425.88C488.19 440.597 488.19 450.299 473.284 449.323H473.311ZM506.836 445.096C506.994 453.405 506.276 461.707 504.695 469.867C501.497 483.824 496.131 483.255 488.841 471.005C491.423 463.328 492.99 455.347 493.502 447.264C493.99 441.843 495.643 415.013 495.887 393.656C504.126 409.592 506.972 427.208 506.836 445.096Z" fill="#2C2C2C"/>
<path d="M189.989 311.213L194.732 328.504C195.258 330.466 196.417 332.199 198.03 333.434C199.642 334.669 201.618 335.337 203.649 335.333L216.143 334.954C237.445 351.54 246.307 360.321 274.141 370.511V386.149C253.57 387.125 218.04 387.531 197.686 383.439C125.298 368.072 144.811 303.57 189.989 311.213Z" fill="#F2D2DC"/>
<path d="M308.126 378.208C309.504 379.598 310.63 381.217 311.454 382.992C312.665 382.391 358.379 371.532 359.077 341.377C359.457 323.246 345.689 308.476 324.577 309.695C304.088 311.375 272.243 336.011 241.916 353.058C252.196 360.02 263.338 365.614 275.062 369.698C275.168 369.747 275.259 369.822 275.326 369.918C275.393 370.013 275.432 370.124 275.441 370.24V371.921C280.982 371.415 286.547 371.234 292.109 371.379C297.468 371.698 302.603 373.646 306.825 376.962C322.158 369.72 335.761 359.277 346.719 346.337C346.794 346.27 346.89 346.231 346.991 346.227C347.091 346.223 347.19 346.255 347.27 346.315C347.35 346.376 347.406 346.463 347.429 346.561C347.452 346.659 347.441 346.761 347.397 346.852C338.101 359.427 322.246 371.297 308.126 378.208Z" fill="#F2D2DC"/>
<path d="M271.783 333.382C261.511 339.886 251.321 346.472 240.778 352.353C233.434 347.231 227.227 341.919 218.365 334.981L271.783 333.382Z" fill="#F2D2DC"/>
<path d="M344.388 294.464C319.048 292.269 305.714 300.426 284.764 303.218L289.263 322.65C284.168 325.604 278.856 328.91 273.788 332.108L203.974 334.249C202.26 334.29 200.576 333.788 199.165 332.814C197.753 331.841 196.686 330.446 196.114 328.829C225.032 328.043 266.796 326.444 270.97 326.281C271.056 326.281 271.139 326.247 271.2 326.186C271.261 326.125 271.295 326.042 271.295 325.956C271.295 325.87 271.261 325.787 271.2 325.726C271.139 325.665 271.056 325.631 270.97 325.631C254.709 326.065 224.056 326.823 195.843 327.853C183.187 281.78 183.783 284.111 183.864 283.84C183.871 283.747 183.855 283.654 183.817 283.569C183.779 283.484 183.721 283.41 183.648 283.352L180.938 273.623C180.692 272.814 180.64 271.959 180.784 271.126C180.928 270.293 181.265 269.505 181.768 268.826C182.271 268.146 182.926 267.594 183.681 267.213C184.435 266.831 185.269 266.632 186.114 266.63L256.579 265.113C255.526 260.128 253.927 255.274 251.809 250.64C250.725 247.93 252.866 248.228 253.652 249.854C256.239 254.657 258.215 259.765 259.533 265.058L269.886 264.815C271.539 264.804 273.148 265.353 274.452 266.371C275.755 267.389 276.677 268.817 277.068 270.425L283.951 300.101C299.969 297.852 313.763 292.296 330.35 291.483C335.418 271.509 339.998 250.288 355.934 237.279C357.668 235.897 358.834 237.442 357.045 238.797C348.535 245.328 344.768 254.028 341.516 263.188C337.884 273.379 336.095 283.244 333.9 291.076C337.525 290.96 341.153 291.169 344.741 291.7C348.752 292.404 346.529 294.572 344.388 294.41V294.464Z" fill="#F2D2DC"/>
<path d="M288.206 221.208C287.677 218.474 286.888 215.796 285.848 213.213C295.632 215.544 304.657 208.47 308.804 199.011C309.861 202.724 313.465 212.725 322.165 216.302C320.701 219.934 313.032 246.9 301.459 248.825C291.323 250.559 281.594 233.187 281.187 214.107L284.141 212.698H284.439C285.763 215.435 286.79 218.306 287.502 221.262C287.512 221.355 287.56 221.441 287.634 221.499C287.707 221.558 287.801 221.584 287.895 221.574C287.988 221.563 288.073 221.515 288.132 221.442C288.19 221.368 288.217 221.274 288.206 221.181V221.208Z" fill="#F2D2DC"/>
<path d="M310.972 188.442C309.698 187.818 311.324 192.399 307.096 200.367C299.616 214.595 281.81 219.338 271.078 197.656C278.26 198.74 282.379 191.938 280.32 184.105C280.718 183.698 281.195 183.375 281.721 183.156C282.247 182.937 282.812 182.827 283.382 182.832C284.374 185.224 285.937 187.336 287.935 188.984C295.903 195.434 305.579 188.984 304.847 177.601L307.855 177.276C307.964 177.854 308.045 178.423 308.099 178.983C308.099 179.363 308.749 179.39 308.912 178.983C310.538 175.297 313.899 174.782 315.796 177.493C319.211 182.29 315.389 190.583 310.972 188.415V188.442Z" fill="#F2D2DC"/>
<path d="M275.983 145.323C275.27 149.779 275.529 154.337 276.742 158.684C276.959 159.443 277.989 158.169 282.678 157.708C288.347 157.268 293.986 158.882 298.564 162.256C303.142 165.63 306.353 170.538 307.611 176.083L304.738 176.381C303.546 167.248 296.31 161.476 290.022 162.993C283.735 164.511 279.723 172.506 282.949 181.666C281.848 181.726 280.794 182.134 279.94 182.832C277.718 176.192 271.051 170.771 265.061 172.316V168.847C267.118 165.489 269.977 162.695 273.382 160.717C273.441 160.688 273.489 160.641 273.518 160.582C273.548 160.523 273.557 160.456 273.544 160.391C273.136 155.246 273.972 150.077 275.983 145.323Z" fill="#F2D2DC"/>
<path d="M275.414 385.065V373.059L282.352 372.734C283.978 378.642 283.924 383.032 282.352 386.149C280.091 385.514 277.762 385.15 275.414 385.065Z" fill="#F2D2DC"/>
<path d="M275.875 195.705C274.209 196.586 272.267 196.79 270.455 196.274C267.323 189.044 265.489 181.32 265.034 173.454C275.631 170.202 285.496 190.339 275.875 195.759V195.705Z" fill="#F2D2DC"/>
<path d="M290.266 164.05C303.302 160.906 309.535 186.897 296.472 190.041C295.095 190.328 293.669 190.288 292.309 189.926C290.949 189.564 289.692 188.888 288.64 187.954C280.401 181.368 281.539 166.218 290.266 164.104V164.05Z" fill="#F2D2DC"/>
<path d="M288.613 192.452C288.374 192.655 288.148 192.873 287.935 193.103C287.041 193.834 285.713 194.431 285.225 193.943C284.986 193.545 284.803 193.117 284.683 192.669C284.047 190.626 283.305 188.618 282.46 186.652C282.41 186.577 282.332 186.525 282.243 186.507C282.154 186.489 282.062 186.507 281.986 186.558C281.911 186.608 281.858 186.686 281.84 186.775C281.823 186.864 281.841 186.956 281.891 187.032C282.385 189.775 283.299 192.426 284.601 194.891C285.028 195.138 285.507 195.279 285.999 195.303C286.491 195.327 286.981 195.233 287.429 195.028C287.878 194.824 288.27 194.516 288.575 194.129C288.88 193.742 289.088 193.288 289.182 192.805C289.182 192.452 288.965 192.262 288.613 192.452ZM296.77 194.431C296.933 199.851 294.06 202.155 289.155 201.558C289.073 201.558 288.994 201.587 288.931 201.638C288.868 201.69 288.825 201.762 288.809 201.842C288.793 201.921 288.805 202.004 288.844 202.076C288.882 202.148 288.944 202.205 289.019 202.236C290.142 202.643 291.356 202.731 292.526 202.491C293.697 202.251 294.778 201.692 295.65 200.875C296.522 200.059 297.152 199.018 297.469 197.866C297.786 196.714 297.779 195.497 297.448 194.349C297.419 194.276 297.368 194.215 297.301 194.175C297.233 194.135 297.155 194.118 297.077 194.127C297 194.137 296.928 194.172 296.872 194.226C296.816 194.281 296.78 194.353 296.77 194.431ZM291.648 176.571C291.052 176.733 290.862 177.844 291.268 179.064C291.675 180.283 292.434 181.124 293.057 180.961C293.681 180.798 293.816 179.687 293.437 178.468C293.057 177.248 292.244 176.408 291.648 176.571ZM294.439 172.072C294.629 172.234 294.927 172.072 294.765 171.801C292.054 168.142 287.827 169.334 287.528 172.939C287.528 173.156 287.854 173.237 287.935 172.939C289.046 169.904 291.783 169.47 294.439 172.072ZM272.731 183.725C272.135 183.969 272.108 185.108 272.731 186.246C273.354 187.384 274.167 188.143 274.764 187.899C275.36 187.655 275.36 186.544 274.764 185.406C274.167 184.267 273.3 183.509 272.731 183.725ZM268.503 181.611C268.503 181.611 268.666 181.611 268.747 181.449C268.798 180.963 268.95 180.494 269.192 180.07C269.434 179.646 269.762 179.277 270.154 178.986C270.547 178.696 270.995 178.49 271.472 178.382C271.948 178.274 272.441 178.266 272.921 178.359C274.384 178.088 270.021 176.354 268.611 179.714C268.34 179.985 268.096 181.368 268.503 181.611Z" fill="#2C2C2C"/>
<path d="M223.162 297.174C223.162 299.251 223.982 301.244 225.44 302.713C226.899 304.181 228.877 305.007 230.94 305.007C233.003 305.007 234.982 304.181 236.44 302.713C237.899 301.244 238.719 299.251 238.719 297.174C238.719 295.097 237.899 293.105 236.44 291.636C234.982 290.167 233.003 289.342 230.94 289.342C228.877 289.342 226.899 290.167 225.44 291.636C223.982 293.105 223.162 295.097 223.162 297.174Z" fill="#2C2C2C"/>
<path d="M415.964 400.296L414.609 411.272C414.593 411.461 414.648 411.649 414.763 411.8C414.878 411.95 415.046 412.052 415.232 412.085L424.122 413.278C424.186 413.288 424.251 413.286 424.315 413.272C424.378 413.257 424.438 413.23 424.491 413.192C424.544 413.155 424.588 413.107 424.623 413.052C424.657 412.997 424.68 412.935 424.691 412.871C424.702 412.807 424.7 412.742 424.685 412.678C424.67 412.615 424.643 412.555 424.606 412.502C424.568 412.45 424.52 412.405 424.465 412.37C424.41 412.336 424.349 412.313 424.284 412.302L416.154 410.73L416.615 400.35C416.622 400.264 416.595 400.178 416.539 400.112C416.483 400.046 416.403 400.005 416.317 399.998C416.23 399.991 416.145 400.018 416.079 400.074C416.013 400.13 415.971 400.21 415.964 400.296ZM244.654 130.118C246.183 128.591 247.312 126.709 247.938 124.641C248.565 122.572 248.671 120.381 248.247 118.261C247.822 116.142 246.881 114.16 245.506 112.492C244.131 110.825 242.365 109.523 240.365 108.702C238.366 107.881 236.194 107.567 234.044 107.788C231.894 108.009 229.832 108.758 228.041 109.968C226.25 111.179 224.786 112.813 223.778 114.725C222.771 116.638 222.252 118.77 222.268 120.931C222.299 123.511 223.089 126.024 224.538 128.159C225.988 130.293 228.034 131.953 230.421 132.933C232.807 133.912 235.43 134.168 237.961 133.667C240.492 133.167 242.82 131.933 244.654 130.118ZM244.166 112.014C245.599 113.455 246.656 115.227 247.243 117.172C247.83 119.118 247.929 121.178 247.531 123.172C247.134 125.165 246.252 127.029 244.963 128.601C243.675 130.173 242.02 131.403 240.143 132.184C238.267 132.965 236.227 133.272 234.204 133.078C232.181 132.884 230.237 132.196 228.543 131.073C226.849 129.95 225.457 128.428 224.49 126.641C223.524 124.853 223.012 122.855 223 120.823C223.032 118.385 223.78 116.01 225.15 113.994C226.521 111.977 228.454 110.408 230.709 109.481C232.964 108.554 235.442 108.311 237.835 108.78C240.227 109.25 242.429 110.412 244.166 112.123V112.014Z" fill="#2C2C2C"/>
<path d="M235.358 130.118C236.871 130.113 238.359 129.735 239.692 129.018C241.024 128.301 242.16 127.268 242.998 126.008C243.836 124.748 244.351 123.301 244.498 121.795C244.644 120.289 244.417 118.771 243.838 117.373C243.258 115.975 242.343 114.742 241.174 113.782C240.004 112.822 238.616 112.164 237.133 111.868C235.649 111.571 234.115 111.644 232.666 112.081C231.218 112.518 229.899 113.305 228.826 114.372C227.518 115.656 226.623 117.301 226.257 119.097C225.891 120.894 226.071 122.758 226.773 124.451C227.476 126.144 228.668 127.589 230.198 128.599C231.728 129.609 233.525 130.138 235.358 130.118ZM243.299 117.76L235.358 129.359C234.021 129.331 232.707 129.007 231.51 128.411L241.022 114.507C242.042 115.394 242.824 116.521 243.299 117.787V117.76ZM234.355 112.339C235.759 112.161 237.184 112.338 238.502 112.854L229.152 126.405C228.194 125.372 227.513 124.113 227.173 122.746L234.355 112.339ZM317.964 130.118C319.461 128.578 320.557 126.695 321.156 124.632C321.755 122.57 321.839 120.392 321.4 118.29C320.96 116.188 320.011 114.226 318.637 112.576C317.262 110.926 315.503 109.639 313.514 108.828C311.526 108.017 309.369 107.706 307.232 107.924C305.096 108.141 303.045 108.88 301.261 110.075C299.477 111.27 298.013 112.884 296.998 114.777C295.984 116.67 295.45 118.783 295.443 120.931C295.46 123.532 296.248 126.071 297.707 128.225C299.165 130.38 301.229 132.054 303.639 133.037C306.048 134.02 308.694 134.267 311.244 133.748C313.793 133.228 316.132 131.965 317.964 130.118ZM308.668 108.437C311.117 108.431 313.512 109.152 315.551 110.507C317.59 111.862 319.182 113.792 320.125 116.051C321.068 118.311 321.32 120.799 320.85 123.202C320.38 125.605 319.207 127.814 317.482 129.551C315.756 131.288 313.554 132.475 311.155 132.961C308.755 133.447 306.265 133.211 303.999 132.283C301.734 131.355 299.794 129.776 298.425 127.745C297.057 125.715 296.321 123.325 296.31 120.876C296.303 119.248 296.617 117.633 297.234 116.126C297.852 114.619 298.761 113.249 299.909 112.093C301.057 110.938 302.421 110.02 303.924 109.392C305.427 108.765 307.039 108.44 308.668 108.437Z" fill="#2C2C2C"/>
<path d="M315.172 127.408C316.797 125.662 317.681 123.354 317.639 120.97C317.597 118.586 316.632 116.311 314.948 114.623C313.264 112.935 310.991 111.966 308.606 111.919C306.222 111.872 303.913 112.751 302.164 114.372C293.41 122.99 306.581 136.135 315.172 127.408ZM316.609 117.76L308.668 129.359C307.331 129.329 306.018 129.005 304.82 128.411L314.414 114.535C315.408 115.416 316.163 116.535 316.609 117.787V117.76ZM307.692 112.339C309.096 112.147 310.525 112.324 311.839 112.854L302.462 126.405C301.513 125.365 300.834 124.109 300.483 122.746L307.692 112.339ZM372.71 111.635C371.162 113.156 370.016 115.036 369.372 117.108C368.728 119.18 368.607 121.379 369.02 123.509C369.433 125.639 370.366 127.634 371.738 129.315C373.109 130.996 374.875 132.312 376.878 133.145C378.882 133.978 381.06 134.302 383.219 134.088C385.378 133.875 387.451 133.13 389.252 131.92C391.053 130.711 392.527 129.074 393.542 127.157C394.557 125.239 395.081 123.1 395.068 120.931C394.993 118.375 394.182 115.895 392.732 113.789C391.281 111.683 389.254 110.04 386.892 109.058C384.531 108.077 381.937 107.798 379.421 108.255C376.905 108.712 374.575 109.885 372.71 111.635ZM369.647 120.931C369.569 119.257 369.831 117.585 370.417 116.016C371.003 114.447 371.902 113.013 373.059 111.801C374.215 110.589 375.606 109.624 377.146 108.965C378.686 108.306 380.344 107.966 382.019 107.966C383.694 107.966 385.352 108.306 386.892 108.965C388.432 109.624 389.823 110.589 390.979 111.801C392.136 113.013 393.035 114.447 393.621 116.016C394.207 117.585 394.469 119.257 394.391 120.931C394.337 137.246 369.701 136.948 369.647 120.931Z" fill="#2C2C2C"/>
<path d="M375.474 114.399C373.75 116.137 372.777 118.483 372.764 120.931C372.765 123.062 373.504 125.126 374.857 126.773C376.209 128.42 378.09 129.548 380.18 129.963C382.27 130.379 384.44 130.058 386.319 129.054C388.199 128.05 389.673 126.426 390.489 124.458C391.306 122.489 391.415 120.299 390.798 118.259C390.182 116.219 388.877 114.456 387.107 113.27C385.336 112.084 383.209 111.549 381.088 111.754C378.967 111.96 376.983 112.895 375.474 114.399ZM373.794 122.963L381.003 112.475C382.406 112.298 383.832 112.475 385.149 112.99L375.772 126.541C374.835 125.524 374.157 124.297 373.794 122.963ZM381.924 129.386C380.588 129.354 379.274 129.03 378.076 128.438L387.588 114.535C388.604 115.414 389.386 116.531 389.865 117.787L381.924 129.386ZM464.612 130.118C466.433 128.278 467.668 125.941 468.164 123.4C468.659 120.859 468.391 118.229 467.394 115.84C466.398 113.451 464.716 111.41 462.562 109.975C460.408 108.539 457.877 107.773 455.289 107.773C452.7 107.773 450.169 108.539 448.015 109.975C445.861 111.41 444.18 113.451 443.183 115.84C442.186 118.229 441.918 120.859 442.414 123.4C442.909 125.941 444.145 128.278 445.966 130.118C447.189 131.344 448.642 132.317 450.242 132.98C451.842 133.644 453.557 133.985 455.289 133.985C457.021 133.985 458.735 133.644 460.335 132.98C461.935 132.317 463.388 131.344 464.612 130.118ZM455.343 108.437C457.374 108.433 459.374 108.929 461.167 109.883C462.96 110.836 464.491 112.216 465.624 113.902C466.757 115.587 467.457 117.526 467.662 119.547C467.867 121.567 467.571 123.607 466.8 125.486C466.029 127.365 464.807 129.025 463.242 130.319C461.677 131.613 459.817 132.502 457.827 132.906C455.837 133.31 453.778 133.218 451.832 132.637C449.886 132.056 448.113 131.005 446.67 129.576C444.931 127.854 443.743 125.654 443.256 123.256C442.768 120.858 443.004 118.369 443.933 116.104C444.862 113.84 446.442 111.903 448.473 110.538C450.505 109.173 452.895 108.441 455.343 108.437Z" fill="#2C2C2C"/>
<path d="M461.82 127.408C462.882 126.332 463.663 125.012 464.094 123.563C464.525 122.114 464.593 120.582 464.292 119.101C463.991 117.619 463.33 116.235 462.368 115.069C461.406 113.904 460.172 112.993 458.775 112.417C457.377 111.84 455.86 111.617 454.356 111.765C452.852 111.914 451.407 112.43 450.15 113.269C448.892 114.107 447.86 115.242 447.145 116.574C446.429 117.905 446.052 119.392 446.047 120.903C446.054 122.728 446.6 124.51 447.618 126.024C448.636 127.538 450.079 128.718 451.766 129.413C453.452 130.109 455.307 130.29 457.097 129.933C458.886 129.576 460.53 128.697 461.82 127.408ZM463.257 117.76L455.343 129.386C454.004 129.371 452.687 129.047 451.495 128.438L461.034 114.534C462.023 115.426 462.785 116.541 463.257 117.787V117.76ZM454.313 112.339C455.717 112.165 457.142 112.342 458.46 112.854L449.11 126.405C448.143 125.374 447.453 124.115 447.104 122.746L454.313 112.339ZM179.257 189.064C179.465 191.069 180.044 193.017 180.965 194.81C187.09 206.843 205.356 205.867 212.349 199.58C219.341 193.292 217.769 185.812 217.769 183.319V148.086C217.571 146.089 216.991 144.147 216.061 142.368C210.641 131.527 199.8 133.397 195.681 133.316C191.616 133.254 187.676 134.716 184.636 137.415C181.596 140.114 179.677 143.853 179.257 147.897C179.122 149.929 179.122 187.601 179.257 189.064ZM180.206 148.114C180.616 144.29 182.432 140.756 185.302 138.197C188.172 135.637 191.89 134.236 195.735 134.265C200.83 134.265 210.397 133.045 215.411 142.829C216.2 144.53 216.634 146.374 216.685 148.249C216.902 150.58 216.875 176.543 216.685 183.292C216.685 187.791 217.66 194.132 211.752 199.146C204.082 206.003 181.615 205.352 180.233 188.956C180.097 187.574 180.016 150.011 180.206 148.114ZM116.788 143.289C122.452 136.46 120.88 127.516 126.463 112.746C114.565 116.432 104.782 119.955 97.166 122.963C95.3502 131.094 93.453 139.847 91.3662 143.425C100.445 143.398 107.681 143.669 116.788 143.289Z" fill="#2C2C2C"/>
</g>
<defs>
<clipPath id="clip0_1109_4012">
<rect width="515" height="515" fill="white"/>
</clipPath>
</defs>
</svg>
